<svg width="180" height="180" viewBox="0 0 180 180" fill="none" xmlns="http://www.w3.org/2000/svg">
<defs>
<linearGradient id="paint0_linear_351_5822" x1="98.4999" y1="24.7501" x2="123.21" y2="55.2332" gradientUnits="userSpaceOnUse">
<stop stop-color="#F8E3BF"/>
<stop offset="0.585011" stop-color="#E69716"/>
</linearGradient>
<linearGradient id="paint1_linear_351_5822" x1="120.778" y1="123.59" x2="128.192" y2="131.004" gradientUnits="userSpaceOnUse">
<stop stop-color="#F8E3BF"/>
<stop offset="1" stop-color="#E69716"/>
</linearGradient>
<linearGradient id="paint2_linear_351_5822" x1="95.9562" y1="77.8866" x2="131.039" y2="65.0458" gradientUnits="userSpaceOnUse">
<stop stop-color="#F8E3BF"/>
<stop offset="1" stop-color="#E69716"/>
</linearGradient>
</defs>
<path d="M62.9499 28.8499C75.5499 34.3999 90.1999 31.2999 103.95 30.7999C117.7 30.2999 132.95 31.9999 142.4 41.8499C146.4 46.0499 149 51.3499 150.9 56.7999C155.3 69.4999 156.05 83.5999 151.7 96.3499C147.35 109.1 137.55 120.2 124.8 125.05C120.1 126.85 115.05 127.8 110.3 129.6C102.9 132.45 96.4999 137.25 90.7499 142.6C84.5499 148.35 78.7499 154.95 70.9999 158.5C63.3499 162 54.5999 162.15 46.1999 161.4C41.5999 161 36.8999 160.3 32.7499 158.3C25.5999 154.85 20.8499 147.75 18.8499 140.15C16.8999 132.6 17.4999 124.6 18.8999 116.95C20.2999 109.55 22.4499 102.15 22.4999 94.6499C22.5999 84.2499 18.6499 74.2999 16.6499 64.0499C14.6499 53.7999 15.0499 42.1499 22.2499 34.4999C31.0499 25.2999 46.1999 23.4999 58.6499 26.8499C59.7999 27.1499 61.8499 28.3499 62.9499 28.8499Z" fill="#EAEEF3"/>
<g opacity="0.3">
<path opacity="0.6" d="M95.0502 138.85C93.6002 138.6 92.0502 138.45 90.6002 138.4C72.2502 137.6 53.8002 143.35 35.7002 140.45C30.6002 139.6 25.5002 138.05 21.2002 135.2C19.9502 134.4 18.8002 133.45 17.7002 132.45C17.8502 135.05 18.2002 137.65 18.8502 140.2C20.8002 147.75 25.6002 154.9 32.7502 158.3C36.9002 160.3 41.6002 161 46.2002 161.4C54.6002 162.15 63.4002 161.95 71.0002 158.5C78.7502 154.95 84.5502 148.4 90.7502 142.6C92.1502 141.35 93.6002 140.1 95.0502 138.85Z" fill="#94A8C4"/>
</g>
<g opacity="0.3">
<path opacity="0.6" d="M88.8001 102.35C79.0001 98.15 68.2501 96.75 57.7001 95.2C47.1501 93.65 36.4001 91.75 27.0501 86.65C25.0001 85.55 23.0001 84.2 21.1501 82.75C22.0001 86.7 22.5501 90.65 22.5001 94.7C22.4501 102.25 20.2501 109.6 18.9001 117C17.4501 124.65 16.9001 132.65 18.8501 140.2C20.8001 147.75 25.6001 154.9 32.7501 158.3C36.9001 160.3 41.6001 161 46.2001 161.4C54.6001 162.15 63.4001 161.95 71.0001 158.5C78.7501 154.95 84.5501 148.4 90.7501 142.6C96.5001 137.25 102.9 132.4 110.3 129.6C112.25 128.85 114.25 128.25 116.25 127.7C110.25 116.55 100.45 107.4 88.8001 102.35Z" fill="#BFCBDC"/>
</g>
<path d="M49.4998 153.35C50.6498 156.85 52.2998 159.65 54.3998 161.8C60.1498 161.75 65.8498 160.9 70.9998 158.55C78.7498 155 84.5498 148.45 90.7498 142.65C96.4998 137.3 102.9 132.45 110.3 129.65C113.5 128.45 116.8 127.6 120.05 126.65C117 106.9 107.3 32.85 104 18.15C100.5 2.34999 91.4998 4.29999 58.7498 10.3C26.0498 16.2 26.6498 26.4 28.9998 41.15C31.3498 55.85 42.8998 132.95 49.4998 153.35Z" fill="#5373A1"/>
<path d="M56.45 148.6C58.4 154.7 61.7 158.3 66.45 160.2C68 159.75 69.5 159.2 71 158.55C78.75 155 84.55 148.45 90.75 142.65C96.5 137.3 102.9 132.45 110.3 129.65C111.6 129.15 112.95 128.7 114.3 128.3C111.05 104.25 105.6 60.95 102.95 42.75C99.4 18.5 96.45 15.35 93.7 15.65C90.95 15.95 83.2 16.9 80.3 17.45C77.4 18 79 24.55 76.35 25.25C73.7 25.95 67.6 26.65 61.7 27.25C55.8 27.9 56.05 22.25 54.2 22.6C52.35 22.95 50.05 23.35 43 24.85C35.95 26.4 37.35 31.5 37.85 35.5C37.85 35.5 52.05 134.8 56.45 148.6Z" fill="white"/>
<path d="M101.55 65.7C101.3 63.6 96.2999 32.5 95.4999 30.5C95.2999 30.05 95.0999 29.55 94.6499 29.3C94.2999 29.1 93.8499 29.1 93.4499 29.1C89.7999 29.1 86.1499 29.6 82.4999 30.1C71.1999 31.6 59.8999 33.1 48.6499 35.1C47.0999 35.4 45.2499 35.85 44.6999 37.35C44.3499 38.2 44.5499 39.1 44.6999 40C45.1499 42.35 49.7999 71.05 50.2499 73.4C50.2499 73.4 50.7499 76.35 53.7999 76C56.8499 75.65 99.5499 68.6 99.5499 68.6C99.5499 68.6 101.9 68.45 101.55 65.7Z" fill="#EAEEF3"/>
<path d="M95.4999 30.55C95.2999 30.1 95.0999 29.6 94.6499 29.35C94.2999 29.15 93.8499 29.15 93.4499 29.15C89.7999 29.15 86.1499 29.65 82.4999 30.15C71.1999 31.65 59.8999 33.15 48.6499 35.15C47.0999 35.45 45.2499 35.9 44.6999 37.4C44.3499 38.25 44.5499 39.15 44.6999 40.05C44.9999 41.7 47.2999 55.9 48.8499 65.3L100.25 57.4C98.6499 47.35 96.0999 31.9 95.4999 30.55Z" fill="#BFCBDC"/>
<path d="M53.9499 86.45C54.7499 85.45 55.9999 84.95 57.2499 84.6C60.4999 83.65 63.8499 83.2 67.1999 82.8C76.8999 81.55 86.5499 80.25 96.2499 79C97.4999 78.85 98.8999 78.7 99.8999 79.45C100.9 80.2 101.2 81.55 101.4 82.75C101.8 85 102.2 87.25 102.6 89.5C102.8 90.6 102.95 91.9 102.15 92.7C101.75 93.15 101.15 93.35 100.55 93.5C87.4999 97.5 73.8999 99.8 60.2499 100.3C59.0499 100.35 57.7999 100.35 56.6999 99.95C55.5999 99.5 54.5999 98.5 54.6499 97.3C54.6499 97.3 52.5999 88.2 53.9499 86.45Z" fill="#BFCBDC"/>
<path d="M70.2997 99.6C80.5497 98.55 90.6997 96.5 100.55 93.5C101.15 93.3 101.75 93.15 102.15 92.7C102.9 91.9 102.8 90.6 102.6 89.5C102.2 87.25 101.8 85 101.4 82.75C101.2 81.55 100.9 80.2 99.8997 79.45C98.8997 78.7 97.4997 78.85 96.2497 79C86.9997 80.2 76.4497 81.6 67.1997 82.8C68.2997 89.65 69.1497 92.45 70.2997 99.6Z" fill="#EAEEF3"/>
<path d="M58.4001 108.55C59.2001 107.55 60.4501 107.05 61.7001 106.7C64.9501 105.75 68.3001 105.3 71.6501 104.9C81.3501 103.65 91.0001 102.35 100.7 101.1C101.95 100.95 103.35 100.8 104.35 101.55C105.35 102.3 105.65 103.65 105.85 104.85C106.25 107.1 106.65 109.35 107.05 111.6C107.25 112.7 107.4 114 106.6 114.8C106.2 115.25 105.6 115.45 105 115.6C91.9501 119.6 78.3501 121.9 64.7001 122.4C63.5001 122.45 62.2501 122.45 61.1501 122.05C60.0501 121.6 59.0501 120.6 59.1001 119.4C59.1501 119.35 57.0501 110.3 58.4001 108.55Z" fill="#BFCBDC"/>
<path d="M74.8002 121.65C85.0502 120.6 95.2002 118.55 105.05 115.55C105.65 115.35 106.25 115.2 106.65 114.75C107.4 113.95 107.3 112.65 107.1 111.55C106.7 109.3 106.3 107.05 105.9 104.8C105.7 103.6 105.4 102.25 104.4 101.5C103.4 100.75 102 100.9 100.75 101.05C91.5002 102.25 80.9502 103.65 71.7002 104.85C72.8002 111.7 73.6502 114.55 74.8002 121.65Z" fill="#EAEEF3"/>
<path d="M77.8 108.45C84.2 107.4 90.6 106.55 97 105.85C97.7 105.8 97.45 104.75 96.75 104.8C90.3 105.5 83.9 106.35 77.55 107.4C76.9 107.5 77.15 108.55 77.8 108.45Z" fill="#BFCBDC"/>
<path d="M80.7 111.7C83.4 111 86.1 110.55 88.9 110.35C89.2 110.35 89.45 110.15 89.45 109.85C89.45 109.6 89.25 109.25 88.95 109.3C86.1 109.5 83.25 109.95 80.5 110.7C79.8 110.85 80 111.85 80.7 111.7Z" fill="#BFCBDC"/>
<path d="M55.6999 68.3001C62.3499 67.2501 69.0499 66.3001 75.7499 65.5001C76.4499 65.4001 76.1999 64.4001 75.4999 64.4501C68.7999 65.2501 62.0999 66.2001 55.4499 67.2501C54.7999 67.4001 55.0499 68.4001 55.6999 68.3001Z" fill="#BFCBDC"/>
<path d="M56.4 71.1C58.65 70.65 60.95 70.25 63.25 69.95C63.95 69.85 63.7 68.8 63 68.9C60.7 69.2 58.45 69.6 56.15 70.05C55.5 70.2 55.7 71.2 56.4 71.1Z" fill="#BFCBDC"/>
<path d="M65.6999 69.3C68.2999 68.8 70.8999 68.45 73.5499 68.1C74.2499 68 73.9999 67 73.2999 67.05C70.6499 67.35 68.0499 67.75 65.4499 68.25C64.7999 68.4 65.0499 69.45 65.6999 69.3Z" fill="#BFCBDC"/>
<path d="M72.4499 87.75C79.3999 86.5 86.3499 85.2 93.2999 83.95C93.9499 83.85 93.7499 82.8 93.0499 82.9C86.0999 84.15 79.1499 85.45 72.1999 86.7C71.5499 86.85 71.7999 87.85 72.4499 87.75Z" fill="#BFCBDC"/>
<path d="M72.9999 90.7C79.8999 89.9 86.7499 88.8501 93.5999 87.5501C94.2499 87.4001 94.0499 86.4001 93.3499 86.5001C86.5499 87.8001 79.6499 88.8501 72.7499 89.6501C72.0499 89.75 72.2999 90.8 72.9999 90.7Z" fill="#BFCBDC"/>
<path d="M74.6998 95.2C77.6998 94.8 80.7498 94.4 83.7498 94C84.4498 93.8999 84.1998 92.8499 83.4998 92.9499C80.4998 93.3499 77.4498 93.75 74.4498 94.15C73.7998 94.25 73.9998 95.3 74.6998 95.2Z" fill="#BFCBDC"/>
<path d="M113.4 136.45C107.7 138.5 102 141.45 98.6999 146.5C95.3999 151.55 95.3499 159.15 100.05 163C102.15 164.7 104.85 165.5 107.5 166C119.45 168.35 132.25 166.3 142.9 160.35C147.3 157.9 151.45 154.7 153.8 150.25C156.15 145.8 156.3 139.95 153.2 136C150.3 132.35 140.95 129.3 134.2 130.8C128.95 132 120.9 133.75 113.4 136.45Z" fill="#BFCBDC"/>
<g opacity="0.4">
<path opacity="0.8" d="M103.85 38.95C95.35 44.3 82.6 55.8 78.95 65.15C77.8 68.15 77.05 71.85 79.2 74.3C80.3 75.55 81.95 76.2 82.85 77.55C84 79.4 83.45 81.95 84.65 83.75C85.85 85.5 88.55 86.3 88.75 88.4C88.85 89.2 88.5 90 88.15 90.75C86.05 95.45 84.6 100.45 83.7 105.5C82.9 110.15 82.75 115.25 85.3 119.15C87.4 122.35 91 124.25 94.5 125.8C98.25 127.45 110.3 127.2 114.25 128.35L106.45 43.0999L103.85 38.95Z" fill="#D4DCE8"/>
</g>
<path d="M103.4 51.8L98.3999 48.1L102 43.8C102 43.8 103.95 42.5 103.55 40.6C103.15 38.7 101.95 37.4 100.8 37.3C99.6499 37.2 96.1999 37.05 95.8499 33.85C95.4499 30.7 95.4499 30.7 95.4499 30.7L94.1499 30.6C94.1499 30.6 96.5999 24.55 96.8999 23.35C97.1999 22.15 98.6999 17.65 101.55 17.9C104.4 18.15 112.6 17.9 112.8 22.45C113 27 111.35 34.3 109.95 36.5C108.5 38.7 107.8 40.2 108.4 41.95C109 43.7 110.6 44.4 110.6 44.4L111.9 47.2C111.9 47.2 107.05 50.9 106.8 50.95C106.55 51.05 103.4 51.8 103.4 51.8Z" fill="url(#paint0_linear_351_5822)"/>
<path d="M100 19.75C100 19.75 100.15 23.85 103.45 25.6C106.75 27.35 106.7 27.35 106.7 27.35C106.7 27.35 108.1 26.6 108.55 27.35C109 28.1 108.85 30.15 108.25 30.35C107.65 30.55 107.65 30.55 107.65 30.55C107.65 30.55 104.95 35.5 106.85 38.55C108.8 41.6 109 42.15 109.25 43.05C109.45 44 111.9 45.55 111.9 45.55L122.7 45.4C122.7 45.4 115.45 38.8 115.8 35.1C116.15 31.4 116.95 22.05 114.75 20.15C112.55 18.25 109.15 17.25 106.3 17.05C103.45 16.85 101.6 16.5 100.4 17.35C99.2 18.2 97 20 96.55 21.65C96.1 23.3 96.45 25.05 96.45 25.05C96.45 25.05 98.3 20.35 100 19.75Z" fill="#07172E"/>
<path d="M121.65 126.3C121.65 126.3 124.25 128.15 124.3 130.35C124.35 132.55 124.45 130.95 124.45 130.95L126.55 132L128.95 129.8L129.25 127.6L124.9 124.05L121.65 126.3Z" fill="url(#paint1_linear_351_5822)"/>
<path d="M123.1 140.65C123.1 140.65 121.85 142.65 123.95 143.25C126.05 143.85 128.2 142.65 129.15 140.95C130.1 139.3 130.3 136.6 131.45 135C132.6 133.45 134.65 131.45 134.15 130.3C133.65 129.15 131.85 128 131.55 128.2C131.25 128.4 127.5 134.55 127.5 134.55L123.1 140.65Z" fill="#07172E"/>
<path d="M123.3 130.4C123.3 130.4 124.05 133.85 123.4 136.2C122.8 138.6 121.85 140.9 123.1 141.4C124.35 141.9 126.55 141.7 127.35 140.55C128.2 139.4 128.7 135.75 129.45 134.4C130.2 133.05 132.65 130.05 132.65 129.2C132.65 128.35 131.7 126.5 130.25 126.1C128.8 125.7 127.35 126.1 127.35 126.1C127.35 126.1 128.2 128.5 127.25 129.2C126.3 129.95 125.9 129.1 124.95 129.1C124 129.15 123.1 129 123.3 130.4Z" fill="#07172E"/>
<path d="M121.3 109.9C121.3 109.9 122.85 108.65 124.5 109.2C126.15 109.75 128.8 121.4 128.4 121.95C128 122.5 125.5 122.35 125.5 122.35L121.3 109.9Z" fill="#07172E"/>
<path d="M116.45 110.05C116.45 110.05 120.9 107.3 122.7 109.1C124.5 110.9 126.85 121.7 126.3 122.55C125.75 123.4 123.55 125.05 121.85 123.4C120.2 121.75 118.1 115.1 118.1 115.1L116.45 110.05Z" fill="#07172E"/>
<path d="M97.1498 79.8C97.1498 79.8 89.6498 95.75 88.9498 100.75C88.2498 105.75 89.4998 111.85 94.8998 113.65C100.3 115.45 104.45 116 104.45 116C104.45 116 117.6 126.8 120.95 127.9C120.95 127.9 125.65 126.35 126.2 124.3C126.2 124.3 119.7 111.15 117.75 109.2C115.8 107.25 113.75 107 113.75 107C113.75 107 118.6 98.7 120.25 93.4C121.9 88.15 122.35 82.15 120.55 79.25C118.75 76.35 115.55 72.2 115.55 72.2L102.65 74.95L97.1498 79.8Z" fill="#1B4180"/>
<path opacity="0.13" d="M103.25 85.9C103.25 85.9 101.05 100.6 100.75 105.45C100.45 110.3 100.45 112.1 102 113.2C103.5 114.3 104.5 115.95 104.5 115.95L98.1 114.55C98.1 114.55 96.45 111 96.6 107.4C96.75 103.8 102.15 86.6 102.15 86.6C102.15 86.6 103.25 84.8 103.25 85.9Z" fill="#030B17"/>
<path d="M99.2998 76.95C99.2998 76.95 107.6 76.9 111.85 76C116.1 75.1 117.1 75.1 117.8 74.35C118.5 73.6 118.7 71.1 118.7 71.1C118.7 71.1 119.75 72.35 121.45 71.85C123.2 71.35 128.1 66.6 128.85 64.55C129.6 62.55 124.15 52.4 123.45 50.4C122.75 48.4 118.4 43.45 117.05 42.9C115.75 42.35 112 41.85 112 41.85C112 41.85 110.75 39.4 110.4 39.15C110.05 38.85 100.75 41.3 100.75 41.3L99.7998 42.85C99.7998 42.85 95.7998 44.85 94.2498 46.4C92.6998 47.9 86.6998 55.35 85.2998 57.65C83.8998 59.95 80.9498 63.55 82.2998 66.6C83.6998 69.65 87.4498 71.75 87.4498 71.75L99.2998 76.95Z" fill="#E69716"/>
<path d="M115 55.8999C115 55.8999 116.6 60.1499 117.9 61.2499C117.9 61.2499 114.7 64.4999 114.55 66.2499C114.4 67.9999 114.55 69.8999 114.55 69.8999L114.4 71.9999L107.4 73.6499L100.95 73.2999L93.0498 66.6999C93.0498 66.6999 93.7998 60.5499 95.5498 55.9499C95.5498 55.9499 95.9498 55.5499 96.0498 55.9499C96.0998 56.3499 95.8498 60.3999 97.3498 61.0999C98.8998 61.7999 104.4 62.3999 107.6 62.1999C110.8 61.9999 113 59.5499 113.2 58.1999C113.45 56.7999 114.35 54.6999 115 55.8999Z" fill="#A76E10"/>
<path d="M109.2 72.05C109.2 72.05 111.3 63.3 107.95 62.9C104.6 62.5 87.5499 62.5 87.5499 62.5C87.5499 62.5 83.5499 63.2 84.3499 67.35C85.1499 71.5 87.7999 80.4 87.7999 80.4C87.7999 80.4 87.9499 81.65 89.8999 81.65C91.8499 81.65 107.5 81.8 107.5 81.8C107.5 81.8 109.3 81.1 110 80.25C110.7 79.4 114.45 72.9 114.45 72.9L109.2 72.05Z" fill="#A9B9D0"/>
<path d="M115.1 68.1499C115.1 68.1499 112.95 69.5999 112 70.3499C111.05 71.0999 109.85 71.8499 109.45 72.4999C109.05 73.0999 108.4 73.7499 109.5 74.3499C110.6 74.9499 110.9 75.2 112 74.7499C113.1 74.3499 114.9 73.6499 116.3 72.9499C117.7 72.2499 119.15 70.7499 119.15 70.7499C119.15 70.7499 119.65 68.7499 118.1 68.0999C116.55 67.5499 115.45 67.7999 115.1 68.1499Z" fill="url(#paint2_linear_351_5822)"/>
<path d="M139.5 69.2499C139.05 69.2499 138.8 67.7999 138.75 67.3999L136.9 51.9499C136.85 51.4999 137.2 51.0999 137.65 51.0499C138.1 50.9999 138.5 51.3499 138.55 51.7999L140 68.4499C140.05 68.8999 139.7 69.2999 139.25 69.3499L139.5 69.2499Z" fill="#F2C900"/>
<path d="M139.25 52.7499L139.45 68.9999C139.45 69.0999 139.45 69.1499 139.5 69.2499C140.3 70.9499 150.25 92.5999 150.45 92.5999C150.65 92.5499 148.15 72.5499 147.95 71.2499C147.95 71.1999 147.95 71.1499 147.9 71.0999L140.35 52.4999C140.1 51.8999 139.2 52.0999 139.25 52.7499Z" fill="#A9B9D0"/>
<path d="M140.85 52.45V69.1C140.85 69.2 140.85 69.25 140.9 69.35L151.1 90.75C151.3 91.15 151.85 91.2 152.1 90.8L155.8 85.05C155.9 84.9 155.9 84.7 155.85 84.5L142 52.25C141.75 51.65 140.85 51.85 140.85 52.45Z" fill="#D4DCE8"/>
<path d="M144.25 51L142.65 68.75C142.65 68.85 142.65 69 142.7 69.1L154.7 91.45C154.95 91.9 155.6 91.85 155.75 91.35L160.55 78C160.6 77.85 160.6 77.65 160.5 77.5L145.35 50.8C145.05 50.25 144.3 50.4 144.25 51Z" fill="white"/>
<path d="M148.35 49.9499L145.85 68.7499C145.85 68.8499 145.85 68.9499 145.9 69.0499L154.7 91.1499C154.9 91.6499 155.6 91.6499 155.8 91.1499L161.35 75.6999C161.4 75.5499 161.4 75.3999 161.35 75.2499L149.5 49.7999C149.2 49.2499 148.45 49.3999 148.35 49.9499Z" fill="#D4DCE8"/>
<path d="M147.2 67.9L150.6 49.9C150.7 49.35 151.5 49.25 151.7 49.8L162.45 75.3C162.5 75.4 162.5 75.55 162.5 75.7L159.05 88.45C158.9 88.95 158.2 89.05 158 88.55L147.3 68.35C147.2 68.15 147.15 68 147.2 67.9Z" fill="#A9B9D0"/>
<path d="M149.4 66.9499L153.65 49.75C153.8 49.2 154.55 49.15 154.75 49.65L164.05 72.9C164.35 73.65 164.4 74.4499 164.15 75.1999L159.35 91.6999L149.4 66.9499Z" fill="#F2C900"/>
<path d="M149.4 66.8999C149.4 66.8999 146.8 68.5499 143.85 69.1999C142.35 69.4999 139.4 69.0499 139.4 69.0499L149.4 93.7999V93.8499C149.4 93.8499 155.25 97.5499 159.4 91.6999L149.4 66.9499" fill="#E69716"/>
<path d="M95.1998 69.55C94.9498 69.95 94.6998 70.25 94.4498 70.65C94.1498 71.1 93.8998 71.65 93.8498 72.2C93.7498 73.3 94.5998 74.35 95.6498 74.6C96.6998 74.85 97.8998 74.4 98.3498 73.35C98.8498 72.25 98.6498 70.9 97.6498 70.2C97.2998 69.95 96.7998 69.85 96.3998 69.95C95.8998 70.05 95.5498 70.5 95.3998 70.95C95.2998 71.3 95.2498 71.7 95.2498 72.05C95.2498 72.45 95.2998 72.8 95.3998 73.15C95.5498 73.65 96.1498 74 96.6498 73.85C97.1998 73.7 97.4998 73.15 97.3498 72.6C97.2998 72.45 97.2998 72.35 97.2998 72.2C97.2998 72.3 97.2998 72.4 97.3498 72.45C97.2998 72.15 97.2998 71.9 97.3498 71.6C97.3498 71.7 97.3498 71.8 97.2998 71.85C97.2998 71.7 97.3498 71.55 97.3998 71.4C97.4498 71.3 97.3998 71.35 97.3998 71.4C97.3998 71.45 97.3498 71.55 97.2998 71.6C97.1498 71.7 97.0998 71.75 97.1998 71.7C96.9998 71.75 96.9998 71.8 97.0998 71.75C96.9998 71.75 96.8998 71.75 96.8498 71.8C96.8998 71.8 96.9498 71.8 96.9998 71.8C96.8998 71.8 96.7998 71.8 96.7498 71.75C96.8498 71.75 96.9498 71.85 96.7498 71.7C96.7998 71.7 96.8498 71.75 96.8498 71.75C96.6998 71.65 96.6998 71.6 96.7498 71.7L96.7998 71.75C96.8498 71.8 96.6498 71.5 96.7498 71.7C96.7498 71.75 96.7998 71.75 96.7998 71.8C96.8998 72 96.7498 71.6 96.7998 71.75C96.8498 71.85 96.8498 71.95 96.8498 72.05C96.8498 71.95 96.8498 71.85 96.7998 71.8C96.7998 71.95 96.7998 72.1 96.7998 72.25C96.7998 72.15 96.7998 72.05 96.8498 72C96.8498 72.05 96.8498 72.15 96.7998 72.2C96.7498 72.3 96.6498 72.5 96.7998 72.2C96.7498 72.25 96.7498 72.3 96.6998 72.35L96.6498 72.45C96.6498 72.45 96.8498 72.25 96.6998 72.35C96.6498 72.4 96.5998 72.45 96.5498 72.5C96.6998 72.3 96.6998 72.4 96.6498 72.45C96.5998 72.45 96.5998 72.5 96.5498 72.5C96.4998 72.5 96.3998 72.6 96.5498 72.5C96.6998 72.45 96.5998 72.5 96.5498 72.5C96.4998 72.5 96.3998 72.55 96.3498 72.55C96.4498 72.55 96.5498 72.55 96.5998 72.5C96.4998 72.5 96.3498 72.5 96.2498 72.5C96.3498 72.5 96.4498 72.5 96.4998 72.55C96.4498 72.55 96.3498 72.55 96.2998 72.5C96.2498 72.5 96.2498 72.5 96.1998 72.45C96.0998 72.4 96.0498 72.35 96.2998 72.5C96.2498 72.45 96.1998 72.45 96.1498 72.4L96.0498 72.35C96.0498 72.35 96.2498 72.55 96.1498 72.4C96.0998 72.35 96.0498 72.3 95.9998 72.25C95.8998 72.15 96.0998 72.4 96.0498 72.35C96.0498 72.3 95.9998 72.3 95.9998 72.25C95.9998 72.2 95.9498 72.2 95.9498 72.15C95.8998 72.1 96.0498 72.4 95.9998 72.25C95.9998 72.2 95.9498 72.1 95.9498 72.05C95.9498 72.15 95.9498 72.25 95.9998 72.3C95.9998 72.2 95.9998 72.05 95.9998 71.95C95.9998 72.05 95.9998 72.15 95.9498 72.2C95.9498 72.1 95.9998 72 95.9998 71.9C95.9998 71.85 96.0498 71.8 96.0498 71.75C95.9498 72.05 95.9998 71.9 96.0498 71.8C96.1498 71.6 96.2498 71.45 96.3498 71.3C96.5998 70.95 96.8498 70.65 97.0498 70.3C97.2998 69.85 97.1498 69.2 96.6998 68.95C96.0998 68.9 95.4998 69.05 95.1998 69.55Z" fill="white"/>
<path d="M122.7 124C122.65 124 122.6 123.95 122.55 123.9C122.2 123.4 121.8 122.85 121.35 122.35C121.3 122.25 121.3 122.15 121.4 122.1C121.5 122.05 121.6 122.05 121.65 122.15C122.1 122.7 122.5 123.25 122.85 123.75C122.9 123.85 122.9 123.95 122.8 124C122.75 124 122.7 124 122.7 124ZM120.25 120.9C120.2 120.9 120.15 120.9 120.1 120.85C119.7 120.35 119.25 119.85 118.8 119.35C118.75 119.25 118.75 119.15 118.8 119.1C118.9 119.05 119 119.05 119.05 119.1C119.5 119.6 119.95 120.1 120.35 120.6C120.4 120.7 120.4 120.8 120.35 120.85C120.35 120.85 120.3 120.9 120.25 120.9ZM117.6 117.9C117.55 117.9 117.5 117.9 117.45 117.85C117 117.35 116.55 116.9 116.1 116.4C116.05 116.35 116.05 116.2 116.1 116.15C116.2 116.1 116.3 116.1 116.35 116.15C116.8 116.6 117.25 117.1 117.7 117.6C117.75 117.7 117.75 117.8 117.7 117.85C117.7 117.9 117.65 117.9 117.6 117.9ZM114.9 115.05C114.85 115.05 114.8 115.05 114.75 115C114.25 114.5 113.8 114.05 113.35 113.6C113.3 113.55 113.25 113.4 113.35 113.35C113.4 113.3 113.55 113.25 113.6 113.35C114.05 113.8 114.55 114.25 115 114.75C115.05 114.8 115.05 114.95 115 115C115 115.05 114.95 115.05 114.9 115.05ZM112.05 112.3C112 112.3 111.95 112.3 111.9 112.25C111.35 111.75 110.85 111.3 110.45 110.9C110.35 110.85 110.35 110.7 110.45 110.65C110.5 110.55 110.65 110.55 110.7 110.65C111.1 111 111.6 111.45 112.15 112C112.25 112.05 112.25 112.2 112.15 112.25C112.15 112.3 112.1 112.3 112.05 112.3ZM109.05 109.7C109 109.7 108.95 109.65 108.9 109.6C108.8 109.45 108.75 109.25 108.75 108.9C108.75 108.55 108.8 108.1 108.95 107.5C108.95 107.4 109.05 107.35 109.15 107.35C109.25 107.35 109.3 107.45 109.3 107.55C109.2 108.1 109.1 108.55 109.1 108.9C109.1 109.2 109.15 109.35 109.2 109.35C109.25 109.45 109.25 109.55 109.15 109.6C109.1 109.7 109.1 109.7 109.05 109.7ZM109.6 105.85H109.55C109.45 105.8 109.4 105.7 109.4 105.6C109.55 105.05 109.75 104.4 110 103.7C110.05 103.6 110.15 103.55 110.25 103.6C110.35 103.65 110.4 103.75 110.35 103.85C110.1 104.55 109.9 105.15 109.75 105.75C109.75 105.8 109.7 105.85 109.6 105.85ZM110.85 102.1H110.8C110.7 102.05 110.65 101.95 110.7 101.85C110.9 101.25 111.15 100.65 111.4 99.9999C111.45 99.8999 111.55 99.8499 111.65 99.8999C111.75 99.9499 111.8 100.05 111.75 100.15C111.5 100.8 111.3 101.4 111.05 102C111 102.05 110.95 102.1 110.85 102.1ZM112.3 98.3999H112.25C112.15 98.3499 112.1 98.2499 112.15 98.1499C112.4 97.5499 112.65 96.9499 112.9 96.2999C112.95 96.1999 113.05 96.1499 113.15 96.1999C113.25 96.2499 113.3 96.3499 113.25 96.4499C113 97.0499 112.75 97.6999 112.5 98.2999C112.45 98.3499 112.35 98.3999 112.3 98.3999ZM113.8 94.7499H113.75C113.65 94.6999 113.6 94.5999 113.65 94.4999C113.9 93.8999 114.15 93.2999 114.45 92.6999C114.5 92.5999 114.6 92.5499 114.7 92.5999C114.8 92.6499 114.85 92.7499 114.8 92.8499C114.55 93.4499 114.25 94.0499 114 94.6499C113.95 94.6999 113.85 94.7499 113.8 94.7499ZM115.4 91.1499C115.35 91.1499 115.35 91.1499 115.3 91.1499C115.2 91.0999 115.15 90.9999 115.2 90.8999C115.35 90.5999 115.45 90.2999 115.6 89.9999C115.75 89.6999 115.85 89.3999 116 89.0999C116.05 88.9999 116.15 88.9499 116.25 88.9999C116.35 89.0499 116.4 89.1499 116.35 89.2499C116.25 89.5499 116.1 89.8999 115.95 90.1999C115.8 90.4999 115.7 90.7999 115.55 91.0999C115.55 91.0999 115.45 91.1499 115.4 91.1499ZM116.75 87.4499C116.6 87.3999 116.55 87.2999 116.55 87.1999C116.7 86.5499 116.8 85.9499 116.9 85.2999C116.9 85.1999 117 85.0999 117.1 85.1499C117.2 85.1499 117.3 85.2499 117.25 85.3499C117.2 85.9999 117.05 86.6999 116.9 87.2999C116.95 87.3499 116.85 87.4499 116.75 87.4499ZM117.2 83.4999C117.1 83.4999 117 83.3999 117 83.2999C117 82.6499 116.95 81.9999 116.85 81.3499C116.85 81.2499 116.9 81.1499 117 81.1499C117.1 81.1499 117.2 81.1999 117.2 81.2999C117.3 81.9499 117.35 82.6499 117.35 83.2999C117.4 83.3999 117.3 83.4999 117.2 83.4999ZM116.65 79.5999C116.55 79.5999 116.5 79.5499 116.45 79.4499C116.3 78.7999 116.1 78.1999 115.85 77.5999C115.8 77.4999 115.85 77.3999 115.95 77.3499C116.05 77.2999 116.15 77.3499 116.2 77.4499C116.45 78.0499 116.65 78.6999 116.8 79.3499C116.85 79.4499 116.8 79.5499 116.65 79.5999C116.7 79.5999 116.65 79.5999 116.65 79.5999Z" fill="white"/>
<path d="M120.45 127.85C120.45 127.85 122.45 127.4 124.2 126.05C125.9 124.7 126.1 123.5 126.55 123.75C127 124 127.6 124.65 126.85 125.5C126.1 126.35 123.65 128.05 122.3 128.4C120.9 128.75 120.6 128.6 120.45 127.85Z" fill="#07172E"/>
</svg>
