<svg width="197" height="197" viewBox="0 0 197 197" fill="none" xmlns="http://www.w3.org/2000/svg">
<defs>
<linearGradient id="paint0_linear" x1="154.144" y1="170.028" x2="170.92" y2="173.474" gradientUnits="userSpaceOnUse">
<stop stop-color="#F8E3BF"/>
<stop offset="1" stop-color="#E69716"/>
</linearGradient>
<linearGradient id="paint1_linear" x1="142.043" y1="161.842" x2="153.196" y2="172.724" gradientUnits="userSpaceOnUse">
<stop stop-color="#F8E3BF"/>
<stop offset="1" stop-color="#E69716"/>
</linearGradient>
<linearGradient id="paint2_linear" x1="103.902" y1="72.3409" x2="98.4199" y2="114.03" gradientUnits="userSpaceOnUse">
<stop stop-color="#F8E3BF"/>
<stop offset="1" stop-color="#E69716"/>
</linearGradient>
<linearGradient id="paint3_linear" x1="99.7019" y1="88.7234" x2="101.697" y2="129.711" gradientUnits="userSpaceOnUse">
<stop stop-color="#F8E3BF"/>
<stop offset="1" stop-color="#E69716"/>
</linearGradient>
<linearGradient id="paint4_linear" x1="107.566" y1="88.3406" x2="109.561" y2="129.329" gradientUnits="userSpaceOnUse">
<stop stop-color="#F8E3BF"/>
<stop offset="1" stop-color="#E69716"/>
</linearGradient>
<linearGradient id="paint5_linear" x1="57.2343" y1="124.708" x2="96.2877" y2="150.945" gradientUnits="userSpaceOnUse">
<stop stop-color="#F8E3BF"/>
<stop offset="1" stop-color="#E69716"/>
</linearGradient>
</defs>
<path d="M53.2558 172.621C27.5582 170.006 23.5197 161.327 15.2348 133.473C6.94981 105.619 66.805 98.8393 76.9724 67.976C87.1398 37.1126 112.733 13.7681 149.999 34.8471C187.265 55.9261 185.383 85.6676 168.818 119.169C152.254 152.67 158.656 173.754 131.93 174.504C105.204 175.253 75.4675 174.876 53.2558 172.621Z" fill="#EAEEF3"/>
<path d="M72.6218 114.9L71.6038 115.933L78.6803 122.909L79.6983 121.876L72.6218 114.9Z" fill="#5373A1"/>
<path d="M72.6242 107.446L71.6062 108.479L78.6827 115.455L79.7007 114.422L72.6242 107.446Z" fill="#5373A1"/>
<path d="M72.6232 99.9873L71.6052 101.02L78.6817 107.996L79.6997 106.963L72.6232 99.9873Z" fill="#5373A1"/>
<path d="M72.6257 92.5352L71.6077 93.5679L78.6842 100.544L79.7022 99.5114L72.6257 92.5352Z" fill="#5373A1"/>
<path d="M72.6244 85.0775L71.6064 86.1101L78.683 93.0863L79.701 92.0536L72.6244 85.0775Z" fill="#5373A1"/>
<path d="M72.6271 77.6225L71.6091 78.6552L78.6857 85.6313L79.7037 84.5987L72.6271 77.6225Z" fill="#5373A1"/>
<path d="M72.6257 70.1652L71.6077 71.1979L78.6842 78.174L79.7022 77.1414L72.6257 70.1652Z" fill="#5373A1"/>
<path d="M72.6244 62.708L71.6064 63.7406L78.683 70.7168L79.701 69.6841L72.6244 62.708Z" fill="#5373A1"/>
<path d="M72.6269 55.2532L71.6089 56.2859L78.6854 63.2621L79.7034 62.2294L72.6269 55.2532Z" fill="#5373A1"/>
<path d="M72.6259 47.7963L71.6079 48.829L78.6844 55.8051L79.7024 54.7725L72.6259 47.7963Z" fill="#5373A1"/>
<path d="M72.6286 40.3425L71.6106 41.3751L78.6871 48.3513L79.7051 47.3186L72.6286 40.3425Z" fill="#5373A1"/>
<path d="M79.1942 114.216H72.1187V115.666H79.1942V114.216Z" fill="#5373A1"/>
<path d="M79.1942 106.763H72.1187V108.213H79.1942V106.763Z" fill="#5373A1"/>
<path d="M79.1942 99.3044H72.1187V100.755H79.1942V99.3044Z" fill="#5373A1"/>
<path d="M79.1942 91.8458H72.1187V93.296H79.1942V91.8458Z" fill="#5373A1"/>
<path d="M79.1942 84.3926H72.1187V85.8427H79.1942V84.3926Z" fill="#5373A1"/>
<path d="M79.1942 76.934H72.1187V78.3841H79.1942V76.934Z" fill="#5373A1"/>
<path d="M79.1942 69.4808H72.1187V70.931H79.1942V69.4808Z" fill="#5373A1"/>
<path d="M79.1942 62.0222H72.1187V63.4724H79.1942V62.0222Z" fill="#5373A1"/>
<path d="M79.1942 54.5635H72.1187V56.0136H79.1942V54.5635Z" fill="#5373A1"/>
<path d="M79.1942 47.1104H72.1187V48.5605H79.1942V47.1104Z" fill="#5373A1"/>
<path d="M79.9221 42.0486H78.4719V124.416H79.9221V42.0486Z" fill="#133F7E"/>
<path d="M72.8464 42.0486H71.3962V124.416H72.8464V42.0486Z" fill="#133F7E"/>
<path d="M68.7497 137.044L82.8462 137.044L82.8462 122.401L68.7497 122.401L68.7497 137.044Z" fill="#133F7E"/>
<path d="M72.1021 42.0485H79.4677C80.7701 42.0485 81.8207 40.9924 81.8207 39.6955V30.4529C81.8207 29.1505 80.7646 28.0999 79.4677 28.0999H72.1021C70.7997 28.0999 69.749 29.156 69.749 30.4529V39.6955C69.749 40.9979 70.7997 42.0485 72.1021 42.0485Z" fill="#133F7E"/>
<path d="M75.9819 37.9882H80.7264V31.4653H75.9819C74.9969 31.4653 74.198 32.2643 74.198 33.2493V36.2097C74.198 37.1893 74.9969 37.9882 75.9819 37.9882Z" fill="#0A2245"/>
<path d="M125.343 42.6156L119.681 59.0654L120.798 59.4502L126.461 43.0003L125.343 42.6156Z" fill="#0A2245"/>
<path d="M130.308 40.5084L129.358 41.2117L140.399 56.1254L141.349 55.4221L130.308 40.5084Z" fill="#0A2245"/>
<path d="M126.534 48.1719L115.125 63.0892C113.872 64.7309 114.184 67.0785 115.825 68.3371L130.743 79.7467C132.384 80.9998 134.732 80.6879 135.99 79.0462L147.4 64.1289C148.653 62.4873 148.341 60.1397 146.7 58.8811L131.782 47.4715C130.141 46.2184 127.793 46.5303 126.534 48.1719Z" fill="#F8E3BF"/>
<path d="M132.696 77.7493C131.963 77.7493 131.251 77.5085 130.66 77.0544L118.452 67.7187C116.98 66.5915 116.695 64.4737 117.822 63.0017L127.158 50.7932C127.705 50.0763 128.499 49.6221 129.385 49.5017C130.272 49.3813 131.164 49.6166 131.875 50.1639L144.084 59.4995C145.556 60.6267 145.84 62.7445 144.713 64.2165L135.377 76.4251C134.83 77.1419 134.037 77.5961 133.15 77.7165C132.991 77.7384 132.844 77.7493 132.696 77.7493ZM127.393 50.9792L127.634 51.1653L118.298 63.3738C117.374 64.5832 117.609 66.3124 118.813 67.2372L131.021 76.5728C131.607 77.0215 132.329 77.213 133.063 77.1145C133.79 77.016 134.442 76.6439 134.89 76.0584L144.226 63.8499C145.151 62.6405 144.915 60.9113 143.711 59.9865L131.503 50.6509C130.917 50.2022 130.195 50.0106 129.462 50.1091C128.734 50.2076 128.083 50.5798 127.634 51.1653L127.393 50.9792Z" fill="#0A2245"/>
<path d="M133.659 68.731C133.955 70.9473 130.595 71.396 130.299 69.1798C129.998 66.9416 133.358 66.4929 133.659 68.731ZM131.81 56.4076C132.231 59.5596 132.576 62.6021 132.997 65.7377L130.168 66.1153L128.849 56.8071L131.81 56.4076Z" fill="#0A2245"/>
<path d="M127.508 44.1991C130.123 44.1991 132.242 42.0799 132.242 39.4657C132.242 36.8514 130.123 34.7322 127.508 34.7322C124.894 34.7322 122.775 36.8514 122.775 39.4657C122.775 42.0799 124.894 44.1991 127.508 44.1991Z" fill="#0A2245"/>
<path d="M124.165 39.4657C124.165 41.3153 125.664 42.8147 127.514 42.8147C129.363 42.8147 130.863 41.3153 130.863 39.4657C130.863 37.6161 129.363 36.1167 127.514 36.1167C125.664 36.1167 124.165 37.6161 124.165 39.4657Z" fill="#5373A1"/>
<path d="M109.675 18.0692H108.224V28.0998H109.675V18.0692Z" fill="#5373A1"/>
<path d="M118.671 18.0692H117.221V28.0998H118.671V18.0692Z" fill="#5373A1"/>
<path d="M100.705 18.0692H99.2554V28.0998H100.705V18.0692Z" fill="#5373A1"/>
<path d="M90.7404 18.0692H89.2903V28.0998H90.7404V18.0692Z" fill="#5373A1"/>
<path d="M81.4487 18.0692H79.9985V28.0998H81.4487V18.0692Z" fill="#5373A1"/>
<path d="M71.8122 18.0692H70.3621V28.0998H71.8122V18.0692Z" fill="#5373A1"/>
<path d="M62.3452 18.0692H60.895V28.0998H62.3452V18.0692Z" fill="#5373A1"/>
<path d="M109.481 17.5656L108.427 18.5608L117.894 28.5956L118.949 27.6004L109.481 17.5656Z" fill="#5373A1"/>
<path d="M100.011 17.5745L98.9563 18.5696L108.423 28.6044L109.478 27.6093L100.011 17.5745Z" fill="#5373A1"/>
<path d="M90.5473 17.5676L89.4924 18.5629L98.9603 28.5977L100.015 27.6025L90.5473 17.5676Z" fill="#5373A1"/>
<path d="M81.08 17.5684L80.0251 18.5636L89.493 28.5984L90.5478 27.6032L81.08 17.5684Z" fill="#5373A1"/>
<path d="M71.6168 17.5656L70.562 18.5608L80.0298 28.5956L81.0847 27.6004L71.6168 17.5656Z" fill="#5373A1"/>
<path d="M62.1498 17.5667L61.095 18.5619L70.5628 28.5967L71.6176 27.6015L62.1498 17.5667Z" fill="#5373A1"/>
<path d="M127.508 28.8276H50.3337C50.0382 28.8276 49.77 28.6471 49.6606 28.3735C49.5511 28.0998 49.6168 27.7879 49.8302 27.58L60.222 17.5494C60.3588 17.4181 60.5393 17.3469 60.7254 17.3469H119.53C119.749 17.3469 119.962 17.4454 120.099 17.6205L128.083 27.6511C128.258 27.87 128.291 28.1655 128.171 28.4172C128.045 28.669 127.787 28.8276 127.508 28.8276ZM52.1231 27.3775H126.004L119.174 18.7916H61.0154L52.1231 27.3775Z" fill="#133F7E"/>
<path d="M127.508 40.188C127.109 40.188 126.786 39.8652 126.786 39.4657V28.0999C126.786 27.7004 127.109 27.3776 127.508 27.3776C127.908 27.3776 128.231 27.7004 128.231 28.0999V39.4602C128.236 39.8652 127.913 40.188 127.508 40.188Z" fill="#133F7E"/>
<path d="M46.5633 159.34C44.2704 156.735 44.2376 152.746 45.4415 149.485C46.6454 146.229 48.8781 143.482 50.859 140.625C52.8345 137.769 54.6294 134.589 54.7443 131.12C54.9522 124.684 49.5074 119.59 47.2638 113.554C46.6946 112.022 46.3444 110.44 46.1803 108.831C44.8122 95.1454 52.2599 79.8779 65.4808 75.221C67.1553 74.4768 69.3934 75.5932 69.3934 77.2677C69.5795 80.9942 66.0389 83.9711 66.0389 87.8838C66.0389 88.2559 66.225 89.0001 66.4111 89.1862C73.1145 92.9127 74.4169 99.6162 67.5274 104.082C66.9692 104.64 66.7832 105.384 66.3946 106.073C65.9295 107.261 65.8748 108.53 66.0773 109.789C66.2797 111.048 66.7339 112.295 67.2976 113.439C68.4194 115.726 69.9461 117.828 70.7724 120.236C73.0379 126.819 69.6397 133.971 65.5957 139.64C61.5572 145.309 56.6267 150.765 55.3079 157.6C54.8866 159.789 54.8428 162.104 53.8523 164.101C52.8673 166.098 50.4759 167.68 48.4293 166.799C48.2925 166.197 48.1557 165.595 48.0244 164.998" fill="#133F7E"/>
<path d="M52.2817 138.962L52.1011 138.743C61.4148 131.016 58.6459 119.448 55.9645 108.257C55.7346 107.31 55.5048 106.325 55.2804 105.368C53.7975 98.976 55.8112 93.4382 57.7648 89.9195C59.8771 86.1108 62.3779 83.7797 62.3998 83.7523L62.5968 83.9603C62.5694 83.9821 60.1015 86.2914 58.0111 90.0618C56.0849 93.5367 54.0984 98.9979 55.565 105.302C55.7894 106.265 56.0247 107.245 56.249 108.191C57.5952 113.806 58.9851 119.606 58.8374 124.892C58.6677 130.841 56.5281 135.443 52.2817 138.962Z" fill="#0A2245"/>
<path d="M62.5095 83.9822C62.588 83.9822 62.6517 83.9185 62.6517 83.8399C62.6517 83.7613 62.588 83.6976 62.5095 83.6976C62.4309 83.6976 62.3672 83.7613 62.3672 83.8399C62.3672 83.9185 62.4309 83.9822 62.5095 83.9822Z" fill="#0A2245"/>
<path d="M27.4269 120.351C23.9904 116.46 21.7085 111.195 22.6223 106.084C23.5362 100.973 28.3518 96.4697 33.5121 97.0771C30.6501 92.6009 27.6951 87.8619 27.4215 82.5539C27.1479 77.2458 30.661 71.3522 35.9636 70.9965C38.2127 70.8488 40.3852 71.883 41.9283 73.5138C43.4989 75.2266 44.4346 77.4592 44.2486 79.6919C43.1322 78.2035 44.6207 76.3374 46.1091 75.9653C47.0394 75.7793 47.9697 75.9653 48.7139 76.5235C50.2023 77.8259 51.1326 79.6919 50.7605 81.5525C49.6442 86.0233 46.4757 90.1165 48.7139 94.7733C52.2544 101.849 55.4174 108.738 57.0153 116.421C57.3272 117.669 57.6227 118.922 57.8744 120.186C58.1316 121.45 58.3505 122.72 58.5365 123.99C59.029 127.393 59.237 130.989 57.8908 134.151C56.2874 137.916 52.6484 140.647 51.5157 144.576C49.7153 150.814 54.7881 157.983 51.7564 163.723C49.5566 167.882 43.6521 168.637 39.7996 166.498C34.3001 163.45 34.1632 156.232 35.5696 150.825C36.8939 145.72 39.8161 141.326 39.0062 135.755C38.7271 133.823 38.0376 132.143 37.0909 130.627C34.6503 126.709 30.5187 123.853 27.4269 120.351Z" fill="#5373A1"/>
<path d="M26.1028 158.404H64.5068L54.1862 178.969H35.1976L26.1028 158.404Z" fill="#0A2245"/>
<path d="M45.1789 157.354C45.1406 157.272 44.2158 155.28 44.0298 151.4C43.8601 147.832 44.3143 141.927 47.4663 134.08C51.7675 123.366 46.1037 112.657 41.9722 104.831C40.2868 101.641 38.8312 98.8884 38.3989 96.7926C36.9159 89.624 41.1404 80.9341 41.1404 80.9341L41.3976 81.0599C41.3976 81.0599 37.2169 89.6678 38.6779 96.7324C39.1048 98.7899 40.5494 101.526 42.2239 104.694C46.3828 112.564 52.0849 123.344 47.729 134.184C44.5989 141.971 44.1447 147.827 44.3089 151.362C44.4894 155.192 45.4197 157.206 45.4307 157.228L45.1789 157.354Z" fill="#3E6295"/>
<path d="M45.3102 157.447C45.3888 157.447 45.4525 157.383 45.4525 157.304C45.4525 157.226 45.3888 157.162 45.3102 157.162C45.2317 157.162 45.168 157.226 45.168 157.304C45.168 157.383 45.2317 157.447 45.3102 157.447Z" fill="#3E6295"/>
<path d="M47.7399 134.151L47.4554 134.119C48.4732 125.396 43.2855 118.922 38.76 115.021C33.835 110.785 28.6036 108.591 28.5488 108.569L28.6583 108.306C28.713 108.328 33.9827 110.539 38.9406 114.802C41.8573 117.308 44.0954 120.028 45.5948 122.879C47.4772 126.447 48.1996 130.239 47.7399 134.151Z" fill="#3E6295"/>
<path d="M40.5328 102.073C38.7325 96.0866 40.3905 91.4188 42.0979 88.5569C43.942 85.4596 46.2513 83.7468 46.2732 83.7303L46.4428 83.9602C46.4209 83.9766 44.1554 85.6566 42.3387 88.7101C40.6642 91.5228 39.0444 96.103 40.8119 101.986L40.5328 102.073Z" fill="#3E6295"/>
<path d="M46.7274 136.866L46.4429 136.844C47.0011 128.635 43.7451 124.351 40.9105 122.2C37.8351 119.869 34.5846 119.469 34.5518 119.464L34.5846 119.179C34.6174 119.185 37.9391 119.59 41.0746 121.965C42.9188 123.36 44.3416 125.155 45.2992 127.295C46.4976 129.965 46.9792 133.188 46.7274 136.866Z" fill="#3E6295"/>
<path d="M56.5665 109.559L56.282 109.532C56.9332 102.101 59.6255 98.6148 61.7706 97.0005C64.1073 95.2384 66.2633 95.2494 66.3509 95.2494L66.3454 95.5339C66.329 95.5339 64.1839 95.523 61.9238 97.2358C59.8335 98.8282 57.2068 102.248 56.5665 109.559Z" fill="#0A2245"/>
<path d="M66.3508 95.5394C66.4293 95.5394 66.493 95.4757 66.493 95.3972C66.493 95.3186 66.4293 95.2549 66.3508 95.2549C66.2722 95.2549 66.2085 95.3186 66.2085 95.3972C66.2085 95.4757 66.2722 95.5394 66.3508 95.5394Z" fill="#0A2245"/>
<path d="M41.2663 81.1366C41.3449 81.1366 41.4086 81.0729 41.4086 80.9943C41.4086 80.9157 41.3449 80.8521 41.2663 80.8521C41.1877 80.8521 41.124 80.9157 41.124 80.9943C41.124 81.0729 41.1877 81.1366 41.2663 81.1366Z" fill="#3E6295"/>
<path d="M46.3718 83.9822C46.4503 83.9822 46.514 83.9185 46.514 83.8399C46.514 83.7613 46.4503 83.6976 46.3718 83.6976C46.2932 83.6976 46.2295 83.7613 46.2295 83.8399C46.2295 83.9185 46.2932 83.9822 46.3718 83.9822Z" fill="#3E6295"/>
<path d="M28.5981 108.569C28.6767 108.569 28.7404 108.505 28.7404 108.427C28.7404 108.348 28.6767 108.284 28.5981 108.284C28.5195 108.284 28.4558 108.348 28.4558 108.427C28.4558 108.505 28.5195 108.569 28.5981 108.569Z" fill="#3E6295"/>
<path d="M34.5463 119.464C34.6249 119.464 34.6886 119.4 34.6886 119.322C34.6886 119.243 34.6249 119.179 34.5463 119.179C34.4678 119.179 34.4041 119.243 34.4041 119.322C34.4041 119.4 34.4678 119.464 34.5463 119.464Z" fill="#3E6295"/>
<path d="M159.329 166.744L171.828 168.014V176.594L158.908 176.654L159.329 166.744Z" fill="url(#paint0_linear)"/>
<path d="M170.361 173.026C170.471 171.007 169.469 166.607 169.469 166.607C169.469 166.607 176.304 159.061 177.907 158.88C179.511 158.7 182.542 159.296 182.542 159.296L177.311 178.017L168.517 177.782C168.523 177.782 170.186 176.293 170.361 173.026Z" fill="#0A2245"/>
<path d="M78.926 176.353L160.539 177.442V165.288L99.2389 159.668L78.926 176.353Z" fill="#0A2245"/>
<path d="M158.027 171.751H158.021L156.391 171.691C156.281 171.686 156.194 171.598 156.199 171.489C156.205 171.379 156.298 171.291 156.402 171.297L158.032 171.357C158.142 171.363 158.229 171.45 158.224 171.56C158.218 171.664 158.131 171.751 158.027 171.751ZM154.766 171.631H154.76L153.129 171.571C153.02 171.565 152.932 171.478 152.938 171.368C152.943 171.259 153.047 171.171 153.14 171.177L154.771 171.237C154.88 171.242 154.968 171.33 154.962 171.439C154.957 171.549 154.869 171.631 154.766 171.631ZM151.504 171.516H151.499L149.868 171.456C149.758 171.45 149.671 171.363 149.676 171.253C149.682 171.144 149.769 171.062 149.879 171.062L151.51 171.122C151.619 171.127 151.707 171.215 151.701 171.324C151.701 171.434 151.613 171.516 151.504 171.516ZM148.248 171.401H148.243L146.612 171.341C146.502 171.335 146.415 171.248 146.42 171.138C146.426 171.029 146.524 170.947 146.623 170.947L148.254 171.007C148.363 171.012 148.451 171.1 148.445 171.209C148.44 171.313 148.352 171.401 148.248 171.401ZM144.987 171.281H144.981L143.35 171.22C143.241 171.215 143.153 171.127 143.159 171.018C143.164 170.908 143.246 170.826 143.361 170.826L144.992 170.887C145.102 170.892 145.189 170.98 145.184 171.089C145.178 171.198 145.091 171.281 144.987 171.281ZM141.725 171.166H141.72L140.089 171.105C139.98 171.1 139.892 171.012 139.897 170.903C139.903 170.794 140.001 170.711 140.1 170.711L141.731 170.772C141.84 170.777 141.928 170.865 141.922 170.974C141.922 171.084 141.835 171.166 141.725 171.166ZM138.464 171.051H138.458L136.828 170.991C136.718 170.985 136.631 170.898 136.636 170.788C136.642 170.679 136.718 170.591 136.839 170.597L138.469 170.657C138.579 170.662 138.666 170.75 138.661 170.859C138.661 170.963 138.573 171.051 138.464 171.051ZM135.208 170.93H135.202L133.572 170.87C133.462 170.865 133.375 170.777 133.38 170.668C133.386 170.558 133.479 170.471 133.583 170.476L135.213 170.536C135.323 170.542 135.41 170.629 135.405 170.739C135.399 170.848 135.312 170.93 135.208 170.93ZM131.946 170.815H131.941L130.31 170.755C130.201 170.75 130.113 170.662 130.119 170.553C130.124 170.443 130.234 170.356 130.321 170.361L131.952 170.421C132.061 170.427 132.149 170.514 132.143 170.624C132.143 170.733 132.056 170.815 131.946 170.815ZM128.685 170.7H128.679L127.049 170.64C126.939 170.635 126.852 170.547 126.857 170.438C126.863 170.328 126.95 170.241 127.06 170.246L128.69 170.306C128.8 170.312 128.887 170.4 128.882 170.509C128.882 170.613 128.794 170.7 128.685 170.7ZM125.429 170.58H125.423L123.793 170.52C123.683 170.514 123.596 170.427 123.601 170.317C123.607 170.208 123.711 170.12 123.804 170.126L125.434 170.186C125.544 170.192 125.631 170.279 125.626 170.389C125.62 170.498 125.533 170.58 125.429 170.58ZM122.167 170.465H122.162L120.531 170.405C120.422 170.4 120.334 170.312 120.34 170.203C120.345 170.093 120.427 170.011 120.542 170.011L122.173 170.071C122.282 170.077 122.37 170.164 122.364 170.274C122.364 170.383 122.271 170.465 122.167 170.465ZM118.906 170.35H118.901L117.27 170.29C117.16 170.285 117.073 170.197 117.078 170.088C117.084 169.978 117.182 169.896 117.281 169.896L118.912 169.956C119.021 169.962 119.109 170.049 119.103 170.159C119.103 170.263 119.015 170.35 118.906 170.35ZM115.65 170.23H115.645L114.014 170.17C113.904 170.164 113.817 170.077 113.822 169.967C113.828 169.858 113.904 169.776 114.025 169.776L115.656 169.836C115.765 169.841 115.853 169.929 115.847 170.038C115.842 170.148 115.754 170.23 115.65 170.23ZM112.389 170.115H112.383L110.752 170.055C110.643 170.049 110.555 169.962 110.561 169.852C110.566 169.743 110.659 169.661 110.763 169.661L112.394 169.721C112.504 169.726 112.591 169.814 112.586 169.923C112.58 170.033 112.493 170.115 112.389 170.115ZM109.127 170H109.122L107.491 169.94C107.382 169.934 107.294 169.847 107.299 169.737C107.305 169.628 107.414 169.54 107.502 169.546L109.133 169.606C109.242 169.612 109.33 169.699 109.324 169.809C109.324 169.918 109.237 170 109.127 170ZM105.871 169.885H105.866L104.235 169.825C104.126 169.819 104.038 169.732 104.043 169.622C104.049 169.513 104.137 169.425 104.246 169.431L105.877 169.491C105.986 169.497 106.074 169.584 106.068 169.694C106.063 169.798 105.975 169.885 105.871 169.885ZM102.61 169.765H102.604L100.974 169.705C100.864 169.699 100.777 169.612 100.782 169.502C100.788 169.393 100.891 169.305 100.985 169.311L102.615 169.371C102.725 169.376 102.812 169.464 102.807 169.573C102.801 169.683 102.714 169.765 102.61 169.765ZM99.3483 169.65H99.3428L97.7121 169.59C97.6027 169.584 97.5151 169.497 97.5206 169.387C97.5261 169.278 97.6081 169.19 97.7231 169.196L99.3538 169.256C99.4632 169.261 99.5508 169.349 99.5453 169.458C99.5453 169.568 99.4578 169.65 99.3483 169.65ZM96.0869 169.535H96.0814L94.4507 169.475C94.3412 169.469 94.2537 169.382 94.2591 169.272C94.2646 169.163 94.3631 169.075 94.4616 169.081L96.0923 169.141C96.2018 169.146 96.2893 169.234 96.2839 169.343C96.2839 169.447 96.1963 169.535 96.0869 169.535ZM92.8309 169.415H92.8254L91.1947 169.354C91.0853 169.349 90.9977 169.261 91.0032 169.152C91.0086 169.042 91.0907 168.96 91.2056 168.96L92.8364 169.021C92.9458 169.026 93.0334 169.114 93.0279 169.223C93.0224 169.332 92.9349 169.415 92.8309 169.415Z" fill="#A9B9D0"/>
<path d="M157.731 176.714C157.731 176.714 158.229 172.725 158.684 170.865C159.138 169.004 157.053 163.882 158.684 164.063C160.314 164.243 161.316 164.287 162.355 164.971C163.401 165.65 163.444 166.284 163.127 167.964C162.81 169.644 162.766 174.312 163.264 175.445C163.762 176.578 162.405 177.076 162.268 177.076C162.131 177.076 157.731 176.714 157.731 176.714Z" fill="#3E6295"/>
<path d="M141.621 168.676L146.218 171.757C146.218 171.757 152.385 173.628 154.683 171.395C156.982 169.157 156.982 169.157 156.982 169.157L149.244 162.388L141.621 168.676Z" fill="url(#paint1_linear)"/>
<path d="M40.4179 160.457L39.0881 166.864C39.0881 166.864 42.3551 178.953 60.7308 179.56C79.1065 180.162 85.2737 178.11 94.5874 169.404C103.896 160.697 115.628 151.148 115.628 151.148L140.171 172.55L150.448 162.394C150.448 162.394 130.617 140.51 126.025 136.154C121.434 131.798 113.571 128.055 105.712 132.767C97.8543 137.479 40.4179 160.457 40.4179 160.457Z" fill="#3E6295"/>
<path d="M145.43 177.924V172.118C145.43 172.118 154.919 170.547 155.887 169.398C156.856 168.249 157.398 167.587 157.398 167.587C157.398 167.587 171.516 171.231 171.833 173.902C172.151 176.578 171.833 177.935 171.833 177.935L145.43 177.924Z" fill="#051122"/>
<path d="M140.412 173.333C140.412 173.333 137.632 171.822 136.964 170.733C136.297 169.644 136.784 167.713 138.414 166.744C140.045 165.775 143.914 160.878 145.364 159.729C146.814 158.579 147.362 157.857 148.325 158.88C149.293 159.909 152.861 162.021 151.406 163.898C149.95 165.775 147.537 167.346 146.995 168.375C146.453 169.404 142.163 173.814 140.412 173.333Z" fill="#051122"/>
<path d="M97.7285 108.104L99.9666 105.083L103.173 99.7641C103.173 99.7641 105.351 101.575 108.613 100.853C111.88 100.125 112.361 95.1729 112.361 95.1729L114.539 95.0525L113.691 86.587C113.691 86.587 109.581 81.2078 109.094 81.2078C108.613 81.2078 101.959 82.2967 101.959 82.2967C101.959 82.2967 96.1525 88.6445 87.9934 94.9321L86.7239 99.4084L93.493 107.874L97.7285 108.104Z" fill="url(#paint2_linear)"/>
<path d="M106.769 100.995L92.1688 127.93C92.1688 127.93 89.3561 132.099 92.8966 133.188C96.4317 134.277 102.779 135.728 102.779 135.728C102.779 135.728 107.677 134.004 109.669 125.932C111.666 117.861 110.846 98.8174 110.846 98.8174L109.302 98.2756L106.769 100.995Z" fill="url(#paint3_linear)"/>
<path d="M105.587 102.9C105.587 102.9 102.823 101.039 105.362 98.5492C107.901 96.0539 111.934 97.1428 111.984 99.3208C112.027 101.499 110.714 102.768 110.714 102.768C110.714 102.768 107.447 105.712 105.587 102.9Z" fill="url(#paint4_linear)"/>
<path d="M87.9935 94.9211C87.9935 94.9211 91.5286 98.095 94.6149 102.812C97.7013 107.529 99.9668 105.078 99.9668 105.078C99.9668 105.078 92.9404 131.394 89.9909 138.447C87.315 144.839 87.315 144.795 87.315 144.795C87.315 144.795 60.0633 152.051 49.5457 159.302C39.0281 166.553 39.1813 167.193 39.1813 167.193C39.1813 167.193 34.8583 149.145 47.7344 123.032C60.6105 96.9185 87.9935 94.9211 87.9935 94.9211Z" fill="#E69716"/>
<path d="M62.6024 114.145L56.9824 116.684C56.9824 116.684 51.9972 127.295 51.8112 136.455C51.6306 145.616 60.9717 152.866 68.7696 152.505C76.5675 152.144 102.774 135.727 102.774 135.727C102.774 135.727 92.7981 128.652 86.2698 131.558C79.7414 134.458 78.2913 135.273 78.2913 135.273C78.2913 135.273 83.0959 127.295 85.0932 125.478C87.0906 123.667 84.1848 119.311 84.1848 119.311L62.6024 114.145Z" fill="url(#paint5_linear)"/>
<path d="M69.3167 100.848C69.3167 100.848 65.0374 106.736 60.7308 111.486C51.9971 121.128 52.9 124.301 52.9 124.301C52.9 124.301 60.0632 118.495 70.4002 118.95C80.7372 119.404 85.2737 125.872 85.2737 125.872C85.2737 125.872 88.9018 122.851 89.9908 115.956C91.0797 109.067 90.839 107.737 90.1111 107.13C89.3833 106.528 69.3167 100.848 69.3167 100.848Z" fill="#E69716"/>
<path d="M119.995 73.2238C120.033 72.9721 127.574 81.9739 121.949 87.4899C116.318 93.0059 112.197 87.2436 111.453 87.2163C110.709 87.1889 106.123 84.8632 106.26 83.632C106.397 82.4007 106.397 82.4007 106.397 82.4007C106.397 82.4007 104.826 84.8085 102.79 85.9741C100.76 87.1397 97.0665 92.0811 97.0665 92.0811L94.1169 89.7225C94.1169 89.7225 95.7258 79.9765 98.5987 76.4907C101.472 73.0049 106.139 73.5412 108.651 74.4988C111.163 75.451 114.676 78.0448 114.676 78.0448C114.676 78.0448 119.191 78.7453 119.995 73.2238Z" fill="#0A2245"/>
<path d="M95.1184 87.6212C95.1293 88.3599 94.6423 89.0385 94.5274 89.7663C94.5164 89.8374 94.6259 89.8538 94.6368 89.7827C94.7517 89.0439 95.2388 88.3599 95.2278 87.6102C95.2333 87.5336 95.1184 87.55 95.1184 87.6212Z" fill="#3E6295"/>
<path d="M95.7201 88.8962C95.638 89.1698 95.556 89.4434 95.4793 89.7225C95.4465 89.8538 95.4027 89.9797 95.3754 90.111C95.348 90.2259 95.3425 90.3409 95.3973 90.4448C95.4301 90.505 95.5231 90.4394 95.4958 90.3792C95.4465 90.2807 95.4793 90.1603 95.5067 90.0563C95.5395 89.9304 95.5724 89.8046 95.6107 89.6732C95.6818 89.4161 95.7584 89.1643 95.835 88.9126C95.8515 88.8415 95.742 88.8251 95.7201 88.8962Z" fill="#3E6295"/>
<path d="M96.3715 89.531C96.2949 89.9851 96.1636 90.4284 95.972 90.8607C95.9447 90.9264 96.0432 90.9701 96.076 90.9045C96.273 90.4667 96.4098 90.0125 96.4864 89.5474C96.4974 89.4762 96.3824 89.4598 96.3715 89.531Z" fill="#3E6295"/>
<path d="M97.0828 90.0672C96.9187 90.4886 96.749 90.9045 96.5849 91.3259C96.5575 91.3915 96.6615 91.4353 96.6888 91.3696C96.853 90.9483 97.0226 90.5324 97.1868 90.111C97.2087 90.0399 97.1102 89.9961 97.0828 90.0672Z" fill="#3E6295"/>
<path d="M105.795 86.2695C105.795 86.2695 105.368 87.4187 104.985 87.7416C104.602 88.0644 103.113 90.018 104.317 90.5433C105.548 91.0796 105.964 89.1753 105.86 88.245C105.762 87.3147 105.795 86.2695 105.795 86.2695Z" fill="white"/>
<path d="M67.6147 166.821C67.5053 166.821 67.4177 166.733 67.4177 166.624C67.4177 166.514 67.5053 166.427 67.6147 166.421C68.1346 166.41 68.6654 166.388 69.1907 166.35C69.3057 166.339 69.3932 166.421 69.4042 166.531C69.4151 166.64 69.333 166.733 69.2236 166.744C68.6818 166.788 68.1455 166.81 67.6147 166.821ZM66.0278 166.799C66.0223 166.799 66.0223 166.799 66.0169 166.799C65.486 166.777 64.9498 166.733 64.419 166.678C64.3095 166.668 64.2329 166.569 64.2439 166.46C64.2548 166.35 64.3588 166.274 64.4627 166.284C64.9826 166.339 65.5134 166.377 66.0333 166.405C66.1427 166.41 66.2248 166.503 66.2248 166.613C66.2193 166.717 66.1318 166.799 66.0278 166.799ZM70.7777 166.58C70.6792 166.58 70.5971 166.509 70.5807 166.41C70.5643 166.301 70.6409 166.202 70.7503 166.186C71.2647 166.115 71.7901 166.033 72.3044 165.929C72.4139 165.907 72.5179 165.978 72.5343 166.087C72.5562 166.197 72.485 166.301 72.3756 166.317C71.8502 166.421 71.3194 166.503 70.7996 166.574C70.7941 166.58 70.7886 166.58 70.7777 166.58ZM62.8703 166.465C62.8594 166.465 62.8484 166.465 62.8375 166.465C62.3122 166.378 61.7868 166.274 61.267 166.153C61.163 166.126 61.0973 166.022 61.1192 165.918C61.1466 165.814 61.2506 165.748 61.3545 165.77C61.8634 165.89 62.3833 165.994 62.8977 166.077C63.0071 166.093 63.0783 166.197 63.0619 166.306C63.0509 166.399 62.9634 166.465 62.8703 166.465ZM73.8914 165.978C73.8038 165.978 73.7217 165.918 73.6999 165.83C73.6725 165.726 73.7382 165.617 73.8421 165.59C74.3456 165.464 74.8545 165.321 75.3634 165.168C75.4674 165.135 75.5768 165.196 75.6097 165.299C75.6425 165.403 75.5823 165.513 75.4783 165.546C74.9694 165.704 74.4495 165.847 73.9406 165.973C73.9242 165.978 73.9078 165.978 73.8914 165.978ZM59.7785 165.748C59.7621 165.748 59.7402 165.748 59.7238 165.743C59.2149 165.595 58.706 165.425 58.2025 165.245C58.0986 165.206 58.0438 165.092 58.0821 164.993C58.1204 164.889 58.2299 164.84 58.3339 164.873C58.8264 165.053 59.3298 165.217 59.8332 165.365C59.9372 165.398 59.9974 165.507 59.9646 165.611C59.9427 165.693 59.8661 165.748 59.7785 165.748ZM76.9285 165.053C76.8464 165.053 76.7698 165.004 76.7424 164.922C76.7041 164.818 76.7588 164.708 76.8628 164.67C77.3498 164.495 77.8478 164.304 78.3348 164.101C78.4333 164.063 78.5537 164.107 78.592 164.21C78.6358 164.309 78.5865 164.429 78.488 164.468C77.9955 164.67 77.4921 164.867 76.9996 165.042C76.9722 165.048 76.9504 165.053 76.9285 165.053ZM56.7962 164.67C56.7688 164.67 56.7414 164.665 56.7196 164.654C56.2325 164.446 55.7455 164.221 55.2694 163.981C55.1709 163.931 55.1326 163.811 55.1819 163.718C55.2311 163.619 55.346 163.581 55.4445 163.63C55.9151 163.866 56.3967 164.09 56.8782 164.293C56.9767 164.336 57.026 164.451 56.9822 164.55C56.9439 164.626 56.8728 164.67 56.7962 164.67ZM79.8616 163.838C79.785 163.838 79.7138 163.795 79.681 163.723C79.6372 163.625 79.6755 163.505 79.7795 163.461C80.2446 163.242 80.7207 163.007 81.1968 162.76C81.2953 162.711 81.4157 162.749 81.4649 162.842C81.5142 162.941 81.4759 163.061 81.3829 163.111C80.9122 163.357 80.4307 163.592 79.9491 163.816C79.9218 163.827 79.8889 163.838 79.8616 163.838ZM53.9506 163.253C53.9178 163.253 53.8849 163.242 53.8521 163.226C53.3924 162.963 52.9328 162.684 52.4841 162.394C52.391 162.334 52.3637 162.213 52.4239 162.12C52.4841 162.027 52.6044 162 52.6975 162.06C53.1407 162.344 53.5949 162.618 54.0436 162.881C54.1367 162.935 54.1695 163.056 54.1148 163.149C54.0874 163.22 54.0217 163.253 53.9506 163.253ZM82.6798 162.377C82.6086 162.377 82.543 162.339 82.5101 162.279C82.4554 162.186 82.4882 162.065 82.5813 162.011C83.03 161.753 83.4842 161.485 83.9384 161.201C84.0314 161.146 84.1518 161.173 84.212 161.266C84.2667 161.359 84.2394 161.48 84.1463 161.54C83.6867 161.825 83.227 162.098 82.7728 162.355C82.7454 162.366 82.7126 162.377 82.6798 162.377ZM51.2802 161.535C51.2419 161.535 51.1981 161.524 51.1652 161.496C50.7329 161.179 50.3061 160.851 49.9012 160.517C49.8191 160.446 49.8027 160.325 49.8738 160.238C49.9449 160.156 50.0653 160.139 50.1529 160.21C50.5524 160.539 50.9682 160.862 51.4005 161.173C51.4881 161.239 51.51 161.359 51.4443 161.447C51.406 161.507 51.3458 161.535 51.2802 161.535ZM85.3831 160.708C85.3174 160.708 85.2572 160.675 85.2189 160.621C85.1587 160.528 85.1806 160.407 85.2736 160.347L86.5869 159.455C86.68 159.395 86.8004 159.417 86.8605 159.504C86.9207 159.592 86.8989 159.718 86.8113 159.778L85.498 160.67C85.4597 160.697 85.4214 160.708 85.3831 160.708ZM88.0043 158.919C87.9441 158.919 87.8784 158.886 87.8401 158.831C87.7799 158.744 87.8018 158.618 87.8893 158.558L89.1972 157.66C89.2902 157.6 89.4106 157.622 89.4708 157.71C89.531 157.797 89.5091 157.923 89.4216 157.983L88.1082 158.881C88.0809 158.908 88.0426 158.919 88.0043 158.919ZM90.6254 157.124C90.5653 157.124 90.4996 157.091 90.4613 157.036C90.4011 156.949 90.423 156.823 90.5105 156.763L91.8184 155.865C91.9114 155.805 92.0318 155.827 92.092 155.915C92.1522 156.002 92.1303 156.128 92.0427 156.188L90.7349 157.086C90.7021 157.113 90.6637 157.124 90.6254 157.124ZM93.2466 155.335C93.1864 155.335 93.1208 155.302 93.0825 155.247C93.0223 155.159 93.0442 155.034 93.1317 154.973L94.4396 154.076C94.5326 154.016 94.653 154.038 94.7132 154.125C94.7734 154.213 94.7515 154.339 94.6639 154.399L93.3561 155.296C93.3233 155.324 93.2849 155.335 93.2466 155.335ZM95.8678 153.54C95.8076 153.54 95.742 153.512 95.7037 153.452C95.6435 153.365 95.6654 153.239 95.7529 153.179L97.0608 152.281C97.1538 152.221 97.2742 152.243 97.3344 152.33C97.3946 152.418 97.3727 152.544 97.2851 152.604L95.9773 153.501C95.9444 153.529 95.9061 153.54 95.8678 153.54ZM98.489 151.745C98.4288 151.745 98.3632 151.717 98.3249 151.657C98.2647 151.57 98.2866 151.444 98.3741 151.384L99.682 150.486C99.775 150.426 99.8954 150.448 99.9556 150.535C100.016 150.623 99.9939 150.749 99.9063 150.809L98.5985 151.706C98.5656 151.734 98.5273 151.745 98.489 151.745ZM101.105 149.944C101.045 149.944 100.979 149.917 100.941 149.857C100.88 149.769 100.902 149.643 100.99 149.583L102.298 148.686C102.385 148.626 102.511 148.647 102.571 148.735C102.632 148.823 102.61 148.948 102.522 149.009L101.214 149.906C101.181 149.933 101.143 149.944 101.105 149.944ZM103.72 148.15C103.66 148.15 103.595 148.122 103.556 148.062C103.496 147.974 103.518 147.849 103.606 147.788L104.913 146.891C105.006 146.831 105.127 146.853 105.187 146.94C105.247 147.028 105.225 147.154 105.138 147.214L103.83 148.111C103.797 148.139 103.759 148.15 103.72 148.15ZM106.336 146.349C106.276 146.349 106.21 146.322 106.172 146.262C106.112 146.174 106.134 146.048 106.221 145.988L107.529 145.085C107.622 145.025 107.743 145.047 107.803 145.134C107.863 145.222 107.841 145.348 107.754 145.408L106.446 146.311C106.413 146.338 106.375 146.349 106.336 146.349ZM108.952 144.543C108.892 144.543 108.826 144.516 108.788 144.456C108.728 144.368 108.749 144.242 108.837 144.182L110.145 143.279C110.238 143.219 110.358 143.241 110.418 143.329C110.479 143.416 110.457 143.542 110.369 143.602L109.061 144.505C109.029 144.532 108.99 144.543 108.952 144.543ZM111.562 142.738C111.502 142.738 111.436 142.71 111.398 142.65C111.338 142.562 111.36 142.437 111.447 142.376L112.75 141.473C112.837 141.413 112.963 141.435 113.023 141.523C113.083 141.61 113.062 141.736 112.974 141.796L111.672 142.699C111.639 142.727 111.6 142.738 111.562 142.738Z" fill="#A9B9D0"/>
<path d="M115.425 140.992C115.376 140.992 115.332 140.975 115.294 140.943L114.824 140.521L114.304 140.882C114.216 140.943 114.09 140.921 114.03 140.833C113.97 140.746 113.992 140.62 114.079 140.56L114.725 140.111C114.802 140.056 114.9 140.062 114.971 140.127L115.562 140.658C115.644 140.729 115.65 140.855 115.579 140.937C115.535 140.964 115.48 140.992 115.425 140.992Z" fill="#A9B9D0"/>
<path d="M139.695 162.782C139.646 162.782 139.602 162.766 139.564 162.733L138.349 161.644C138.267 161.573 138.261 161.447 138.332 161.365C138.403 161.283 138.529 161.277 138.611 161.349L139.826 162.437C139.908 162.509 139.914 162.634 139.843 162.717C139.804 162.76 139.75 162.782 139.695 162.782ZM137.271 160.604C137.221 160.604 137.178 160.588 137.139 160.555L135.925 159.466C135.842 159.395 135.837 159.269 135.908 159.187C135.979 159.105 136.105 159.099 136.187 159.171L137.402 160.26C137.484 160.331 137.49 160.457 137.418 160.539C137.375 160.582 137.325 160.604 137.271 160.604ZM134.841 158.426C134.792 158.426 134.748 158.41 134.71 158.377L133.495 157.288C133.413 157.217 133.407 157.091 133.478 157.009C133.55 156.927 133.675 156.921 133.758 156.993L134.972 158.082C135.054 158.153 135.06 158.279 134.989 158.361C134.95 158.404 134.896 158.426 134.841 158.426ZM132.417 156.243C132.368 156.243 132.324 156.227 132.285 156.194L131.071 155.105C130.989 155.034 130.983 154.908 131.054 154.826C131.125 154.744 131.251 154.738 131.333 154.809L132.548 155.898C132.63 155.969 132.636 156.095 132.565 156.177C132.521 156.221 132.472 156.243 132.417 156.243ZM129.987 154.065C129.938 154.065 129.894 154.049 129.856 154.016L128.641 152.927C128.559 152.856 128.553 152.73 128.625 152.648C128.696 152.566 128.822 152.56 128.904 152.631L130.118 153.72C130.201 153.791 130.206 153.917 130.135 153.999C130.097 154.043 130.042 154.065 129.987 154.065ZM127.563 151.887C127.514 151.887 127.47 151.871 127.432 151.838L126.217 150.749C126.135 150.678 126.129 150.552 126.2 150.47C126.272 150.388 126.397 150.382 126.479 150.453L127.694 151.542C127.776 151.613 127.782 151.739 127.711 151.821C127.667 151.865 127.612 151.887 127.563 151.887ZM125.133 149.709C125.084 149.709 125.04 149.693 125.002 149.66L123.787 148.571C123.705 148.5 123.7 148.374 123.771 148.292C123.842 148.21 123.968 148.204 124.05 148.275L125.265 149.364C125.347 149.435 125.352 149.561 125.281 149.643C125.243 149.687 125.188 149.709 125.133 149.709ZM122.709 147.526C122.66 147.526 122.616 147.509 122.578 147.476L121.363 146.387C121.281 146.316 121.275 146.19 121.347 146.108C121.418 146.026 121.544 146.021 121.626 146.092L122.84 147.181C122.923 147.252 122.928 147.378 122.857 147.46C122.813 147.504 122.758 147.526 122.709 147.526ZM120.279 145.348C120.23 145.348 120.186 145.331 120.148 145.298L118.933 144.21C118.851 144.138 118.846 144.013 118.917 143.93C118.988 143.848 119.114 143.843 119.196 143.914L120.411 145.003C120.493 145.074 120.498 145.2 120.427 145.282C120.389 145.326 120.334 145.348 120.279 145.348ZM117.855 143.17C117.806 143.17 117.762 143.153 117.724 143.121L116.509 142.032C116.427 141.96 116.422 141.835 116.493 141.752C116.564 141.67 116.69 141.665 116.772 141.736L117.987 142.825C118.069 142.896 118.074 143.022 118.003 143.104C117.959 143.148 117.904 143.17 117.855 143.17Z" fill="#A9B9D0"/>
<path d="M141.435 163.882L141.041 163.526C140.959 163.455 140.833 163.461 140.762 163.543C140.691 163.625 140.696 163.751 140.778 163.822L141.161 164.167L141.435 163.882Z" fill="#A9B9D0"/>
<path d="M146.037 166.027C145.993 166.027 145.95 166.011 145.911 165.983C145.534 165.671 145.101 165.321 144.686 164.982C144.598 164.911 144.587 164.79 144.658 164.703C144.729 164.615 144.855 164.604 144.937 164.676C145.353 165.015 145.791 165.365 146.169 165.677C146.256 165.748 146.267 165.868 146.196 165.956C146.152 166.005 146.097 166.027 146.037 166.027ZM143.569 164.041C143.525 164.041 143.482 164.03 143.449 163.997C143.268 163.86 143.131 163.756 143.049 163.701C142.568 163.379 142.163 163.373 142.157 163.373C142.048 163.373 141.96 163.286 141.96 163.176C141.96 163.067 142.048 162.979 142.157 162.979C142.179 162.979 142.677 162.985 143.263 163.373C143.35 163.428 143.493 163.537 143.684 163.685C143.772 163.751 143.788 163.877 143.717 163.964C143.69 164.013 143.629 164.041 143.569 164.041Z" fill="#A9B9D0"/>
</svg>
