<svg width="200" height="200" viewBox="0 0 200 200" fill="none" xmlns="http://www.w3.org/2000/svg">
<path d="M128.5 158.333C127.722 158.5 127.278 159.222 127.445 160C127.611 160.778 128.334 161.222 129.111 161.056C129.889 160.889 130.334 160.167 130.167 159.389C129.945 158.667 129.222 158.167 128.5 158.333Z" fill="#1A1336"/>
<path d="M122.556 156.166C121.778 156.333 121.333 157.055 121.5 157.833C121.667 158.611 122.389 159.055 123.167 158.889C123.945 158.722 124.389 158 124.222 157.222C124.056 156.5 123.278 156 122.556 156.166Z" fill="#1A1336"/>
<path d="M116.611 154C115.833 154.167 115.389 154.889 115.556 155.667C115.722 156.444 116.445 156.889 117.222 156.722C118 156.555 118.445 155.833 118.278 155.055C118.111 154.333 117.389 153.833 116.611 154Z" fill="#1A1336"/>
<path d="M110.722 151.833C109.945 152 109.5 152.722 109.667 153.5C109.833 154.278 110.556 154.722 111.333 154.556C112.111 154.389 112.556 153.667 112.389 152.889C112.222 152.167 111.445 151.667 110.722 151.833Z" fill="#1A1336"/>
<path d="M104.778 149.667C104 149.833 103.556 150.556 103.722 151.333C103.889 152.111 104.611 152.556 105.389 152.389C106.167 152.222 106.611 151.5 106.445 150.722C106.278 149.944 105.556 149.5 104.778 149.667Z" fill="#1A1336"/>
<path d="M98.8891 147.5C98.1113 147.667 97.6669 148.389 97.8335 149.167C98.0002 149.944 98.7224 150.389 99.5002 150.222C100.278 150.056 100.722 149.333 100.556 148.556C100.334 147.833 99.6113 147.333 98.8891 147.5Z" fill="#1A1336"/>
<path d="M92.9446 145.333C92.1669 145.5 91.7224 146.222 91.8891 147C92.0557 147.778 92.778 148.222 93.5557 148.056C94.3335 147.889 94.778 147.167 94.6113 146.389C94.4446 145.667 93.7224 145.167 92.9446 145.333Z" fill="#1A1336"/>
<path d="M87.0002 143.166C86.2224 143.333 85.778 144.055 85.9446 144.833C86.1113 145.611 86.8335 146.055 87.6113 145.889C88.3891 145.722 88.8335 145 88.6668 144.222C88.5002 143.5 87.778 143 87.0002 143.166Z" fill="#1A1336"/>
<path d="M81.1113 141C80.3335 141.167 79.889 141.889 80.0557 142.667C80.2224 143.444 80.9446 143.889 81.7224 143.722C82.5001 143.556 82.9446 142.833 82.7779 142.056C82.6113 141.333 81.8335 140.833 81.1113 141Z" fill="#1A1336"/>
<path d="M75.1668 138.833C74.389 139 73.9446 139.722 74.1112 140.5C74.2779 141.278 75.0001 141.722 75.7779 141.556C76.5557 141.389 77.0001 140.667 76.8335 139.889C76.6668 139.167 75.9446 138.667 75.1668 138.833Z" fill="#1A1336"/>
<path d="M69.2779 136.666C68.5001 136.833 68.0557 137.555 68.2223 138.333C68.389 139.111 69.1112 139.555 69.889 139.389C70.6668 139.222 71.1112 138.5 70.9445 137.722C70.7223 137 70.0001 136.5 69.2779 136.666Z" fill="#1A1336"/>
<path d="M63.3336 134.5C62.5558 134.667 62.1113 135.389 62.278 136.167C62.4447 136.945 63.1669 137.389 63.9447 137.222C64.7224 137.056 65.1669 136.333 65.0002 135.556C64.8336 134.778 64.1113 134.333 63.3336 134.5Z" fill="#1A1336"/>
<path d="M57.3891 132.333C56.6113 132.5 56.1669 133.222 56.3335 134C56.5002 134.778 57.2224 135.222 58.0002 135.056C58.778 134.889 59.2224 134.167 59.0558 133.389C58.8891 132.667 58.1669 132.167 57.3891 132.333Z" fill="#1A1336"/>
<path d="M52.0557 132.889C52.8335 132.722 53.278 132 53.1113 131.222C52.9446 130.444 52.2224 130 51.4446 130.167C50.6669 130.333 50.2224 131.056 50.3891 131.833C50.6113 132.556 51.3335 133.056 52.0557 132.889Z" fill="#1A1336"/>
<path d="M46.1668 130.722C46.9446 130.556 47.3891 129.833 47.2224 129.056C47.0557 128.278 46.3335 127.833 45.5557 128C44.7779 128.167 44.3335 128.889 44.5002 129.667C44.6668 130.389 45.3891 130.889 46.1668 130.722Z" fill="#1A1336"/>
<path d="M120.556 161.666C119.778 161.833 119.333 162.555 119.5 163.333C119.667 164.111 120.389 164.555 121.167 164.389C121.945 164.222 122.389 163.5 122.222 162.722C122.056 162 121.278 161.5 120.556 161.666Z" fill="#1A1336"/>
<path d="M116.278 160.556C116.111 159.778 115.389 159.333 114.611 159.5C113.833 159.667 113.389 160.389 113.556 161.167C113.722 161.945 114.445 162.389 115.222 162.222C115.945 162.056 116.445 161.333 116.278 160.556Z" fill="#1A1336"/>
<path d="M110.333 158.389C110.167 157.611 109.445 157.167 108.667 157.333C107.889 157.5 107.445 158.222 107.611 159C107.778 159.778 108.5 160.222 109.278 160.055C110.056 159.889 110.5 159.166 110.333 158.389Z" fill="#1A1336"/>
<path d="M104.445 156.222C104.278 155.444 103.556 155 102.778 155.167C102 155.333 101.556 156.056 101.722 156.833C101.889 157.611 102.611 158.056 103.389 157.889C104.111 157.722 104.611 157 104.445 156.222Z" fill="#1A1336"/>
<path d="M98.5002 154.056C98.3336 153.278 97.6113 152.833 96.8336 153C96.0558 153.167 95.6113 153.889 95.778 154.667C95.9447 155.445 96.6669 155.889 97.4447 155.722C98.1669 155.556 98.6669 154.833 98.5002 154.056Z" fill="#1A1336"/>
<path d="M92.5558 151.889C92.3891 151.111 91.6669 150.667 90.8891 150.833C90.1113 151 89.6669 151.722 89.8335 152.5C90.0002 153.278 90.7224 153.722 91.5002 153.555C92.278 153.389 92.7224 152.667 92.5558 151.889Z" fill="#1A1336"/>
<path d="M86.6668 149.722C86.5002 148.944 85.7779 148.5 85.0002 148.667C84.2224 148.833 83.778 149.556 83.9446 150.333C84.1113 151.111 84.8335 151.556 85.6113 151.389C86.3335 151.222 86.8335 150.5 86.6668 149.722Z" fill="#1A1336"/>
<path d="M80.7224 147.556C80.5557 146.778 79.8335 146.333 79.0557 146.5C78.2779 146.667 77.8335 147.389 78.0002 148.167C78.1668 148.945 78.8891 149.389 79.6668 149.222C80.4446 149.056 80.8891 148.333 80.7224 147.556Z" fill="#1A1336"/>
<path d="M74.8335 145.389C74.6668 144.611 73.9446 144.167 73.1668 144.333C72.389 144.5 71.9446 145.222 72.1112 146C72.2779 146.778 73.0001 147.222 73.7779 147.055C74.5001 146.889 75.0001 146.167 74.8335 145.389Z" fill="#1A1336"/>
<path d="M68.889 143.222C68.7223 142.444 68.0001 142 67.2223 142.167C66.4446 142.333 66.0001 143.056 66.1668 143.833C66.3335 144.611 67.0557 145.056 67.8335 144.889C68.5557 144.722 69.0557 144 68.889 143.222Z" fill="#1A1336"/>
<path d="M63.0002 141.056C62.8336 140.278 62.1113 139.833 61.3336 140C60.5558 140.167 60.1113 140.889 60.278 141.667C60.4447 142.445 61.1669 142.889 61.9447 142.722C62.6669 142.556 63.1113 141.833 63.0002 141.056Z" fill="#1A1336"/>
<path d="M57.0558 138.889C56.8891 138.111 56.1669 137.667 55.3891 137.833C54.6113 138 54.1669 138.722 54.3335 139.5C54.5002 140.278 55.2224 140.722 56.0002 140.555C56.7224 140.389 57.2224 139.666 57.0558 138.889Z" fill="#1A1336"/>
<path d="M51.1113 136.722C50.9446 135.944 50.2224 135.5 49.4446 135.667C48.6669 135.833 48.2224 136.556 48.3891 137.333C48.5557 138.111 49.278 138.556 50.0557 138.389C50.8335 138.222 51.278 137.5 51.1113 136.722Z" fill="#1A1336"/>
<path d="M45.2224 134.556C45.0557 133.778 44.3335 133.333 43.5557 133.5C42.7779 133.667 42.3335 134.389 42.5002 135.167C42.6668 135.945 43.3891 136.389 44.1668 136.222C44.8891 136.056 45.3891 135.333 45.2224 134.556Z" fill="#1A1336"/>
<path d="M38.389 134C38.7779 133.889 39.0557 133.611 39.2224 133.278L38.389 134Z" fill="#1A1336"/>
<path d="M118.556 167.166C117.778 167.333 117.333 168.055 117.5 168.833C117.667 169.611 118.389 170.055 119.167 169.889C119.945 169.722 120.389 169 120.222 168.222C120 167.5 119.278 167 118.556 167.166Z" fill="#1A1336"/>
<path d="M112.611 165C111.833 165.167 111.389 165.889 111.556 166.667C111.722 167.444 112.445 167.889 113.222 167.722C114 167.556 114.445 166.833 114.278 166.056C114.111 165.333 113.333 164.833 112.611 165Z" fill="#1A1336"/>
<path d="M106.667 162.833C105.889 163 105.445 163.722 105.611 164.5C105.778 165.278 106.5 165.722 107.278 165.556C108.056 165.389 108.5 164.667 108.333 163.889C108.167 163.167 107.445 162.667 106.667 162.833Z" fill="#1A1336"/>
<path d="M100.778 160.666C100 160.833 99.5557 161.555 99.7223 162.333C99.889 163.111 100.611 163.555 101.389 163.389C102.167 163.222 102.611 162.5 102.445 161.722C102.278 161 101.5 160.5 100.778 160.666Z" fill="#1A1336"/>
<path d="M94.8335 158.5C94.0558 158.667 93.6113 159.389 93.778 160.167C93.9447 160.944 94.6669 161.389 95.4447 161.222C96.2224 161.056 96.6669 160.333 96.5002 159.556C96.3335 158.833 95.6113 158.333 94.8335 158.5Z" fill="#1A1336"/>
<path d="M88.9446 156.333C88.1669 156.5 87.7224 157.222 87.8891 158C88.0557 158.778 88.778 159.222 89.5557 159.055C90.3335 158.889 90.778 158.167 90.6113 157.389C90.4446 156.611 89.6669 156.167 88.9446 156.333Z" fill="#1A1336"/>
<path d="M83.0002 154.166C82.2224 154.333 81.778 155.055 81.9446 155.833C82.1113 156.611 82.8335 157.055 83.6113 156.889C84.3891 156.722 84.8335 156 84.6668 155.222C84.5002 154.5 83.7224 154 83.0002 154.166Z" fill="#1A1336"/>
<path d="M77.0557 152C76.2779 152.167 75.8335 152.889 76.0002 153.667C76.1668 154.444 76.8891 154.889 77.6668 154.722C78.4446 154.556 78.889 153.833 78.7224 153.056C78.5557 152.333 77.8335 151.833 77.0557 152Z" fill="#1A1336"/>
<path d="M71.1668 149.833C70.389 150 69.9446 150.722 70.1112 151.5C70.2779 152.278 71.0001 152.722 71.7779 152.556C72.5557 152.389 73.0001 151.667 72.8335 150.889C72.6668 150.167 71.889 149.667 71.1668 149.833Z" fill="#1A1336"/>
<path d="M65.2223 147.666C64.4446 147.833 64.0001 148.555 64.1668 149.333C64.3335 150.111 65.0557 150.555 65.8335 150.389C66.6112 150.222 67.0557 149.5 66.889 148.722C66.7223 148 66.0001 147.5 65.2223 147.666Z" fill="#1A1336"/>
<path d="M59.3336 145.5C58.5558 145.667 58.1113 146.389 58.278 147.167C58.4447 147.945 59.1669 148.389 59.9447 148.222C60.7224 148.056 61.1669 147.333 61.0002 146.556C60.8336 145.778 60.0558 145.333 59.3336 145.5Z" fill="#1A1336"/>
<path d="M53.3891 143.333C52.6113 143.5 52.1669 144.222 52.3335 145C52.5002 145.778 53.2224 146.222 54.0002 146.056C54.778 145.889 55.2224 145.167 55.0558 144.389C54.8891 143.667 54.1669 143.167 53.3891 143.333Z" fill="#1A1336"/>
<path d="M47.4446 141.166C46.6669 141.333 46.2224 142.055 46.3891 142.833C46.5557 143.611 47.278 144.055 48.0557 143.889C48.8335 143.722 49.278 143 49.1113 142.222C48.9446 141.5 48.2224 141 47.4446 141.166Z" fill="#1A1336"/>
<path d="M41.5557 139C40.7779 139.167 40.3335 139.889 40.5002 140.667C40.6668 141.444 41.3891 141.889 42.1668 141.722C42.9446 141.556 43.389 140.833 43.2224 140.056C43.0557 139.333 42.2779 138.833 41.5557 139Z" fill="#1A1336"/>
<path d="M35.6113 136.833C34.8335 137 34.389 137.722 34.5557 138.5C34.7224 139.278 35.4446 139.722 36.2224 139.556C37.0001 139.389 37.4446 138.667 37.2779 137.889C37.1113 137.167 36.389 136.667 35.6113 136.833Z" fill="#1A1336"/>
<path d="M130.778 152.389C130 152.556 129.556 153.278 129.722 154.056C129.889 154.834 130.611 155.278 131.389 155.111C132.167 154.945 132.611 154.222 132.445 153.445C132.278 152.722 131.556 152.222 130.778 152.389Z" fill="#1A1336"/>
<path d="M126.5 151.278C126.334 150.5 125.611 150.056 124.834 150.222C124.056 150.389 123.611 151.111 123.778 151.889C123.945 152.667 124.667 153.111 125.445 152.945C126.222 152.778 126.667 152.056 126.5 151.278Z" fill="#1A1336"/>
<path d="M117.889 149.722C118.056 150.5 118.778 150.944 119.556 150.778C120.334 150.611 120.778 149.889 120.611 149.111C120.445 148.333 119.722 147.889 118.945 148.055C118.167 148.222 117.722 148.944 117.889 149.722Z" fill="#1A1336"/>
<path d="M111.945 147.556C112.111 148.333 112.834 148.778 113.611 148.611C114.389 148.444 114.834 147.722 114.667 146.944C114.5 146.167 113.778 145.722 113 145.889C112.278 146.056 111.778 146.778 111.945 147.556Z" fill="#1A1336"/>
<path d="M106.056 145.389C106.222 146.167 106.945 146.611 107.722 146.445C108.5 146.278 108.945 145.556 108.778 144.778C108.611 144 107.889 143.556 107.111 143.722C106.333 143.889 105.889 144.611 106.056 145.389Z" fill="#1A1336"/>
<path d="M100.111 143.222C100.278 144 101 144.444 101.778 144.278C102.556 144.111 103 143.389 102.833 142.611C102.667 141.833 101.945 141.389 101.167 141.555C100.389 141.722 99.9446 142.444 100.111 143.222Z" fill="#1A1336"/>
<path d="M94.1668 141.055C94.3335 141.833 95.0557 142.278 95.8335 142.111C96.6113 141.944 97.0557 141.222 96.889 140.444C96.7224 139.667 96.0002 139.222 95.2224 139.389C94.5002 139.556 94.0002 140.278 94.1668 141.055Z" fill="#1A1336"/>
<path d="M89.9447 139.945C90.7224 139.778 91.1669 139.056 91.0002 138.278C90.8336 137.5 90.1113 137.056 89.3336 137.222C88.5558 137.389 88.1113 138.111 88.278 138.889C88.4447 139.611 89.1669 140.111 89.9447 139.945Z" fill="#1A1336"/>
<path d="M84.0002 137.778C84.778 137.611 85.2224 136.889 85.0558 136.111C84.8891 135.333 84.1669 134.889 83.3891 135.055C82.6113 135.222 82.1669 135.944 82.3335 136.722C82.5002 137.444 83.2224 137.944 84.0002 137.778Z" fill="#1A1336"/>
<path d="M78.0557 135.611C78.8335 135.444 79.278 134.722 79.1113 133.944C78.9446 133.167 78.2224 132.722 77.4446 132.889C76.6669 133.056 76.2224 133.778 76.3891 134.556C76.6113 135.278 77.3335 135.778 78.0557 135.611Z" fill="#1A1336"/>
<path d="M72.1668 133.445C72.9446 133.278 73.389 132.556 73.2224 131.778C73.0557 131 72.3335 130.556 71.5557 130.722C70.7779 130.889 70.3335 131.611 70.5002 132.389C70.6668 133.111 71.389 133.611 72.1668 133.445Z" fill="#1A1336"/>
<path d="M66.2224 131.278C67.0001 131.111 67.4446 130.389 67.2779 129.611C67.1113 128.833 66.389 128.389 65.6113 128.555C64.8335 128.722 64.389 129.444 64.5557 130.222C64.7224 130.944 65.5001 131.444 66.2224 131.278Z" fill="#1A1336"/>
<path d="M60.3335 129.111C61.1112 128.944 61.5557 128.222 61.389 127.444C61.2223 126.667 60.5001 126.222 59.7223 126.389C58.9446 126.556 58.5001 127.278 58.6668 128.055C58.8335 128.778 59.5557 129.278 60.3335 129.111Z" fill="#1A1336"/>
<path d="M54.389 126.945C55.1668 126.778 55.6112 126.056 55.4446 125.278C55.2779 124.5 54.5557 124.056 53.7779 124.222C53.0001 124.389 52.5557 125.111 52.7223 125.889C52.889 126.611 53.6112 127.111 54.389 126.945Z" fill="#1A1336"/>
<path d="M139 148.611C138.222 148.778 137.778 149.5 137.945 150.278C138.111 151.056 138.834 151.5 139.611 151.334C140.389 151.167 140.833 150.445 140.667 149.667C140.5 148.945 139.778 148.445 139 148.611Z" fill="#1A1336"/>
<path d="M133.111 146.444C132.333 146.611 131.889 147.333 132.056 148.111C132.222 148.889 132.945 149.333 133.722 149.167C134.5 149 134.945 148.278 134.778 147.5C134.611 146.722 133.833 146.278 133.111 146.444Z" fill="#1A1336"/>
<path d="M127.778 147C128.556 146.834 129 146.111 128.833 145.334C128.667 144.556 127.945 144.111 127.167 144.278C126.389 144.445 125.945 145.167 126.111 145.945C126.278 146.667 127 147.167 127.778 147Z" fill="#1A1336"/>
<path d="M121.833 144.833C122.611 144.667 123.056 143.944 122.889 143.167C122.722 142.389 122 141.944 121.222 142.111C120.445 142.278 120 143 120.167 143.778C120.333 144.555 121.056 145 121.833 144.833Z" fill="#1A1336"/>
<path d="M115.889 142.667C116.667 142.5 117.111 141.778 116.945 141C116.778 140.222 116.056 139.778 115.278 139.944C114.5 140.111 114.056 140.833 114.222 141.611C114.445 142.389 115.167 142.833 115.889 142.667Z" fill="#1A1336"/>
<path d="M110 140.5C110.778 140.334 111.222 139.611 111.056 138.834C110.889 138.056 110.167 137.611 109.389 137.778C108.611 137.945 108.167 138.667 108.334 139.445C108.5 140.222 109.222 140.667 110 140.5Z" fill="#1A1336"/>
<path d="M104.056 138.333C104.834 138.167 105.278 137.444 105.111 136.667C104.945 135.889 104.222 135.444 103.445 135.611C102.667 135.778 102.222 136.5 102.389 137.278C102.556 138.055 103.334 138.5 104.056 138.333Z" fill="#1A1336"/>
<path d="M98.1668 136.167C98.9446 136 99.3891 135.278 99.2224 134.5C99.0557 133.722 98.3335 133.278 97.5557 133.444C96.7779 133.611 96.3335 134.333 96.5002 135.111C96.6668 135.889 97.3891 136.333 98.1668 136.167Z" fill="#1A1336"/>
<path d="M92.2224 134C93.0001 133.834 93.4446 133.111 93.2779 132.334C93.1113 131.556 92.389 131.111 91.6113 131.278C90.8335 131.445 90.389 132.167 90.5557 132.945C90.7224 133.722 91.5001 134.167 92.2224 134Z" fill="#1A1336"/>
<path d="M86.2779 131.833C87.0557 131.667 87.5001 130.944 87.3335 130.167C87.1668 129.389 86.4446 128.944 85.6668 129.111C84.889 129.278 84.4446 130 84.6112 130.778C84.8335 131.555 85.5557 132 86.2779 131.833Z" fill="#1A1336"/>
<path d="M80.389 129.667C81.1668 129.5 81.6112 128.778 81.4446 128C81.2779 127.222 80.5557 126.778 79.7779 126.944C79.0001 127.111 78.5557 127.833 78.7223 128.611C78.889 129.389 79.6112 129.833 80.389 129.667Z" fill="#1A1336"/>
<path d="M74.4447 127.5C75.2224 127.334 75.6669 126.611 75.5002 125.834C75.3335 125.056 74.6113 124.611 73.8335 124.778C73.0558 124.945 72.6113 125.667 72.778 126.445C72.9447 127.222 73.7224 127.667 74.4447 127.5Z" fill="#1A1336"/>
<path d="M68.5557 125.333C69.3335 125.167 69.778 124.444 69.6113 123.667C69.4446 122.889 68.7224 122.444 67.9446 122.611C67.1669 122.778 66.7224 123.5 66.8891 124.278C67.0557 125.055 67.778 125.5 68.5557 125.333Z" fill="#1A1336"/>
<path d="M62.6113 123.167C63.3891 123 63.8335 122.278 63.6668 121.5C63.5002 120.722 62.778 120.278 62.0002 120.444C61.2224 120.611 60.778 121.333 60.9446 122.111C61.1113 122.889 61.8335 123.333 62.6113 123.167Z" fill="#1A1336"/>
<path d="M33.5557 142.278C32.7779 142.444 32.3335 143.167 32.5002 143.944C32.6668 144.722 33.3891 145.167 34.1668 145C34.9446 144.833 35.389 144.111 35.2224 143.333C35.0557 142.611 34.3335 142.111 33.5557 142.278Z" fill="#1A1336"/>
<path d="M39.5557 144.5C38.7779 144.667 38.3335 145.389 38.5002 146.167C38.6668 146.944 39.3891 147.389 40.1668 147.222C40.9446 147.056 41.389 146.333 41.2224 145.556C41.0557 144.833 40.3335 144.333 39.5557 144.5Z" fill="#1A1336"/>
<path d="M45.4446 146.666C44.6669 146.833 44.2224 147.555 44.3891 148.333C44.5557 149.111 45.278 149.555 46.0557 149.389C46.8335 149.222 47.278 148.5 47.1113 147.722C46.9446 147 46.2224 146.5 45.4446 146.666Z" fill="#1A1336"/>
<path d="M51.3891 148.833C50.6113 149 50.1669 149.722 50.3335 150.5C50.5002 151.278 51.2224 151.722 52.0002 151.556C52.778 151.389 53.2224 150.667 53.0558 149.889C52.8891 149.167 52.1113 148.667 51.3891 148.833Z" fill="#1A1336"/>
<path d="M57.2779 151C56.5001 151.167 56.0557 151.889 56.2223 152.667C56.389 153.444 57.1112 153.889 57.889 153.722C58.6668 153.556 59.1112 152.833 58.9446 152.056C58.7779 151.333 58.0557 150.833 57.2779 151Z" fill="#1A1336"/>
<path d="M63.2223 153.167C62.4446 153.333 62.0001 154.056 62.1668 154.833C62.3335 155.611 63.0557 156.056 63.8335 155.889C64.6112 155.722 65.0557 155 64.889 154.222C64.7223 153.444 64.0001 153 63.2223 153.167Z" fill="#1A1336"/>
<path d="M69.1668 155.333C68.389 155.5 67.9446 156.222 68.1112 157C68.2779 157.778 69.0001 158.222 69.7779 158.056C70.5557 157.889 71.0001 157.167 70.8335 156.389C70.6112 155.667 69.889 155.167 69.1668 155.333Z" fill="#1A1336"/>
<path d="M75.0557 157.5C74.2779 157.667 73.8335 158.389 74.0002 159.167C74.1668 159.944 74.8891 160.389 75.6668 160.222C76.4446 160.056 76.8891 159.333 76.7224 158.556C76.5557 157.833 75.8335 157.333 75.0557 157.5Z" fill="#1A1336"/>
<path d="M81.0002 159.611C80.2224 159.778 79.778 160.5 79.9446 161.278C80.1113 162.056 80.8335 162.5 81.6113 162.334C82.3891 162.167 82.8335 161.445 82.6668 160.667C82.4446 159.945 81.7224 159.445 81.0002 159.611Z" fill="#1A1336"/>
<path d="M86.9446 161.833C86.1669 162 85.7224 162.722 85.8891 163.5C86.0557 164.278 86.778 164.722 87.5557 164.556C88.3335 164.389 88.778 163.667 88.6113 162.889C88.3891 162.167 87.6669 161.667 86.9446 161.833Z" fill="#1A1336"/>
<path d="M92.8336 164C92.0558 164.167 91.6113 164.889 91.778 165.667C91.9447 166.444 92.6669 166.889 93.4447 166.722C94.2224 166.555 94.6669 165.833 94.5002 165.055C94.3336 164.333 93.5558 163.833 92.8336 164Z" fill="#1A1336"/>
<path d="M98.7779 166.166C98.0001 166.333 97.5557 167.055 97.7223 167.833C97.889 168.611 98.6112 169.055 99.389 168.889C100.167 168.722 100.611 168 100.445 167.222C100.222 166.5 99.5001 166 98.7779 166.166Z" fill="#1A1336"/>
<path d="M104.667 168.333C103.889 168.5 103.445 169.222 103.611 170C103.778 170.778 104.5 171.222 105.278 171.056C106.056 170.889 106.5 170.167 106.333 169.389C106.167 168.667 105.445 168.167 104.667 168.333Z" fill="#1A1336"/>
<path d="M110.611 170.5C109.833 170.667 109.389 171.389 109.556 172.167C109.722 172.944 110.445 173.389 111.222 173.222C112 173.056 112.445 172.333 112.278 171.556C112.111 170.833 111.333 170.333 110.611 170.5Z" fill="#1A1336"/>
<path d="M116.5 172.666C115.722 172.833 115.278 173.555 115.445 174.333C115.611 175.111 116.334 175.555 117.111 175.389C117.889 175.222 118.334 174.5 118.167 173.722C118 173 117.278 172.5 116.5 172.666Z" fill="#1A1336"/>
<path d="M126.445 163.833C125.667 164 125.222 164.722 125.389 165.5C125.556 166.278 126.278 166.722 127.056 166.556C127.834 166.389 128.278 165.667 128.111 164.889C127.945 164.167 127.222 163.667 126.445 163.833Z" fill="#1A1336"/>
<path d="M136.722 154.5C135.945 154.667 135.5 155.389 135.667 156.167C135.833 156.944 136.556 157.389 137.333 157.222C138.111 157.055 138.556 156.333 138.389 155.555C138.222 154.833 137.5 154.389 136.722 154.5Z" fill="#1A1336"/>
<path d="M56.1113 118.278C55.3335 118.444 54.889 119.167 55.0557 119.944C55.2224 120.722 55.9446 121.167 56.7224 121C57.5001 120.833 57.9446 120.111 57.7779 119.333C57.6113 118.611 56.8335 118.111 56.1113 118.278Z" fill="#1A1336"/>
<path d="M171.5 50.1667L150.111 45.1667C148.389 44.7778 146.556 45.4445 145.5 46.8889L140.5 53.9444C140.111 54.5 139.389 54.7778 138.722 54.6111L82.5001 40.3889C80.1668 39.7778 77.7779 41.2222 77.1667 43.5556L59.3334 111.5C58.7779 113.722 59.9445 115.944 62.0556 116.722L142.5 146.111C144.889 147 147.5 145.667 148.222 143.278L172.556 63.2778L174.722 55.7778C175.445 53.2778 173.945 50.7778 171.5 50.1667Z" fill="white"/>
<g opacity="0.3">
<path d="M166.222 71.6669L75.889 48.3892L58.6112 113.889L144.722 145L166.222 71.6669Z" fill="#00A0FF"/>
</g>
<path d="M144 146.945C143.445 146.945 142.833 146.833 142.278 146.667L61.8889 117.333C59.4445 116.445 58.1667 113.889 58.7778 111.445L76.6112 43.5001C77.2778 40.889 80.0001 39.2779 82.6112 39.9446L138.889 54.1112C139.333 54.2223 139.833 54.0557 140.056 53.6668L145.056 46.6112C146.222 44.9446 148.278 44.1668 150.222 44.6668L171.611 49.6668C172.945 50.0001 174.056 50.7779 174.778 52.0001C175.445 53.1668 175.667 54.5557 175.278 55.889L173.111 63.389L148.778 143.445C148.389 144.778 147.5 145.833 146.222 146.445C145.5 146.722 144.778 146.945 144 146.945ZM81.4445 40.8334C79.7223 40.8334 78.1667 42.0001 77.7223 43.7223L59.8889 111.667C59.3889 113.611 60.3889 115.556 62.2778 116.278L142.667 145.556C143.667 145.945 144.722 145.833 145.722 145.389C146.667 144.889 147.389 144.111 147.667 143.056L172 63.0557L174.167 55.5557C174.445 54.5557 174.333 53.4446 173.778 52.5557C173.222 51.6112 172.389 51.0001 171.333 50.7779L149.945 45.7779C148.389 45.4446 146.833 46.0001 145.945 47.2779L140.945 54.3335C140.445 55.0557 139.445 55.4446 138.611 55.2223L82.3889 40.9446C82.0556 40.889 81.7223 40.8334 81.4445 40.8334Z" fill="#1A1336"/>
<path d="M149.667 73.5553L59.167 48.3887L63.9448 115.389L146.056 145.833L149.667 73.5553Z" fill="white"/>
<g opacity="0.3">
<path d="M149.723 73.3336L146.111 145.834L63.9448 115.389L59.4448 48.8892L128.889 67.778L149.723 73.3336Z" fill="#00A0FF"/>
</g>
<path d="M146.056 146.389C146 146.389 145.945 146.389 145.889 146.333L63.7781 115.889C63.5559 115.833 63.4448 115.611 63.4448 115.389L58.667 48.3889C58.667 48.2222 58.7225 48.0555 58.8892 47.9444C59.0559 47.8333 59.2225 47.7778 59.3892 47.8333L149.834 72.9444C150.111 73 150.278 73.2222 150.223 73.5L146.611 145.778C146.611 145.944 146.5 146.111 146.389 146.222C146.278 146.389 146.167 146.389 146.056 146.389ZM64.5003 115L145.556 145.056L149.111 73.9444L59.7781 49.1667L64.5003 115Z" fill="#1A1336"/>
<path d="M108.889 98.0001C113.945 99.8889 118.667 104.056 121.333 108.389L139.722 136.222L144.611 144.056C145.333 145.222 144.167 146.667 142.889 146.222L59.1112 115.667C58.6112 115.5 58.2224 115.222 57.8335 114.833L12.3335 67.1667C10.7224 65.5001 12.5001 62.7778 14.6668 63.5556L108.889 98.0001Z" fill="#574E86"/>
<path d="M143.334 146.889C143.111 146.889 142.834 146.834 142.611 146.778L58.8335 116.222C58.278 116 57.778 115.667 57.3335 115.278L11.8335 67.6113C10.9446 66.6669 10.778 65.278 11.5002 64.2225C12.2224 63.1113 13.5002 62.6669 14.778 63.1669L109.056 97.5558C114.056 99.4447 118.945 103.5 121.778 108.167L140.167 136L145.056 143.889C145.5 144.611 145.445 145.556 144.889 146.222C144.5 146.611 143.945 146.889 143.334 146.889ZM13.8335 64.0002C13.2224 64.0002 12.7224 64.3891 12.5002 64.778C12.1669 65.278 12.0002 66.1113 12.6669 66.8336L58.1669 114.5C58.4446 114.834 58.8335 115.056 59.2224 115.167L143 145.722C143.445 145.889 143.834 145.667 144 145.445C144.222 145.222 144.334 144.778 144.056 144.389L139.167 136.556L120.778 108.722C118.111 104.334 113.334 100.334 108.611 98.5558L14.3891 64.1113C14.2224 64.0558 14.0002 64.0002 13.8335 64.0002Z" fill="#1A1336"/>
<path d="M175.333 125.722L180.333 121.055L178.945 120.055C180.389 116.055 180.611 111 179.278 105.111C177.056 95.4998 176.167 82.3332 168.389 74.2776C161.111 66.7221 147.222 64.0554 138.389 61.3332C132.611 59.5554 127.556 59.4443 123.445 60.6109L122.556 59.1665L117.278 64.0554C112.722 68.3332 110.945 75.6109 113.111 84.9443C117.445 103.555 135.722 123.167 154 128.722C163.278 131.555 170.778 130.222 175.333 125.722ZM153.833 118.333C147.056 116.278 142.667 108.611 137.167 102.778C131.667 96.8887 125.111 93.2221 123.5 86.3332C120.278 72.5554 126.778 65.9443 140.333 70.1109C153.889 74.2221 167.5 88.7776 170.667 102.611C173.889 116.333 167.389 122.444 153.833 118.333Z" fill="#1A1336"/>
<path d="M161 84.4441C161.5 85.0552 162.055 85.6663 162.555 86.333L171.278 78.0552C170.833 77.3885 170.389 76.7218 169.889 76.0552L161 84.4441Z" fill="#574E86"/>
<path d="M139.556 69.833C139.833 69.8885 140.111 69.9996 140.389 70.0552C146.556 71.9441 152.667 75.9441 157.889 81.0552L166.722 72.7218C161.278 68.1663 153.333 65.5552 146.222 63.5552L139.556 69.833Z" fill="#574E86"/>
<path d="M121.389 103.111L129.5 95.4439C128.5 94.4994 127.556 93.4994 126.722 92.4438L119.167 99.6105C119.833 100.777 120.611 101.944 121.389 103.111Z" fill="#574E86"/>
<path d="M163.167 130.777C160.278 130.777 157.111 130.277 153.778 129.277C135.333 123.666 116.833 103.833 112.5 85.1108C110.389 75.8886 111.889 68.2775 116.833 63.7219L122.611 58.333L123.667 59.9997C127.889 58.8886 133 59.1663 138.5 60.833C140.055 61.2775 141.722 61.7775 143.5 62.2775C152.055 64.6108 162.667 67.5552 168.778 73.9441C175.055 80.4997 176.889 90.2219 178.555 98.833C179 101 179.389 103.111 179.833 105.055C181.111 110.611 181.055 115.722 179.667 119.889L181.278 121.055L175.5 126.444L175.444 126.5L175.389 126.555C172.222 129.333 168.055 130.777 163.167 130.777ZM122.389 60.0552L117.611 64.4997C113 68.833 111.555 76.0552 113.611 84.833C117.889 103.222 136.055 122.666 154.111 128.166C162.944 130.833 170.278 129.833 174.889 125.277L175.278 124.889L179.389 121.055L178.222 120.222L178.389 119.833C179.833 115.833 179.944 110.777 178.667 105.222C178.222 103.277 177.833 101.166 177.389 98.9441C175.778 90.4997 174 80.9441 167.944 74.6663C162.055 68.4997 151.611 65.6108 143.222 63.333C141.444 62.833 139.722 62.3886 138.222 61.8886C132.778 60.2219 127.722 59.9997 123.611 61.1663L123.167 61.2775L122.389 60.0552ZM161.278 120.166C159 120.166 156.444 119.722 153.611 118.889C148.5 117.333 144.833 112.833 140.944 108.111C139.611 106.444 138.167 104.722 136.722 103.166C135.111 101.444 133.444 99.9441 131.833 98.4997C127.889 94.8886 124.111 91.4997 122.944 86.4441C121.278 79.333 122.111 73.9441 125.389 70.8886C128.555 67.9441 133.778 67.4441 140.5 69.4997C154.222 73.6663 168 88.4441 171.222 102.389C172.833 109.389 172.055 114.666 168.889 117.555C167.111 119.277 164.5 120.166 161.278 120.166ZM133.111 69.3886C130.222 69.3886 127.889 70.1663 126.222 71.7219C123.278 74.4441 122.555 79.4441 124.111 86.1663C125.222 90.8886 128.667 93.9997 132.667 97.6108C134.278 99.1108 136 100.611 137.611 102.333C139.111 103.944 140.5 105.666 141.889 107.333C145.667 111.944 149.222 116.277 154 117.777C160.444 119.722 165.333 119.389 168.167 116.722C171 114.055 171.667 109.222 170.167 102.611C167 88.9997 153.555 74.6108 140.222 70.5552C137.555 69.7775 135.167 69.3886 133.111 69.3886Z" fill="#1A1336"/>
<path d="M184.778 99.9443C180.444 81.3332 162.167 61.7221 143.889 56.1665C125.611 50.611 114.333 61.1665 118.611 79.7777C122.944 98.3888 141.222 118 159.5 123.555C177.778 129.111 189.111 118.5 184.778 99.9443ZM157.5 114.833C143.944 110.722 130.333 96.1665 127.167 82.3332C123.944 68.4999 132.389 60.6665 145.944 64.8332C159.5 68.9443 173.111 83.4999 176.278 97.3332C179.444 111.111 171.055 118.944 157.5 114.833Z" fill="white"/>
<path opacity="0.6" d="M173.555 104.055C170.333 90.2219 156.778 75.7219 143.222 71.5552C134.444 68.8885 128.611 70.7219 126.5 76.1108C126.444 77.9997 126.666 80.1108 127.166 82.333C130.389 96.1108 143.944 110.666 157.5 114.833C165.111 117.166 171.111 115.722 174.333 111.5C174.5 109.333 174.222 106.889 173.555 104.055Z" fill="white"/>
<path d="M168.722 125.611C165.833 125.611 162.667 125.111 159.333 124.111C140.889 118.5 122.389 98.6665 118.055 79.9443C115.944 70.722 117.444 63.1109 122.389 58.4998C127.333 53.8887 135 52.8887 144.055 55.6109C162.444 61.2221 181 81.0554 185.333 99.7776C187.444 109 185.944 116.611 181 121.222C177.889 124.111 173.667 125.611 168.722 125.611ZM134.722 55.2221C130.055 55.2221 126.111 56.6109 123.222 59.2776C118.611 63.6109 117.167 70.8332 119.222 79.6109C123.5 97.9998 141.667 117.444 159.722 122.944C168.333 125.555 175.667 124.667 180.278 120.333C184.889 116 186.333 108.778 184.278 99.9998C180 81.6109 161.833 62.1665 143.778 56.6665C140.5 55.7221 137.5 55.2221 134.722 55.2221ZM164.333 116.5C162.167 116.5 159.833 116.111 157.333 115.389C143.611 111.222 129.833 96.4443 126.611 82.4998C125 75.6109 126.167 69.9443 129.889 66.4443C133.611 62.9443 139.333 62.2221 146.111 64.2776C159.833 68.4443 173.611 83.2221 176.833 97.1665C178.444 104.055 177.278 109.778 173.555 113.222C171.222 115.389 168.055 116.5 164.333 116.5ZM157.667 114.278C164 116.222 169.389 115.555 172.778 112.389C176.167 109.222 177.222 103.944 175.722 97.4443C172.555 83.8332 159.111 69.4443 145.778 65.3887C139.444 63.4443 134.055 64.1109 130.667 67.2776C127.278 70.4443 126.222 75.7221 127.722 82.2221C130.889 95.8332 144.333 110.222 157.667 114.278Z" fill="#1A1336"/>
<path d="M168.778 157.722C169.056 157.666 169.222 157.389 169.167 157.111L161.611 124.222C161.611 124.222 161.444 123.944 161.222 123.889L155.889 122.278C155.389 122.111 154.611 122.333 154.167 122.778L150.278 126.389C150.056 126.555 150 126.778 150 126.944L157.556 159.833C157.611 160.111 157.889 160.277 158.167 160.222L168.778 157.722Z" fill="white"/>
<path d="M155.611 122.166C155.166 122.166 154.555 122.333 154.222 122.666L150.333 126.277C150.166 126.444 150.055 126.666 150.055 126.833L157.611 159.722C157.666 159.999 157.944 160.166 158.166 160.11L164.333 158.722L155.611 122.166Z" fill="#574E86"/>
<path d="M150 126.833L157.556 159.722C157.611 159.999 157.889 160.166 158.111 160.111L162.722 159.055L154.167 122.722L150.278 126.333C150.111 126.499 150 126.666 150 126.833Z" fill="#1A1336"/>
<path d="M158.056 160.722C157.556 160.722 157.111 160.388 157 159.888L149.444 126.888V126.833C149.444 126.611 149.556 126.222 149.944 125.888L153.833 122.277C154.444 121.722 155.389 121.444 156.111 121.666L161.444 123.277C161.833 123.388 162.111 123.777 162.167 123.888L162.222 124.055L169.778 156.944C169.833 157.222 169.778 157.499 169.667 157.777C169.5 157.999 169.278 158.166 169 158.222L158.333 160.666C158.222 160.722 158.111 160.722 158.056 160.722ZM150.611 126.833L158.111 159.555L168.611 157.166L161.111 124.444L161.056 124.388L155.722 122.777C155.444 122.666 154.889 122.833 154.556 123.111L150.667 126.722C150.667 126.777 150.611 126.833 150.611 126.833Z" fill="#1A1336"/>
<path d="M163.389 162.389L158.056 160.778C157.556 160.611 157.5 160.167 157.945 159.722L161.833 156.111C162.278 155.667 163.056 155.5 163.556 155.611L168.889 157.222C169.389 157.389 169.445 157.833 169 158.278L165.111 161.889C164.667 162.333 163.945 162.5 163.389 162.389Z" fill="#1A1336"/>
<path d="M163.778 163C163.611 163 163.389 163 163.222 162.944L157.889 161.333C157.445 161.222 157.167 160.944 157.111 160.555C157 160.166 157.167 159.722 157.556 159.333L161.445 155.722C162.056 155.166 163 154.889 163.722 155.111L169.056 156.722C169.5 156.833 169.778 157.166 169.833 157.5C169.945 157.889 169.778 158.333 169.389 158.722L165.5 162.333C165.056 162.722 164.389 163 163.778 163ZM158.278 160.222L163.556 161.833C163.833 161.889 164.389 161.778 164.722 161.5L168.611 157.889C168.667 157.889 168.667 157.833 168.667 157.833L163.389 156.222C163.111 156.166 162.556 156.278 162.222 156.555L158.333 160.166C158.333 160.166 158.278 160.166 158.278 160.222Z" fill="#1A1336"/>
</svg>
