<svg width="200" height="200" viewBox="0 0 200 200" fill="none" xmlns="http://www.w3.org/2000/svg">
<path d="M158.6 121.783C158.756 122.539 158.272 123.267 157.517 123.422C156.761 123.578 156.034 123.094 155.878 122.339C155.722 121.583 156.206 120.856 156.961 120.7C157.717 120.544 158.445 121.028 158.6 121.783Z" fill="#1A1336"/>
<path d="M152.7 119.561C152.856 120.317 152.372 121.045 151.617 121.2C150.861 121.356 150.133 120.872 149.978 120.117C149.822 119.361 150.306 118.633 151.061 118.478C151.817 118.322 152.544 118.806 152.7 119.561Z" fill="#1A1336"/>
<path d="M146.8 117.339C146.956 118.094 146.472 118.822 145.717 118.978C144.961 119.133 144.233 118.65 144.078 117.894C143.922 117.139 144.406 116.411 145.161 116.256C145.917 116.1 146.645 116.583 146.8 117.339Z" fill="#1A1336"/>
<path d="M140.9 115.122C141.056 115.878 140.572 116.606 139.817 116.761C139.061 116.917 138.333 116.433 138.178 115.678C138.022 114.922 138.506 114.194 139.261 114.039C140.017 113.883 140.744 114.367 140.9 115.122Z" fill="#1A1336"/>
<path d="M134.994 112.9C135.15 113.656 134.667 114.383 133.911 114.539C133.156 114.694 132.428 114.211 132.272 113.456C132.117 112.7 132.6 111.972 133.356 111.817C134.111 111.661 134.839 112.144 134.994 112.9Z" fill="#1A1336"/>
<path d="M129.095 110.678C129.25 111.433 128.767 112.161 128.011 112.317C127.256 112.472 126.528 111.989 126.372 111.233C126.217 110.478 126.7 109.75 127.456 109.595C128.211 109.439 128.939 109.922 129.095 110.678Z" fill="#1A1336"/>
<path d="M123.195 108.456C123.35 109.211 122.867 109.939 122.111 110.094C121.356 110.25 120.628 109.767 120.472 109.011C120.317 108.256 120.8 107.528 121.556 107.372C122.311 107.217 123.039 107.7 123.195 108.456Z" fill="#1A1336"/>
<path d="M117.295 106.233C117.45 106.989 116.967 107.717 116.211 107.872C115.456 108.028 114.728 107.545 114.572 106.789C114.417 106.033 114.9 105.306 115.656 105.15C116.411 104.995 117.139 105.478 117.295 106.233Z" fill="#1A1336"/>
<path d="M111.395 104.011C111.55 104.767 111.067 105.494 110.311 105.65C109.556 105.806 108.828 105.322 108.672 104.567C108.517 103.811 109 103.083 109.756 102.928C110.511 102.772 111.239 103.256 111.395 104.011Z" fill="#1A1336"/>
<path d="M105.489 101.794C105.645 102.55 105.161 103.278 104.406 103.433C103.65 103.589 102.922 103.106 102.767 102.35C102.611 101.594 103.095 100.867 103.85 100.711C104.606 100.556 105.334 101.039 105.489 101.794Z" fill="#1A1336"/>
<path d="M99.589 99.5723C99.7445 100.328 99.2612 101.056 98.5056 101.211C97.7501 101.367 97.0223 100.883 96.8668 100.128C96.7112 99.3723 97.1945 98.6445 97.9501 98.4889C98.7056 98.3334 99.4334 98.8167 99.589 99.5723Z" fill="#1A1336"/>
<path d="M162.439 129.489C162.595 130.244 162.111 130.972 161.356 131.128C160.6 131.283 159.872 130.8 159.717 130.044C159.561 129.289 160.045 128.561 160.8 128.406C161.556 128.25 162.284 128.733 162.439 129.489Z" fill="#1A1336"/>
<path d="M156.539 127.272C156.694 128.028 156.211 128.756 155.456 128.911C154.7 129.067 153.972 128.583 153.817 127.828C153.661 127.072 154.144 126.344 154.9 126.189C155.656 126.033 156.383 126.517 156.539 127.272Z" fill="#1A1336"/>
<path d="M150.639 125.05C150.795 125.806 150.311 126.533 149.556 126.689C148.8 126.845 148.072 126.361 147.917 125.606C147.761 124.85 148.245 124.122 149 123.967C149.756 123.811 150.483 124.295 150.639 125.05Z" fill="#1A1336"/>
<path d="M144.733 122.828C144.889 123.583 144.406 124.311 143.65 124.467C142.895 124.622 142.167 124.139 142.011 123.383C141.856 122.628 142.339 121.9 143.095 121.744C143.85 121.589 144.578 122.072 144.733 122.828Z" fill="#1A1336"/>
<path d="M138.833 120.606C138.989 121.361 138.506 122.089 137.75 122.244C136.994 122.4 136.267 121.917 136.111 121.161C135.956 120.406 136.439 119.678 137.194 119.522C137.95 119.367 138.678 119.85 138.833 120.606Z" fill="#1A1336"/>
<path d="M132.933 118.383C133.089 119.139 132.606 119.867 131.85 120.022C131.095 120.178 130.367 119.694 130.211 118.939C130.056 118.183 130.539 117.456 131.295 117.3C132.05 117.144 132.778 117.628 132.933 118.383Z" fill="#1A1336"/>
<path d="M127.034 116.161C127.189 116.917 126.706 117.644 125.95 117.8C125.195 117.956 124.467 117.472 124.311 116.717C124.156 115.961 124.639 115.233 125.395 115.078C126.15 114.922 126.878 115.406 127.034 116.161Z" fill="#1A1336"/>
<path d="M121.128 113.939C121.283 114.694 120.8 115.422 120.044 115.578C119.289 115.733 118.561 115.25 118.406 114.494C118.25 113.739 118.733 113.011 119.489 112.856C120.244 112.7 120.972 113.183 121.128 113.939Z" fill="#1A1336"/>
<path d="M115.228 111.722C115.383 112.478 114.9 113.206 114.145 113.361C113.389 113.517 112.661 113.033 112.506 112.278C112.35 111.522 112.833 110.795 113.589 110.639C114.345 110.483 115.072 110.967 115.228 111.722Z" fill="#1A1336"/>
<path d="M109.328 109.5C109.484 110.256 109 110.983 108.245 111.139C107.489 111.294 106.761 110.811 106.606 110.056C106.45 109.3 106.934 108.572 107.689 108.417C108.445 108.261 109.172 108.744 109.328 109.5Z" fill="#1A1336"/>
<path d="M103.428 107.278C103.583 108.033 103.1 108.761 102.345 108.917C101.589 109.072 100.861 108.589 100.706 107.833C100.55 107.078 101.033 106.35 101.789 106.195C102.545 106.039 103.272 106.522 103.428 107.278Z" fill="#1A1336"/>
<path d="M97.5223 105.056C97.6779 105.811 97.1945 106.539 96.439 106.694C95.6834 106.85 94.9557 106.367 94.8001 105.611C94.6445 104.856 95.1279 104.128 95.8834 103.972C96.639 103.817 97.3668 104.3 97.5223 105.056Z" fill="#1A1336"/>
<path d="M91.6224 102.833C91.778 103.589 91.2946 104.317 90.5391 104.472C89.7835 104.628 89.0558 104.145 88.9002 103.389C88.7446 102.633 89.228 101.906 89.9835 101.75C90.7391 101.594 91.4669 102.078 91.6224 102.833Z" fill="#1A1336"/>
<path d="M160.378 134.972C160.533 135.728 160.05 136.456 159.294 136.611C158.539 136.767 157.811 136.283 157.656 135.528C157.5 134.772 157.983 134.045 158.739 133.889C159.494 133.733 160.222 134.217 160.378 134.972Z" fill="#1A1336"/>
<path d="M154.472 132.75C154.628 133.506 154.145 134.233 153.389 134.389C152.633 134.544 151.906 134.061 151.75 133.306C151.594 132.55 152.078 131.822 152.833 131.667C153.589 131.511 154.317 131.994 154.472 132.75Z" fill="#1A1336"/>
<path d="M148.572 130.528C148.728 131.283 148.245 132.011 147.489 132.167C146.733 132.322 146.006 131.839 145.85 131.083C145.695 130.328 146.178 129.6 146.933 129.445C147.689 129.289 148.417 129.772 148.572 130.528Z" fill="#1A1336"/>
<path d="M142.672 128.306C142.828 129.061 142.344 129.789 141.589 129.944C140.833 130.1 140.106 129.617 139.95 128.861C139.794 128.106 140.278 127.378 141.033 127.222C141.789 127.067 142.517 127.55 142.672 128.306Z" fill="#1A1336"/>
<path d="M136.772 126.083C136.928 126.839 136.445 127.567 135.689 127.722C134.933 127.878 134.206 127.394 134.05 126.639C133.895 125.883 134.378 125.156 135.133 125C135.889 124.844 136.617 125.328 136.772 126.083Z" fill="#1A1336"/>
<path d="M130.867 123.867C131.022 124.622 130.539 125.35 129.783 125.506C129.028 125.661 128.3 125.178 128.145 124.422C127.989 123.667 128.472 122.939 129.228 122.783C129.983 122.628 130.711 123.111 130.867 123.867Z" fill="#1A1336"/>
<path d="M124.967 121.644C125.122 122.4 124.639 123.128 123.883 123.283C123.128 123.439 122.4 122.956 122.244 122.2C122.089 121.444 122.572 120.717 123.328 120.561C124.083 120.406 124.811 120.889 124.967 121.644Z" fill="#1A1336"/>
<path d="M119.067 119.422C119.222 120.178 118.739 120.906 117.983 121.061C117.228 121.217 116.5 120.733 116.345 119.978C116.189 119.222 116.672 118.494 117.428 118.339C118.183 118.183 118.911 118.667 119.067 119.422Z" fill="#1A1336"/>
<path d="M113.167 117.2C113.322 117.956 112.839 118.683 112.084 118.839C111.328 118.995 110.6 118.511 110.445 117.756C110.289 117 110.772 116.272 111.528 116.117C112.284 115.961 113.011 116.445 113.167 117.2Z" fill="#1A1336"/>
<path d="M107.267 114.978C107.422 115.733 106.939 116.461 106.183 116.617C105.428 116.772 104.7 116.289 104.544 115.533C104.389 114.778 104.872 114.05 105.628 113.894C106.383 113.739 107.111 114.222 107.267 114.978Z" fill="#1A1336"/>
<path d="M101.361 112.756C101.517 113.511 101.033 114.239 100.278 114.395C99.5223 114.55 98.7945 114.067 98.639 113.311C98.4834 112.556 98.9667 111.828 99.7223 111.672C100.478 111.517 101.206 112 101.361 112.756Z" fill="#1A1336"/>
<path d="M95.4613 110.533C95.6169 111.289 95.1335 112.017 94.378 112.172C93.6224 112.328 92.8946 111.844 92.7391 111.089C92.5835 110.333 93.0669 109.606 93.8224 109.45C94.578 109.294 95.3057 109.778 95.4613 110.533Z" fill="#1A1336"/>
<path d="M89.5611 108.317C89.7167 109.072 89.2334 109.8 88.4778 109.956C87.7222 110.111 86.9945 109.628 86.8389 108.872C86.6834 108.117 87.1667 107.389 87.9222 107.233C88.6778 107.078 89.4056 107.561 89.5611 108.317Z" fill="#1A1336"/>
<path d="M83.6612 106.094C83.8168 106.85 83.3335 107.578 82.5779 107.733C81.8224 107.889 81.0946 107.406 80.939 106.65C80.7835 105.894 81.2668 105.167 82.0224 105.011C82.7779 104.856 83.5057 105.339 83.6612 106.094Z" fill="#1A1336"/>
<path d="M164.211 142.678C164.367 143.433 163.884 144.161 163.128 144.317C162.372 144.472 161.645 143.989 161.489 143.233C161.334 142.478 161.817 141.75 162.572 141.595C163.328 141.439 164.056 141.922 164.211 142.678Z" fill="#1A1336"/>
<path d="M158.311 140.456C158.467 141.211 157.983 141.939 157.228 142.094C156.472 142.25 155.744 141.767 155.589 141.011C155.433 140.256 155.917 139.528 156.672 139.372C157.428 139.217 158.156 139.7 158.311 140.456Z" fill="#1A1336"/>
<path d="M152.411 138.233C152.567 138.989 152.083 139.717 151.328 139.872C150.572 140.028 149.845 139.544 149.689 138.789C149.533 138.033 150.017 137.306 150.772 137.15C151.528 136.994 152.256 137.478 152.411 138.233Z" fill="#1A1336"/>
<path d="M146.511 136.011C146.667 136.767 146.183 137.494 145.428 137.65C144.672 137.806 143.944 137.322 143.789 136.567C143.633 135.811 144.117 135.083 144.872 134.928C145.628 134.772 146.356 135.256 146.511 136.011Z" fill="#1A1336"/>
<path d="M140.606 133.794C140.761 134.55 140.278 135.278 139.522 135.433C138.767 135.589 138.039 135.106 137.883 134.35C137.728 133.594 138.211 132.867 138.967 132.711C139.722 132.556 140.45 133.039 140.606 133.794Z" fill="#1A1336"/>
<path d="M134.706 131.572C134.861 132.328 134.378 133.056 133.622 133.211C132.867 133.367 132.139 132.883 131.983 132.128C131.828 131.372 132.311 130.644 133.067 130.489C133.822 130.333 134.55 130.817 134.706 131.572Z" fill="#1A1336"/>
<path d="M128.806 129.35C128.961 130.106 128.478 130.833 127.722 130.989C126.967 131.144 126.239 130.661 126.084 129.906C125.928 129.15 126.411 128.422 127.167 128.267C127.922 128.111 128.65 128.594 128.806 129.35Z" fill="#1A1336"/>
<path d="M122.906 127.128C123.061 127.883 122.578 128.611 121.822 128.767C121.067 128.922 120.339 128.439 120.183 127.683C120.028 126.928 120.511 126.2 121.267 126.044C122.022 125.889 122.75 126.372 122.906 127.128Z" fill="#1A1336"/>
<path d="M117 124.906C117.156 125.661 116.672 126.389 115.917 126.544C115.161 126.7 114.433 126.217 114.278 125.461C114.122 124.706 114.606 123.978 115.361 123.822C116.117 123.667 116.845 124.15 117 124.906Z" fill="#1A1336"/>
<path d="M111.1 122.683C111.256 123.439 110.772 124.167 110.017 124.322C109.261 124.478 108.534 123.994 108.378 123.239C108.222 122.483 108.706 121.756 109.461 121.6C110.217 121.444 110.945 121.928 111.1 122.683Z" fill="#1A1336"/>
<path d="M105.2 120.467C105.356 121.222 104.872 121.95 104.117 122.106C103.361 122.261 102.633 121.778 102.478 121.022C102.322 120.267 102.806 119.539 103.561 119.383C104.317 119.228 105.044 119.711 105.2 120.467Z" fill="#1A1336"/>
<path d="M99.3002 118.245C99.4557 119 98.9724 119.728 98.2168 119.883C97.4613 120.039 96.7335 119.556 96.5779 118.8C96.4224 118.045 96.9057 117.317 97.6613 117.161C98.4168 117.006 99.1446 117.489 99.3002 118.245Z" fill="#1A1336"/>
<path d="M93.3946 116.022C93.5502 116.778 93.0669 117.506 92.3113 117.661C91.5557 117.817 90.828 117.333 90.6724 116.578C90.5169 115.822 91.0002 115.094 91.7557 114.939C92.5113 114.783 93.2391 115.267 93.3946 116.022Z" fill="#1A1336"/>
<path d="M87.4945 113.8C87.65 114.556 87.1667 115.283 86.4112 115.439C85.6556 115.595 84.9278 115.111 84.7723 114.356C84.6167 113.6 85.1 112.872 85.8556 112.717C86.6112 112.561 87.3389 113.045 87.4945 113.8Z" fill="#1A1336"/>
<path d="M81.5946 111.578C81.7501 112.333 81.2668 113.061 80.5113 113.217C79.7557 113.372 79.0279 112.889 78.8724 112.133C78.7168 111.378 79.2001 110.65 79.9557 110.494C80.7113 110.339 81.439 110.822 81.5946 111.578Z" fill="#1A1336"/>
<path d="M75.6947 109.356C75.8502 110.111 75.3669 110.839 74.6113 110.994C73.8558 111.15 73.128 110.667 72.9725 109.911C72.8169 109.156 73.3002 108.428 74.0558 108.272C74.8113 108.117 75.5391 108.6 75.6947 109.356Z" fill="#1A1336"/>
<path d="M162.15 148.161C162.306 148.917 161.822 149.644 161.067 149.8C160.311 149.956 159.583 149.472 159.428 148.717C159.272 147.961 159.756 147.233 160.511 147.078C161.267 146.922 161.994 147.406 162.15 148.161Z" fill="#1A1336"/>
<path d="M156.244 145.944C156.4 146.7 155.917 147.428 155.161 147.583C154.406 147.739 153.678 147.256 153.522 146.5C153.367 145.744 153.85 145.017 154.606 144.861C155.361 144.706 156.089 145.189 156.244 145.944Z" fill="#1A1336"/>
<path d="M150.345 143.722C150.5 144.478 150.017 145.206 149.261 145.361C148.506 145.517 147.778 145.033 147.622 144.278C147.467 143.522 147.95 142.795 148.706 142.639C149.461 142.483 150.189 142.967 150.345 143.722Z" fill="#1A1336"/>
<path d="M144.445 141.5C144.6 142.256 144.117 142.983 143.361 143.139C142.606 143.294 141.878 142.811 141.722 142.056C141.567 141.3 142.05 140.572 142.806 140.417C143.561 140.261 144.289 140.744 144.445 141.5Z" fill="#1A1336"/>
<path d="M138.545 139.278C138.7 140.033 138.217 140.761 137.461 140.917C136.706 141.072 135.978 140.589 135.822 139.833C135.667 139.078 136.15 138.35 136.906 138.195C137.661 138.039 138.389 138.522 138.545 139.278Z" fill="#1A1336"/>
<path d="M132.639 137.056C132.795 137.811 132.311 138.539 131.556 138.694C130.8 138.85 130.072 138.367 129.917 137.611C129.761 136.856 130.245 136.128 131 135.972C131.756 135.817 132.483 136.3 132.639 137.056Z" fill="#1A1336"/>
<path d="M126.739 134.833C126.895 135.589 126.411 136.317 125.656 136.472C124.9 136.628 124.172 136.144 124.017 135.389C123.861 134.633 124.345 133.906 125.1 133.75C125.856 133.594 126.584 134.078 126.739 134.833Z" fill="#1A1336"/>
<path d="M120.839 132.611C120.995 133.367 120.511 134.094 119.756 134.25C119 134.406 118.272 133.922 118.117 133.167C117.961 132.411 118.445 131.683 119.2 131.528C119.956 131.372 120.683 131.856 120.839 132.611Z" fill="#1A1336"/>
<path d="M114.939 130.394C115.095 131.15 114.611 131.878 113.856 132.033C113.1 132.189 112.372 131.706 112.217 130.95C112.061 130.194 112.545 129.467 113.3 129.311C114.056 129.156 114.784 129.639 114.939 130.394Z" fill="#1A1336"/>
<path d="M109.034 128.172C109.189 128.928 108.706 129.656 107.95 129.811C107.195 129.967 106.467 129.483 106.311 128.728C106.156 127.972 106.639 127.244 107.395 127.089C108.15 126.933 108.878 127.417 109.034 128.172Z" fill="#1A1336"/>
<path d="M103.133 125.95C103.289 126.706 102.806 127.433 102.05 127.589C101.295 127.745 100.567 127.261 100.411 126.506C100.256 125.75 100.739 125.022 101.495 124.867C102.25 124.711 102.978 125.195 103.133 125.95Z" fill="#1A1336"/>
<path d="M97.2335 123.728C97.3891 124.483 96.9057 125.211 96.1502 125.367C95.3946 125.522 94.6668 125.039 94.5113 124.283C94.3557 123.528 94.8391 122.8 95.5946 122.644C96.3502 122.489 97.078 122.972 97.2335 123.728Z" fill="#1A1336"/>
<path d="M91.3334 121.506C91.4889 122.261 91.0056 122.989 90.25 123.145C89.4945 123.3 88.7667 122.817 88.6111 122.061C88.4556 121.306 88.9389 120.578 89.6945 120.422C90.45 120.267 91.1778 120.75 91.3334 121.506Z" fill="#1A1336"/>
<path d="M85.4335 119.283C85.589 120.039 85.1057 120.767 84.3501 120.922C83.5946 121.078 82.8668 120.594 82.7112 119.839C82.5557 119.083 83.039 118.356 83.7946 118.2C84.5501 118.044 85.2779 118.528 85.4335 119.283Z" fill="#1A1336"/>
<path d="M79.5279 117.061C79.6835 117.817 79.2002 118.545 78.4446 118.7C77.689 118.856 76.9613 118.372 76.8057 117.617C76.6502 116.861 77.1335 116.133 77.889 115.978C78.6446 115.822 79.3724 116.306 79.5279 117.061Z" fill="#1A1336"/>
<path d="M73.6278 114.844C73.7833 115.6 73.3 116.328 72.5445 116.483C71.7889 116.639 71.0611 116.156 70.9056 115.4C70.75 114.644 71.2333 113.917 71.9889 113.761C72.7445 113.606 73.4722 114.089 73.6278 114.844Z" fill="#1A1336"/>
<path d="M67.7279 112.622C67.8834 113.378 67.4001 114.106 66.6446 114.261C65.889 114.417 65.1612 113.933 65.0057 113.178C64.8501 112.422 65.3334 111.694 66.089 111.539C66.8446 111.383 67.5723 111.867 67.7279 112.622Z" fill="#1A1336"/>
<path d="M160.083 153.65C160.239 154.406 159.756 155.133 159 155.289C158.244 155.444 157.517 154.961 157.361 154.206C157.206 153.45 157.689 152.722 158.444 152.567C159.2 152.411 159.928 152.894 160.083 153.65Z" fill="#1A1336"/>
<path d="M166.045 155.894C166.2 156.65 165.717 157.378 164.961 157.533C164.206 157.689 163.478 157.206 163.322 156.45C163.167 155.694 163.65 154.967 164.406 154.811C165.161 154.656 165.889 155.139 166.045 155.894Z" fill="#1A1336"/>
<path d="M154.183 151.428C154.339 152.183 153.856 152.911 153.1 153.067C152.345 153.222 151.617 152.739 151.461 151.983C151.306 151.228 151.789 150.5 152.545 150.344C153.3 150.189 154.028 150.672 154.183 151.428Z" fill="#1A1336"/>
<path d="M148.278 149.206C148.433 149.961 147.95 150.689 147.195 150.844C146.439 151 145.711 150.517 145.556 149.761C145.4 149.006 145.884 148.278 146.639 148.122C147.395 147.967 148.122 148.45 148.278 149.206Z" fill="#1A1336"/>
<path d="M142.378 146.983C142.533 147.739 142.05 148.467 141.294 148.622C140.539 148.778 139.811 148.294 139.656 147.539C139.5 146.783 139.983 146.056 140.739 145.9C141.494 145.744 142.222 146.228 142.378 146.983Z" fill="#1A1336"/>
<path d="M136.478 144.761C136.633 145.517 136.15 146.244 135.395 146.4C134.639 146.556 133.911 146.072 133.756 145.317C133.6 144.561 134.083 143.833 134.839 143.678C135.595 143.522 136.322 144.006 136.478 144.761Z" fill="#1A1336"/>
<path d="M130.578 142.544C130.734 143.3 130.25 144.028 129.495 144.183C128.739 144.339 128.011 143.856 127.856 143.1C127.7 142.344 128.184 141.617 128.939 141.461C129.695 141.306 130.422 141.789 130.578 142.544Z" fill="#1A1336"/>
<path d="M124.672 140.322C124.828 141.078 124.344 141.806 123.589 141.961C122.833 142.117 122.106 141.633 121.95 140.878C121.794 140.122 122.278 139.394 123.033 139.239C123.789 139.083 124.517 139.567 124.672 140.322Z" fill="#1A1336"/>
<path d="M118.772 138.1C118.928 138.856 118.445 139.583 117.689 139.739C116.933 139.894 116.206 139.411 116.05 138.656C115.895 137.9 116.378 137.172 117.133 137.017C117.889 136.861 118.617 137.344 118.772 138.1Z" fill="#1A1336"/>
<path d="M112.872 135.878C113.028 136.633 112.545 137.361 111.789 137.517C111.034 137.672 110.306 137.189 110.15 136.433C109.995 135.678 110.478 134.95 111.234 134.794C111.989 134.639 112.717 135.122 112.872 135.878Z" fill="#1A1336"/>
<path d="M106.972 133.656C107.128 134.411 106.645 135.139 105.889 135.295C105.133 135.45 104.406 134.967 104.25 134.211C104.094 133.456 104.578 132.728 105.333 132.572C106.089 132.417 106.817 132.9 106.972 133.656Z" fill="#1A1336"/>
<path d="M101.072 131.433C101.228 132.189 100.745 132.917 99.989 133.072C99.2335 133.228 98.5057 132.744 98.3501 131.989C98.1946 131.233 98.6779 130.506 99.4335 130.35C100.189 130.194 100.917 130.678 101.072 131.433Z" fill="#1A1336"/>
<path d="M95.1669 129.211C95.3224 129.967 94.8391 130.694 94.0835 130.85C93.328 131.006 92.6002 130.522 92.4446 129.767C92.2891 129.011 92.7724 128.283 93.528 128.128C94.2835 127.972 95.0113 128.456 95.1669 129.211Z" fill="#1A1336"/>
<path d="M89.2667 126.995C89.4223 127.75 88.9389 128.478 88.1834 128.633C87.4278 128.789 86.7 128.306 86.5445 127.55C86.3889 126.795 86.8723 126.067 87.6278 125.911C88.3834 125.756 89.1112 126.239 89.2667 126.995Z" fill="#1A1336"/>
<path d="M83.3668 124.772C83.5224 125.528 83.039 126.256 82.2835 126.411C81.5279 126.567 80.8001 126.083 80.6446 125.328C80.489 124.572 80.9724 123.844 81.7279 123.689C82.4835 123.533 83.2112 124.017 83.3668 124.772Z" fill="#1A1336"/>
<path d="M77.4667 122.55C77.6222 123.306 77.1389 124.033 76.3833 124.189C75.6278 124.345 74.9 123.861 74.7444 123.106C74.5889 122.35 75.0722 121.622 75.8278 121.467C76.5833 121.311 77.3111 121.795 77.4667 122.55Z" fill="#1A1336"/>
<path d="M71.5611 120.328C71.7167 121.083 71.2334 121.811 70.4778 121.967C69.7223 122.122 68.9945 121.639 68.8389 120.883C68.6834 120.128 69.1667 119.4 69.9222 119.244C70.6778 119.089 71.4056 119.572 71.5611 120.328Z" fill="#1A1336"/>
<path d="M65.6612 118.106C65.8168 118.861 65.3335 119.589 64.5779 119.744C63.8224 119.9 63.0946 119.417 62.939 118.661C62.7835 117.906 63.2668 117.178 64.0224 117.022C64.7779 116.867 65.5057 117.35 65.6612 118.106Z" fill="#1A1336"/>
<path d="M59.7557 115.883C59.9113 116.639 59.4279 117.367 58.6724 117.522C57.9168 117.678 57.1891 117.194 57.0335 116.439C56.8779 115.683 57.3613 114.956 58.1168 114.8C58.8724 114.644 59.6002 115.128 59.7557 115.883Z" fill="#1A1336"/>
<path d="M158.022 159.128C158.178 159.883 157.695 160.611 156.939 160.767C156.183 160.922 155.456 160.439 155.3 159.683C155.145 158.928 155.628 158.2 156.383 158.044C157.139 157.889 157.867 158.372 158.022 159.128Z" fill="#1A1336"/>
<path d="M163.984 161.372C164.139 162.128 163.656 162.856 162.9 163.011C162.145 163.167 161.417 162.683 161.261 161.928C161.106 161.172 161.589 160.444 162.345 160.289C163.1 160.133 163.828 160.617 163.984 161.372Z" fill="#1A1336"/>
<path d="M152.117 156.906C152.272 157.661 151.789 158.389 151.033 158.544C150.278 158.7 149.55 158.217 149.395 157.461C149.239 156.706 149.722 155.978 150.478 155.822C151.233 155.667 151.961 156.15 152.117 156.906Z" fill="#1A1336"/>
<path d="M146.217 154.683C146.372 155.439 145.889 156.167 145.133 156.322C144.378 156.478 143.65 155.994 143.494 155.239C143.339 154.483 143.822 153.756 144.578 153.6C145.333 153.444 146.061 153.928 146.217 154.683Z" fill="#1A1336"/>
<path d="M140.317 152.467C140.472 153.222 139.989 153.95 139.233 154.106C138.478 154.261 137.75 153.778 137.595 153.022C137.439 152.267 137.922 151.539 138.678 151.383C139.433 151.228 140.161 151.711 140.317 152.467Z" fill="#1A1336"/>
<path d="M134.417 150.245C134.572 151 134.089 151.728 133.334 151.883C132.578 152.039 131.85 151.556 131.695 150.8C131.539 150.045 132.022 149.317 132.778 149.161C133.534 149.006 134.261 149.489 134.417 150.245Z" fill="#1A1336"/>
<path d="M128.511 148.022C128.667 148.778 128.184 149.506 127.428 149.661C126.672 149.817 125.945 149.333 125.789 148.578C125.634 147.822 126.117 147.094 126.872 146.939C127.628 146.783 128.356 147.267 128.511 148.022Z" fill="#1A1336"/>
<path d="M122.611 145.8C122.767 146.556 122.283 147.283 121.528 147.439C120.772 147.595 120.045 147.111 119.889 146.356C119.733 145.6 120.217 144.872 120.972 144.717C121.728 144.561 122.456 145.045 122.611 145.8Z" fill="#1A1336"/>
<path d="M116.711 143.578C116.867 144.333 116.384 145.061 115.628 145.217C114.872 145.372 114.145 144.889 113.989 144.133C113.834 143.378 114.317 142.65 115.072 142.494C115.828 142.339 116.556 142.822 116.711 143.578Z" fill="#1A1336"/>
<path d="M110.811 141.356C110.967 142.111 110.483 142.839 109.728 142.994C108.972 143.15 108.244 142.667 108.089 141.911C107.933 141.156 108.417 140.428 109.172 140.272C109.928 140.117 110.656 140.6 110.811 141.356Z" fill="#1A1336"/>
<path d="M104.906 139.139C105.061 139.894 104.578 140.622 103.822 140.778C103.067 140.933 102.339 140.45 102.183 139.694C102.028 138.939 102.511 138.211 103.267 138.056C104.022 137.9 104.75 138.383 104.906 139.139Z" fill="#1A1336"/>
<path d="M99.0057 136.917C99.1613 137.672 98.6779 138.4 97.9224 138.556C97.1668 138.711 96.4391 138.228 96.2835 137.472C96.1279 136.717 96.6113 135.989 97.3668 135.833C98.1224 135.678 98.8502 136.161 99.0057 136.917Z" fill="#1A1336"/>
<path d="M93.1056 134.694C93.2611 135.45 92.7778 136.178 92.0222 136.333C91.2667 136.489 90.5389 136.006 90.3834 135.25C90.2278 134.494 90.7111 133.767 91.4667 133.611C92.2222 133.456 92.95 133.939 93.1056 134.694Z" fill="#1A1336"/>
<path d="M87.2057 132.472C87.3612 133.228 86.8779 133.956 86.1223 134.111C85.3668 134.267 84.639 133.783 84.4835 133.028C84.3279 132.272 84.8112 131.545 85.5668 131.389C86.3223 131.233 87.0501 131.717 87.2057 132.472Z" fill="#1A1336"/>
<path d="M81.3058 130.25C81.4613 131.006 80.978 131.733 80.2224 131.889C79.4669 132.044 78.7391 131.561 78.5835 130.806C78.428 130.05 78.9113 129.322 79.6669 129.167C80.4224 129.011 81.1502 129.494 81.3058 130.25Z" fill="#1A1336"/>
<path d="M75.4 128.028C75.5556 128.783 75.0722 129.511 74.3167 129.667C73.5611 129.822 72.8333 129.339 72.6778 128.583C72.5222 127.828 73.0056 127.1 73.7611 126.945C74.5167 126.789 75.2445 127.272 75.4 128.028Z" fill="#1A1336"/>
<path d="M69.5001 125.806C69.6557 126.561 69.1723 127.289 68.4168 127.444C67.6612 127.6 66.9334 127.117 66.7779 126.361C66.6223 125.606 67.1057 124.878 67.8612 124.722C68.6168 124.567 69.3446 125.05 69.5001 125.806Z" fill="#1A1336"/>
<path d="M63.6002 123.589C63.7558 124.344 63.2724 125.072 62.5169 125.228C61.7613 125.383 61.0335 124.9 60.878 124.144C60.7224 123.389 61.2058 122.661 61.9613 122.506C62.7169 122.35 63.4446 122.833 63.6002 123.589Z" fill="#1A1336"/>
<path d="M57.6944 121.361C57.85 122.117 57.3667 122.844 56.6111 123C55.8556 123.156 55.1278 122.672 54.9722 121.917C54.8167 121.161 55.3 120.433 56.0556 120.278C56.8111 120.122 57.5389 120.606 57.6944 121.361Z" fill="#1A1336"/>
<path d="M51.7889 119.144C51.9445 119.9 51.4611 120.628 50.7056 120.783C49.95 120.939 49.2223 120.456 49.0667 119.7C48.9111 118.944 49.3945 118.217 50.15 118.061C50.9056 117.906 51.6334 118.389 51.7889 119.144Z" fill="#1A1336"/>
<path d="M155.956 164.617C156.111 165.372 155.628 166.1 154.872 166.256C154.117 166.411 153.389 165.928 153.233 165.172C153.078 164.417 153.561 163.689 154.317 163.533C155.072 163.378 155.8 163.861 155.956 164.617Z" fill="#1A1336"/>
<path d="M161.917 166.861C162.072 167.617 161.589 168.344 160.834 168.5C160.078 168.656 159.35 168.172 159.195 167.417C159.039 166.661 159.522 165.933 160.278 165.778C161.034 165.622 161.761 166.106 161.917 166.861Z" fill="#1A1336"/>
<path d="M150.056 162.394C150.211 163.15 149.728 163.878 148.972 164.033C148.217 164.189 147.489 163.706 147.334 162.95C147.178 162.194 147.661 161.467 148.417 161.311C149.172 161.156 149.9 161.639 150.056 162.394Z" fill="#1A1336"/>
<path d="M144.15 160.172C144.306 160.928 143.822 161.656 143.067 161.811C142.311 161.967 141.583 161.483 141.428 160.728C141.272 159.972 141.756 159.244 142.511 159.089C143.267 158.933 143.994 159.417 144.15 160.172Z" fill="#1A1336"/>
<path d="M138.25 157.95C138.406 158.706 137.922 159.433 137.167 159.589C136.411 159.744 135.683 159.261 135.528 158.506C135.372 157.75 135.856 157.022 136.611 156.867C137.367 156.711 138.095 157.194 138.25 157.95Z" fill="#1A1336"/>
<path d="M132.35 155.728C132.506 156.483 132.022 157.211 131.267 157.367C130.511 157.522 129.784 157.039 129.628 156.283C129.472 155.528 129.956 154.8 130.711 154.644C131.467 154.489 132.195 154.972 132.35 155.728Z" fill="#1A1336"/>
<path d="M126.45 153.506C126.606 154.261 126.122 154.989 125.367 155.144C124.611 155.3 123.883 154.817 123.728 154.061C123.572 153.306 124.056 152.578 124.811 152.422C125.567 152.267 126.295 152.75 126.45 153.506Z" fill="#1A1336"/>
<path d="M120.55 151.283C120.706 152.039 120.222 152.767 119.467 152.922C118.711 153.078 117.983 152.594 117.828 151.839C117.672 151.083 118.156 150.356 118.911 150.2C119.667 150.044 120.395 150.528 120.55 151.283Z" fill="#1A1336"/>
<path d="M114.645 149.067C114.8 149.822 114.317 150.55 113.561 150.706C112.806 150.861 112.078 150.378 111.922 149.622C111.767 148.867 112.25 148.139 113.006 147.983C113.761 147.828 114.489 148.311 114.645 149.067Z" fill="#1A1336"/>
<path d="M108.744 146.844C108.9 147.6 108.417 148.328 107.661 148.483C106.906 148.639 106.178 148.156 106.022 147.4C105.867 146.644 106.35 145.917 107.106 145.761C107.861 145.606 108.589 146.089 108.744 146.844Z" fill="#1A1336"/>
<path d="M102.845 144.622C103 145.378 102.517 146.106 101.761 146.261C101.006 146.417 100.278 145.933 100.122 145.178C99.9668 144.422 100.45 143.694 101.206 143.539C101.961 143.383 102.689 143.867 102.845 144.622Z" fill="#1A1336"/>
<path d="M96.9447 142.4C97.1002 143.156 96.6169 143.883 95.8613 144.039C95.1058 144.194 94.378 143.711 94.2225 142.956C94.0669 142.2 94.5502 141.472 95.3058 141.317C96.0613 141.161 96.7891 141.644 96.9447 142.4Z" fill="#1A1336"/>
<path d="M91.0389 140.178C91.1945 140.933 90.7111 141.661 89.9556 141.817C89.2 141.972 88.4723 141.489 88.3167 140.733C88.1611 139.978 88.6445 139.25 89.4 139.095C90.1556 138.939 90.8834 139.422 91.0389 140.178Z" fill="#1A1336"/>
<path d="M85.139 137.956C85.2946 138.711 84.8112 139.439 84.0557 139.594C83.3001 139.75 82.5724 139.267 82.4168 138.511C82.2612 137.756 82.7446 137.028 83.5001 136.872C84.2557 136.717 84.9835 137.2 85.139 137.956Z" fill="#1A1336"/>
<path d="M79.2391 135.733C79.3947 136.489 78.9113 137.217 78.1558 137.372C77.4002 137.528 76.6725 137.044 76.5169 136.289C76.3613 135.533 76.8447 134.806 77.6002 134.65C78.3558 134.494 79.0836 134.978 79.2391 135.733Z" fill="#1A1336"/>
<path d="M73.339 133.517C73.4945 134.272 73.0112 135 72.2556 135.156C71.5001 135.311 70.7723 134.828 70.6168 134.072C70.4612 133.317 70.9445 132.589 71.7001 132.433C72.4556 132.278 73.1834 132.761 73.339 133.517Z" fill="#1A1336"/>
<path d="M67.4335 131.294C67.589 132.05 67.1057 132.778 66.3501 132.933C65.5946 133.089 64.8668 132.606 64.7112 131.85C64.5557 131.094 65.039 130.367 65.7946 130.211C66.5501 130.056 67.2779 130.539 67.4335 131.294Z" fill="#1A1336"/>
<path d="M61.5336 129.072C61.6891 129.828 61.2058 130.556 60.4502 130.711C59.6947 130.867 58.9669 130.383 58.8113 129.628C58.6558 128.872 59.1391 128.144 59.8947 127.989C60.6502 127.833 61.378 128.317 61.5336 129.072Z" fill="#1A1336"/>
<path d="M55.6278 126.85C55.7833 127.606 55.3 128.333 54.5445 128.489C53.7889 128.644 53.0611 128.161 52.9056 127.406C52.75 126.65 53.2333 125.922 53.9889 125.767C54.7445 125.611 55.4722 126.094 55.6278 126.85Z" fill="#1A1336"/>
<path d="M49.7279 124.628C49.8834 125.383 49.4001 126.111 48.6446 126.267C47.889 126.422 47.1612 125.939 47.0057 125.183C46.8501 124.428 47.3334 123.7 48.089 123.544C48.8446 123.389 49.5723 123.872 49.7279 124.628Z" fill="#1A1336"/>
<path d="M160.967 115.867C161.122 116.622 160.639 117.35 159.883 117.506C159.128 117.661 158.4 117.178 158.244 116.422C158.089 115.667 158.572 114.939 159.328 114.783C160.083 114.628 160.811 115.111 160.967 115.867Z" fill="#1A1336"/>
<path d="M155.067 113.644C155.222 114.4 154.739 115.128 153.983 115.283C153.228 115.439 152.5 114.956 152.345 114.2C152.189 113.444 152.672 112.717 153.428 112.561C154.183 112.406 154.911 112.889 155.067 113.644Z" fill="#1A1336"/>
<path d="M149.167 111.422C149.322 112.178 148.839 112.906 148.084 113.061C147.328 113.217 146.6 112.733 146.445 111.978C146.289 111.222 146.772 110.494 147.528 110.339C148.284 110.183 149.011 110.667 149.167 111.422Z" fill="#1A1336"/>
<path d="M143.261 109.2C143.417 109.956 142.934 110.683 142.178 110.839C141.422 110.995 140.695 110.511 140.539 109.756C140.384 109 140.867 108.272 141.622 108.117C142.378 107.961 143.106 108.445 143.261 109.2Z" fill="#1A1336"/>
<path d="M137.361 106.978C137.517 107.733 137.033 108.461 136.278 108.617C135.522 108.772 134.795 108.289 134.639 107.533C134.483 106.778 134.967 106.05 135.722 105.894C136.478 105.739 137.206 106.222 137.361 106.978Z" fill="#1A1336"/>
<path d="M131.461 104.761C131.617 105.517 131.134 106.244 130.378 106.4C129.622 106.556 128.895 106.072 128.739 105.317C128.584 104.561 129.067 103.833 129.822 103.678C130.578 103.522 131.306 104.006 131.461 104.761Z" fill="#1A1336"/>
<path d="M125.561 102.539C125.717 103.295 125.233 104.022 124.478 104.178C123.722 104.333 122.994 103.85 122.839 103.095C122.683 102.339 123.167 101.611 123.922 101.456C124.678 101.3 125.406 101.783 125.561 102.539Z" fill="#1A1336"/>
<path d="M119.656 100.317C119.811 101.072 119.328 101.8 118.572 101.956C117.817 102.111 117.089 101.628 116.933 100.872C116.778 100.117 117.261 99.3889 118.017 99.2333C118.772 99.0778 119.5 99.5611 119.656 100.317Z" fill="#1A1336"/>
<path d="M113.756 98.0945C113.911 98.8501 113.428 99.5778 112.672 99.7334C111.917 99.8889 111.189 99.4056 111.033 98.6501C110.878 97.8945 111.361 97.1667 112.117 97.0112C112.872 96.8556 113.6 97.3389 113.756 98.0945Z" fill="#1A1336"/>
<path d="M107.856 95.8722C108.011 96.6278 107.528 97.3555 106.772 97.5111C106.017 97.6667 105.289 97.1833 105.133 96.4278C104.978 95.6722 105.461 94.9444 106.217 94.7889C106.972 94.6333 107.7 95.1167 107.856 95.8722Z" fill="#1A1336"/>
<path d="M157.428 107.733C157.583 108.489 157.1 109.217 156.345 109.372C155.589 109.528 154.861 109.045 154.706 108.289C154.55 107.533 155.033 106.806 155.789 106.65C156.545 106.495 157.272 106.978 157.428 107.733Z" fill="#1A1336"/>
<path d="M151.528 105.511C151.683 106.267 151.2 106.994 150.445 107.15C149.689 107.306 148.961 106.822 148.806 106.067C148.65 105.311 149.133 104.583 149.889 104.428C150.645 104.272 151.372 104.756 151.528 105.511Z" fill="#1A1336"/>
<path d="M145.628 103.289C145.783 104.045 145.3 104.772 144.544 104.928C143.789 105.083 143.061 104.6 142.906 103.845C142.75 103.089 143.233 102.361 143.989 102.206C144.744 102.05 145.472 102.533 145.628 103.289Z" fill="#1A1336"/>
<path d="M139.722 101.067C139.878 101.822 139.394 102.55 138.639 102.706C137.883 102.861 137.156 102.378 137 101.622C136.844 100.867 137.328 100.139 138.083 99.9833C138.839 99.8278 139.567 100.311 139.722 101.067Z" fill="#1A1336"/>
<path d="M133.822 98.8445C133.978 99.6 133.495 100.328 132.739 100.483C131.983 100.639 131.256 100.156 131.1 99.4C130.945 98.6445 131.428 97.9167 132.183 97.7612C132.939 97.6056 133.667 98.0889 133.822 98.8445Z" fill="#1A1336"/>
<path d="M127.922 96.6222C128.078 97.3778 127.594 98.1055 126.839 98.2611C126.083 98.4166 125.356 97.9333 125.2 97.1778C125.044 96.4222 125.528 95.6944 126.283 95.5389C127.039 95.3833 127.767 95.8666 127.922 96.6222Z" fill="#1A1336"/>
<path d="M122.022 94.4C122.178 95.1556 121.695 95.8834 120.939 96.0389C120.183 96.1945 119.456 95.7111 119.3 94.9556C119.145 94.2 119.628 93.4723 120.383 93.3167C121.139 93.1611 121.867 93.6445 122.022 94.4Z" fill="#1A1336"/>
<path d="M116.117 92.1834C116.272 92.9389 115.789 93.6667 115.033 93.8223C114.278 93.9778 113.55 93.4945 113.395 92.7389C113.239 91.9834 113.722 91.2556 114.478 91.1C115.233 90.9445 115.961 91.4278 116.117 92.1834Z" fill="#1A1336"/>
<path d="M159.795 101.811C159.95 102.567 159.467 103.295 158.711 103.45C157.956 103.606 157.228 103.122 157.072 102.367C156.917 101.611 157.4 100.883 158.156 100.728C158.911 100.572 159.639 101.056 159.795 101.811Z" fill="#1A1336"/>
<path d="M153.889 99.5889C154.045 100.344 153.561 101.072 152.806 101.228C152.05 101.383 151.322 100.9 151.167 100.144C151.011 99.3889 151.495 98.6611 152.25 98.5055C153.006 98.35 153.733 98.8333 153.889 99.5889Z" fill="#1A1336"/>
<path d="M147.989 97.3667C148.145 98.1223 147.661 98.8501 146.906 99.0056C146.15 99.1612 145.422 98.6778 145.267 97.9223C145.111 97.1667 145.595 96.4389 146.35 96.2834C147.106 96.1278 147.834 96.6112 147.989 97.3667Z" fill="#1A1336"/>
<path d="M142.089 95.15C142.245 95.9056 141.761 96.6334 141.006 96.7889C140.25 96.9445 139.522 96.4611 139.367 95.7056C139.211 94.95 139.695 94.2223 140.45 94.0667C141.206 93.9111 141.933 94.3945 142.089 95.15Z" fill="#1A1336"/>
<path d="M136.189 92.9279C136.345 93.6834 135.861 94.4112 135.106 94.5668C134.35 94.7223 133.622 94.239 133.467 93.4834C133.311 92.7279 133.795 92.0001 134.55 91.8445C135.306 91.689 136.034 92.1723 136.189 92.9279Z" fill="#1A1336"/>
<path d="M130.284 90.7056C130.439 91.4611 129.956 92.1889 129.2 92.3445C128.445 92.5 127.717 92.0167 127.561 91.2611C127.406 90.5056 127.889 89.7778 128.645 89.6222C129.4 89.4667 130.128 89.95 130.284 90.7056Z" fill="#1A1336"/>
<path d="M124.383 88.4834C124.539 89.239 124.056 89.9667 123.3 90.1223C122.545 90.2778 121.817 89.7945 121.661 89.039C121.506 88.2834 121.989 87.5556 122.745 87.4001C123.5 87.2445 124.228 87.7279 124.383 88.4834Z" fill="#1A1336"/>
<path d="M156.256 93.6777C156.411 94.4333 155.928 95.1611 155.172 95.3166C154.417 95.4722 153.689 94.9889 153.533 94.2333C153.378 93.4777 153.861 92.75 154.617 92.5944C155.372 92.4389 156.1 92.9222 156.256 93.6777Z" fill="#1A1336"/>
<path d="M150.35 91.4556C150.506 92.2111 150.022 92.9389 149.267 93.0945C148.511 93.25 147.784 92.7667 147.628 92.0111C147.472 91.2556 147.956 90.5278 148.711 90.3722C149.467 90.2167 150.195 90.7 150.35 91.4556Z" fill="#1A1336"/>
<path d="M144.45 89.2334C144.606 89.989 144.122 90.7167 143.367 90.8723C142.611 91.0279 141.883 90.5445 141.728 89.789C141.572 89.0334 142.056 88.3056 142.811 88.1501C143.567 87.9945 144.295 88.4779 144.45 89.2334Z" fill="#1A1336"/>
<path d="M138.55 87.0111C138.706 87.7667 138.222 88.4945 137.467 88.65C136.711 88.8056 135.983 88.3222 135.828 87.5667C135.672 86.8111 136.156 86.0833 136.911 85.9278C137.667 85.7722 138.395 86.2556 138.55 87.0111Z" fill="#1A1336"/>
<path d="M132.645 84.7889C132.8 85.5445 132.317 86.2723 131.561 86.4278C130.806 86.5834 130.078 86.1001 129.922 85.3445C129.767 84.5889 130.25 83.8612 131.006 83.7056C131.761 83.5501 132.489 84.0334 132.645 84.7889Z" fill="#1A1336"/>
<path d="M158.617 87.7611C158.772 88.5167 158.289 89.2445 157.533 89.4C156.778 89.5556 156.05 89.0722 155.895 88.3167C155.739 87.5611 156.222 86.8333 156.978 86.6778C157.733 86.5222 158.461 87.0056 158.617 87.7611Z" fill="#1A1336"/>
<path d="M152.717 85.539C152.872 86.2945 152.389 87.0223 151.633 87.1778C150.878 87.3334 150.15 86.8501 149.994 86.0945C149.839 85.339 150.322 84.6112 151.078 84.4556C151.833 84.3001 152.561 84.7834 152.717 85.539Z" fill="#1A1336"/>
<path d="M146.811 83.3112C146.967 84.0667 146.483 84.7945 145.728 84.9501C144.972 85.1056 144.244 84.6223 144.089 83.8667C143.933 83.1112 144.417 82.3834 145.172 82.2278C145.928 82.0723 146.656 82.5556 146.811 83.3112Z" fill="#1A1336"/>
<path d="M140.911 81.0945C141.067 81.85 140.583 82.5778 139.828 82.7334C139.072 82.8889 138.345 82.4056 138.189 81.65C138.033 80.8945 138.517 80.1667 139.272 80.0112C140.028 79.8556 140.756 80.3389 140.911 81.0945Z" fill="#1A1336"/>
<path d="M155.072 79.6222C155.228 80.3778 154.745 81.1055 153.989 81.2611C153.233 81.4167 152.506 80.9333 152.35 80.1778C152.195 79.4222 152.678 78.6944 153.433 78.5389C154.189 78.3833 154.917 78.8667 155.072 79.6222Z" fill="#1A1336"/>
<path d="M149.172 77.4C149.328 78.1556 148.844 78.8834 148.089 79.0389C147.333 79.1945 146.606 78.7112 146.45 77.9556C146.294 77.2 146.778 76.4723 147.533 76.3167C148.289 76.1611 149.017 76.6445 149.172 77.4Z" fill="#1A1336"/>
<path d="M157.439 73.7056C157.595 74.4611 157.111 75.1889 156.356 75.3445C155.6 75.5 154.872 75.0167 154.717 74.2611C154.561 73.5056 155.045 72.7778 155.8 72.6222C156.556 72.4667 157.284 72.95 157.439 73.7056Z" fill="#1A1336"/>
<path d="M38.0166 83.1167V86.0112L38.1055 85.9945C37.7722 87.2056 38.5499 88.4167 40.5055 89.239C44.7388 91.0223 75.6499 102.278 75.6499 102.278L89.961 138.667L110.367 115.639C110.367 115.639 143.694 128.728 150.378 130.383C157.067 132.039 163.355 132.511 165.511 125.75C167.667 118.989 160.633 35.3778 160.633 35.3778V31.4723L38.0166 83.1167Z" fill="#1A1336"/>
<path d="M149.65 130.189C149.917 130.267 150.161 130.328 150.378 130.383C152.211 130.839 154.011 131.2 155.705 131.35V113.156H149.65V130.189Z" fill="#574E86"/>
<path d="M165.894 116.428C165.861 114.567 165.8 112.489 165.717 110.244H159.839V131.178C162.422 130.617 164.456 129.044 165.511 125.75C165.722 125.094 165.844 123.7 165.894 121.739V116.428Z" fill="#574E86"/>
<path d="M45.611 79.9166L38.011 83.1166V86.0111L38.0999 85.9944C37.7665 87.2055 38.5443 88.4166 40.4999 89.2389C41.3277 89.5889 43.1721 90.3 45.6054 91.2166V79.9222L45.611 79.9166Z" fill="#574E86"/>
<path d="M47.5222 91.9278C48.7889 92.4 50.1555 92.9111 51.5889 93.4445V77.4L47.5222 79.1111V91.9278Z" fill="#574E86"/>
<path d="M76.0667 103.333L86.1111 128.878V93.0555H76.0667V103.333Z" fill="#574E86"/>
<path d="M110.561 115.717C111.455 116.067 115.444 117.628 120.605 119.617V85.2944H110.561V115.717Z" fill="#574E86"/>
<path d="M87.2832 131.856L89.6332 137.828V98.3556H87.2832V131.856Z" fill="#574E86"/>
<path d="M89.961 139.222C89.9277 139.222 89.8943 139.222 89.8665 139.211C89.6777 139.178 89.5165 139.05 89.4443 138.867L75.2277 102.706C72.3499 101.656 44.2888 91.4278 40.2943 89.7445C38.3277 88.9167 37.311 87.6111 37.4999 86.2C37.4777 86.1389 37.4666 86.0722 37.4666 86.0056V83.1111C37.4666 82.8889 37.5999 82.6833 37.8054 82.6L160.417 30.9611C160.589 30.8889 160.783 30.9056 160.939 31.0111C161.094 31.1167 161.189 31.2889 161.189 31.4722V35.3778C161.472 38.75 168.211 119.133 166.044 125.917C163.717 133.194 156.75 132.528 150.25 130.917C143.9 129.344 114.344 117.789 110.528 116.294L90.3777 139.033C90.2721 139.156 90.1221 139.222 89.961 139.222ZM38.5721 85.6945C38.6554 85.8278 38.6832 85.9889 38.6388 86.1445C38.3721 87.1167 39.1277 88.0611 40.7221 88.7278C44.8943 90.4834 75.5332 101.644 75.8443 101.756C75.9943 101.811 76.111 101.928 76.1721 102.072L90.1499 137.622L109.955 115.272C110.111 115.1 110.361 115.039 110.572 115.122C110.905 115.256 143.939 128.217 150.517 129.844C156.828 131.406 162.944 131.972 164.989 125.583C167.089 119.006 160.155 36.2611 160.083 35.4278V32.3111L38.5721 83.4889V85.6945Z" fill="#1A1336"/>
<path d="M160.633 31.4723C160.633 31.4723 50.0721 76.9778 43.7721 78.4723C37.4777 79.9612 36.2721 83.5501 40.5055 85.3334C44.7388 87.1167 77.0055 98.8945 77.0055 98.8945L90.7999 134.089L108.85 111.528C108.939 111.417 109.039 111.317 109.133 111.211C109.039 111.317 108.939 111.417 108.85 111.528L90.7999 134.089L110.511 111.8C110.511 111.8 143.689 124.817 150.372 126.478C157.061 128.133 163.35 128.606 165.505 121.845C167.661 115.083 160.628 31.4723 160.628 31.4723H160.633Z" fill="white"/>
<g opacity="0.3">
<path d="M150.378 126.472C157.066 128.128 163.355 128.6 165.511 121.839C165.722 121.183 165.844 119.789 165.894 117.828C165.478 94.3834 160.633 36.7778 160.633 36.7778L152.5 40.1223C152.5 40.1223 50.0721 82.2889 43.7721 83.7834C42.2665 84.1389 41.0665 84.6167 40.1443 85.1612C40.261 85.2167 40.3721 85.2778 40.4998 85.3334C44.7332 87.1167 76.9998 98.8945 76.9998 98.8945L90.7943 134.089L110.505 111.8C110.505 111.8 143.683 124.817 150.367 126.478L150.378 126.472Z" fill="#00A0FF"/>
</g>
<g opacity="0.6">
<path d="M160.661 37.1056L78.0999 101.683L90.8054 134.089L110.517 111.8C110.517 111.8 110.633 111.844 110.844 111.928L160.683 37.3667C160.678 37.2667 160.667 37.1778 160.661 37.1056Z" fill="#00A0FF"/>
</g>
<g opacity="0.3">
<path d="M110.844 111.928L160.683 37.3667L90.8054 134.094L110.517 111.806C110.517 111.806 110.633 111.85 110.844 111.933V111.928Z" fill="#00A0FF"/>
</g>
<path d="M110.517 110.617L109.583 110.017L158.317 34.05L77.3555 99.3278L76.6555 98.4611L160.283 31.0389C160.494 30.8667 160.8 30.8778 161.006 31.0556C161.211 31.2389 161.25 31.5389 161.1 31.7667L110.517 110.617Z" fill="#0925D9"/>
<path d="M76.8165 99.4166C76.4943 99.2999 44.4831 87.6111 40.2887 85.8444C38.3776 85.0388 37.3498 83.7888 37.4665 82.4166C37.6276 80.4888 39.9387 78.8111 43.6442 77.9333C49.8276 76.4666 159.316 31.4166 160.422 30.9611L160.844 31.9888C156.328 33.8499 50.172 77.5333 43.8998 79.0166C40.1054 79.9166 38.6609 81.4611 38.572 82.5111C38.4998 83.3777 39.2831 84.2166 40.7165 84.8222C44.8887 86.5777 76.872 98.2555 77.1942 98.3777L76.8109 99.4222L76.8165 99.4166Z" fill="#1A1336"/>
<path d="M90.8055 134.644C90.6777 134.644 90.55 134.6 90.45 134.517C90.2166 134.322 90.1833 133.978 90.3722 133.744L108.422 111.183C108.8 110.711 109.233 110.272 109.7 109.889L110.406 110.75C109.994 111.083 109.622 111.467 109.289 111.878L105.311 116.85L110.1 111.433C110.256 111.256 110.5 111.2 110.717 111.283C111.05 111.411 143.933 124.306 150.511 125.939C156.822 127.5 162.939 128.067 164.983 121.678C167.083 115.1 160.15 32.3555 160.078 31.5222L161.183 31.4277C161.472 34.8444 168.206 115.228 166.039 122.017C163.717 129.294 156.75 128.633 150.244 127.017C143.894 125.444 114.483 113.955 110.672 112.461L91.2166 134.461C91.1055 134.583 90.9555 134.65 90.8 134.65L90.8055 134.644Z" fill="#1A1336"/>
<path d="M90.8055 134.644C90.8055 134.644 90.7499 134.644 90.7222 134.639C90.5277 134.611 90.3611 134.478 90.2888 134.294L76.4944 99.1L77.5277 98.6945L90.9722 132.994L108.422 111.183C108.8 110.711 109.233 110.272 109.7 109.889L110.405 110.75C109.994 111.083 109.622 111.467 109.289 111.878L91.2388 134.439C91.1333 134.572 90.9722 134.65 90.8055 134.65V134.644Z" fill="#1A1336"/>
<path d="M24.5667 82C24.3444 82 24.1389 81.8667 24.05 81.65C23.9389 81.3667 24.0778 81.0444 24.3611 80.9278L78.4056 59.5611C78.6889 59.45 79.0111 59.5889 79.1278 59.8722C79.2389 60.1556 79.1 60.4778 78.8167 60.5944L24.7722 81.9611C24.7056 81.9889 24.6389 82 24.5667 82Z" fill="#1A1336"/>
<path d="M21.161 87.9C20.9388 87.9 20.7332 87.7667 20.6443 87.55C20.5277 87.2667 20.6721 86.9445 20.9554 86.8278L32.4277 82.2667C32.711 82.1556 33.0332 82.2945 33.1499 82.5778C33.261 82.8611 33.1221 83.1833 32.8388 83.3L21.3666 87.8611C21.2999 87.8889 21.2277 87.9 21.161 87.9Z" fill="#1A1336"/>
<path d="M104.266 109.856C104.155 109.856 104.044 109.822 103.944 109.75C103.694 109.572 103.639 109.222 103.816 108.972L114.366 94.2278C114.544 93.9778 114.894 93.9223 115.144 94.1001C115.394 94.2778 115.45 94.6278 115.272 94.8778L104.722 109.622C104.611 109.772 104.444 109.856 104.272 109.856H104.266Z" fill="white"/>
<path d="M123.244 83.3389C123.133 83.3389 123.022 83.3055 122.922 83.2333C122.672 83.0555 122.616 82.7055 122.794 82.4555L140.978 57.0389C141.155 56.7889 141.505 56.7333 141.755 56.9111C142.005 57.0889 142.061 57.4389 141.883 57.6889L123.7 83.1055C123.589 83.2555 123.422 83.3389 123.25 83.3389H123.244Z" fill="white"/>
<path opacity="0.3" d="M165.511 121.839C163.355 128.6 157.066 128.128 150.378 126.472L150.366 126.478C146.735 125.575 135.28 121.319 125.576 117.621C125.954 110.41 131.595 100.918 151.952 97.1548C157.388 96.1498 161.696 96.7474 165.081 98.4801C165.5 105.925 165.803 112.695 165.894 117.828C165.844 119.789 165.722 121.183 165.511 121.839Z" fill="#1A1336"/>
<path d="M147.489 145.575C144.755 145.575 142.1 145.025 139.583 143.947L139 143.697L136.122 142.436L136.244 142.125L135.849 141.841C134.949 141.202 134.105 140.497 133.338 139.741C124.971 131.53 124.654 117.596 132.633 108.684C136.677 104.161 142.366 101.572 148.233 101.572C149.345 101.572 150.484 101.672 151.622 101.867L152.117 101.95L152.278 101.545L155.734 103.028C155.951 103.117 156.151 103.206 156.351 103.295L156.623 103.417C158.751 104.4 160.69 105.739 162.384 107.406C170.751 115.618 171.068 129.546 163.09 138.463C159.045 142.986 153.356 145.58 147.489 145.58V145.575Z" fill="#1A1336"/>
<path d="M132.638 108.689C132.283 109.084 131.949 109.495 131.633 109.912L168.874 123.129C168.874 122.118 168.801 121.107 168.668 120.107L133.622 107.667C133.288 107.995 132.955 108.334 132.638 108.689Z" fill="#574E86"/>
<path d="M126.86 123.64L164.334 136.941C164.912 136.169 165.429 135.369 165.896 134.546L127.077 120.768C126.943 121.723 126.871 122.679 126.86 123.64Z" fill="#574E86"/>
<path d="M136.922 105.001L167.69 115.918C167.051 114.012 166.157 112.195 165.001 110.512L142.328 102.467C140.428 103.045 138.605 103.895 136.922 105.001Z" fill="#574E86"/>
<path d="M148.239 102.194C149.317 102.194 150.423 102.289 151.523 102.478L152.517 102.65L152.628 102.367L155.523 103.611C155.717 103.689 155.912 103.778 156.117 103.867L156.29 103.939L156.367 103.978C158.429 104.928 160.312 106.234 161.957 107.845C170.09 115.823 170.396 129.374 162.634 138.046C158.706 142.436 153.189 144.952 147.495 144.952C144.85 144.952 142.272 144.419 139.839 143.374L139.416 143.197L136.933 142.108L137.016 141.902L136.227 141.341C135.355 140.719 134.533 140.035 133.788 139.308C125.655 131.329 125.349 117.779 133.111 109.106C137.039 104.717 142.556 102.2 148.25 102.2M151.95 100.728L151.739 101.261C150.595 101.067 149.428 100.961 148.25 100.961C142.206 100.961 136.35 103.628 132.183 108.284C123.988 117.445 124.316 131.763 132.916 140.202C133.727 140.997 134.594 141.719 135.5 142.363L135.338 142.774L139.35 144.53C141.9 145.625 144.661 146.202 147.5 146.202C153.545 146.202 159.401 143.536 163.568 138.88C171.763 129.718 171.435 115.401 162.834 106.961C161.073 105.233 159.062 103.856 156.895 102.856L156.612 102.733C156.406 102.644 156.201 102.55 155.99 102.467L151.95 100.728Z" fill="#1A1336"/>
<path d="M159.367 105.45C155.423 101.578 150.239 99.4445 144.783 99.4445C138.738 99.4445 132.883 102.111 128.716 106.767C120.521 115.929 120.849 130.246 129.449 138.686C133.394 142.558 138.577 144.691 144.033 144.691C150.078 144.691 155.934 142.025 160.101 137.369C168.296 128.207 167.968 113.89 159.367 105.45Z" fill="#1A1336"/>
<path d="M159.023 136.402C166.723 127.796 166.429 114.401 158.356 106.484C150.283 98.5666 137.499 99.1222 129.799 107.734C122.099 116.34 122.393 129.735 130.466 137.658C138.538 145.575 151.322 145.019 159.023 136.408V136.402Z" fill="#0925D9"/>
<path d="M136.755 130.635C136.544 130.563 136.333 130.496 136.177 130.352C136.022 130.213 135.866 130.069 135.766 129.858L130.793 120.413C130.693 120.201 130.593 119.99 130.632 119.779C130.599 119.568 130.627 119.285 130.727 119.074C130.76 118.862 130.932 118.651 131.032 118.44C131.205 118.229 131.382 118.09 131.566 117.946C131.927 117.662 132.388 117.596 132.877 117.735C133.288 117.807 133.666 118.085 133.866 118.512L138.083 126.474L155.456 115.551C155.828 115.34 156.289 115.268 156.7 115.34C157.112 115.412 157.423 115.69 157.689 116.118C157.956 116.54 157.951 116.962 157.812 117.385C157.673 117.807 157.4 118.229 157.039 118.512L137.999 130.424C137.822 130.563 137.56 130.635 137.36 130.635C137.172 130.708 136.966 130.708 136.755 130.635Z" fill="white"/>
</svg>
