<svg width="197" height="197" viewBox="0 0 197 197" fill="none" xmlns="http://www.w3.org/2000/svg">
<path d="M145.348 52.2762C145.835 52.2762 146.333 52.3363 146.842 52.3965C165.485 54.5854 195.949 83.2489 173.956 114.78C151.373 147.154 134.431 177.645 99.8024 179.527C65.1742 181.41 18.113 164.079 15.4809 127.941C12.8488 91.802 64.0414 98.9378 86.6198 91.0468C109.198 83.1559 118.791 51.1051 145.348 52.2762Z" fill="#EAEEF3"/>
<path d="M58.1424 163.702L60.4845 176.08C60.4845 176.08 68.6928 178.925 76.9011 179.429C85.1095 179.932 91.501 179.784 91.501 179.784L90.9538 168.55L58.1424 163.702Z" fill="#3E6295"/>
<path d="M86.9208 167.215L87.2546 179.762C87.2546 179.762 94.4451 180.43 105.822 178.258C117.199 176.085 121.051 173.07 121.051 173.07L120.044 160.188L86.9208 167.215Z" fill="#0A2245"/>
<path d="M59.8552 59.8059L72.0309 64.1837L122.135 63.3465C122.135 63.3465 117.62 59.8333 117.073 59.8333C116.525 59.8333 98.9651 56.6539 97.4603 56.8181C95.9554 56.9823 59.8552 59.8059 59.8552 59.8059Z" fill="#D4DCE8"/>
<path d="M106.074 53.2776C106.074 53.2776 109.357 58.0493 108.082 65.0757C106.807 72.102 126.655 74.1103 126.906 94.4342C127.158 114.758 141.134 123.327 141.709 134.589C142.841 156.423 128.915 167.466 94.5327 154.667C60.1507 141.867 71.6916 120.033 75.4565 107.737C79.2214 95.441 72.7204 89.6788 73.6999 83.8947C74.6794 78.1105 77.7165 71.5986 80.2283 69.5903C82.74 67.582 73.6999 62.066 75.7082 57.7976C77.7165 53.5293 72.6985 32.702 85.011 37.4683C97.3235 42.2346 107.578 47.0064 106.074 53.2776Z" fill="#0A2245"/>
<path d="M125.232 26.6771L119.207 17.139L117.073 59.806L121.883 63.1495L125.232 26.6771Z" fill="#BC7C12"/>
<path d="M77.9682 60.0576C77.9682 60.0576 76.9668 62.7937 83.9877 64.8239C91.0085 66.8541 88.754 70.3454 88.5022 71.5986C88.2505 72.8517 79.1995 75.6973 79.1995 77.0379C79.1995 78.3786 88.0699 80.2173 93.4272 79.7139C98.7846 79.2104 100.12 74.86 100.12 74.86C100.12 74.86 95.742 71.8503 95.742 70.1758C95.742 68.5013 95.9116 64.6543 98.4179 61.6446C100.924 58.6349 109.171 52.101 100.47 46.7547C91.7692 41.4083 84.7319 41.9008 81.5635 45.9174C78.3951 49.934 77.9682 60.0576 77.9682 60.0576Z" fill="#C8E1FF"/>
<path d="M84.0752 73.8586C84.0752 73.8586 85.2463 77.6891 89.9305 77.6891C94.6147 77.6891 98.1388 73.1746 98.1388 73.1746C98.1388 73.1746 117.127 77.6071 123.65 105.209C130.173 132.811 129.424 148.122 128.926 158.667C128.428 169.212 106.84 172.72 96.3002 171.215C85.7607 169.71 70.4494 173.721 59.1547 162.93C54.7277 158.7 55.9808 129.051 60.4954 106.468C65.01 83.8837 71.8612 75.8669 84.0752 73.8586Z" fill="#D4DCE8"/>
<path d="M105.526 76.726C104.777 76.2335 104.065 75.8067 103.392 75.4346C99.6218 78.5811 93.1974 87.1944 91.7692 107.671C89.7609 136.444 85.2463 161.71 78.0503 151.17C70.8543 140.631 76.3265 78.4498 76.042 78.893C69.0157 89.936 60.9879 129.921 60.4845 130.091C60.1671 130.195 61.3327 150.71 62.6734 165.775C73.481 172.999 86.8223 169.891 96.3056 171.248C96.8528 171.319 97.4001 171.379 97.9473 171.428C97.1867 167.412 96.3549 163.532 96.3056 163.22C96.136 162.552 99.6492 126.08 99.6492 109.849C99.6327 97.2359 103.885 82.7455 105.526 76.726Z" fill="#BFCBDC"/>
<path d="M105.324 80.8849C105.324 80.8849 123.557 91.5941 132.258 82.5594C140.959 73.5248 121.883 49.9122 120.548 46.0816C119.212 42.2511 119.88 34.7049 121.883 35.3725C123.886 36.0401 124.728 40.7243 124.072 42.2346C123.415 43.745 123.738 48.2541 125.91 48.9272C128.083 49.6002 152.347 68.5013 143.142 88.5734C133.938 108.646 110.687 104.804 106.002 101.625C101.318 98.4453 105.324 80.8849 105.324 80.8849Z" fill="#C8E1FF"/>
<path d="M56.9713 32.8661C55.1326 32.8661 53.9616 37.5558 54.7824 39.898C55.6032 42.2401 59.4666 53.2775 52.5935 60.3039C45.7204 67.3302 44.0623 80.5511 52.0901 88.0809C60.1178 95.6107 61.7978 96.1086 61.7978 96.1086L73.3387 79.38C73.3387 79.38 57.4693 76.3703 57.7812 69.3385C58.0931 62.3067 58.9522 50.9354 58.9522 50.9354L56.9713 32.8661Z" fill="#C8E1FF"/>
<path d="M81.1038 74.4879C81.1038 74.4879 73.0979 76.9121 69.7489 76.7425C66.3999 76.5728 61.4038 74.6138 61.4038 74.6138L53.0422 91.1727C53.0422 91.1727 58.6458 94.7734 58.1424 100.125C57.6389 105.477 53.2502 113.762 53.4581 140.778C53.6442 165.135 54.2954 165.874 56.6375 168.052C58.9796 170.23 67.5819 172.944 71.4453 174.115C75.3087 175.286 75.2759 167.828 74.7287 151.132C72.8626 98.7846 74.7068 81.2187 81.1038 74.4879Z" fill="#3B8EF3"/>
<path d="M103.939 75.1117C103.939 75.1117 96.2783 78.0393 93.9471 91.0906C89.542 115.634 93.9471 163.871 94.1113 168.052C94.2754 172.233 101.811 180.091 116.547 172.9C131.284 165.71 131.104 162.027 130.266 145.463C129.429 128.898 122.72 106.823 126.567 104.634C130.414 102.445 134.431 100.454 134.431 100.454L128.077 82.8877C128.077 82.8877 118.331 86.4884 103.939 75.1117Z" fill="#3B8EF3"/>
<path d="M128.077 82.8932C128.077 82.8932 118.331 86.4884 103.939 75.1117C102.415 75.8233 101.052 76.8381 99.9337 78.0941C102.5 81.1859 108.033 86.8058 114.233 86.5322C119.049 86.2841 123.763 85.0492 128.083 82.9041L128.077 82.8932Z" fill="#2479DF"/>
<path d="M123.147 169.239C131.164 163.953 130.934 159.028 130.261 145.463C129.424 128.904 122.731 106.818 126.578 104.64C130.425 102.462 134.442 100.459 134.442 100.459L133.435 97.6792C130.77 98.6916 116.175 104.793 115.869 108.405C115.535 112.339 123.563 120.033 123.563 143.454C123.585 149.698 123.289 162.673 123.147 169.239Z" fill="#2479DF"/>
<path d="M59.8552 59.806H117.073L119.207 17.139L54.1257 18.3156L59.8552 59.806Z" fill="#E8A02B"/>
<path d="M117.073 59.8059L112.219 49.2664L50.7822 49.7644L59.8552 59.8059H117.073Z" fill="#BC7C12"/>
<path d="M128.242 58.3831L121.297 48.3416L117.073 59.8059L122.135 63.3191L128.242 58.3831Z" fill="#9E680E"/>
<path d="M102.79 150.147C102.79 150.147 105.636 150.481 110.654 148.976C113.701 148.062 116.623 146.775 119.355 145.145C119.355 145.145 124.373 157.863 120.526 161.71C116.679 165.557 106.637 167.899 105.132 165.223C103.627 162.547 102.79 150.147 102.79 150.147Z" fill="#2479DF"/>
<path d="M56.3037 144.965C56.3037 144.965 59.6472 148.478 63.6638 149.145L67.6804 149.813C67.6804 149.813 69.5191 157.846 67.8446 161.693C66.1701 165.54 60.1507 164.035 57.9946 162.53C55.8386 161.026 54.6347 152.155 56.3037 144.965Z" fill="#2479DF"/>
<path d="M108.886 165.321C108.704 165.333 108.521 165.333 108.339 165.321C108.321 165.32 108.304 165.315 108.288 165.307C108.272 165.299 108.258 165.287 108.247 165.273C108.236 165.26 108.228 165.244 108.223 165.226C108.218 165.209 108.216 165.191 108.219 165.174C108.22 165.156 108.225 165.138 108.233 165.122C108.241 165.106 108.253 165.092 108.266 165.08C108.28 165.068 108.296 165.059 108.313 165.054C108.33 165.048 108.348 165.046 108.366 165.048C108.531 165.048 108.706 165.048 108.914 165.048C109.16 165.048 109.407 165.035 109.652 165.009C109.672 165.005 109.693 165.006 109.712 165.011C109.732 165.016 109.75 165.025 109.766 165.038C109.782 165.05 109.795 165.067 109.803 165.085C109.812 165.103 109.816 165.123 109.816 165.143C109.816 165.164 109.812 165.184 109.803 165.202C109.795 165.22 109.782 165.237 109.766 165.249C109.75 165.262 109.732 165.271 109.712 165.276C109.693 165.281 109.672 165.282 109.652 165.278C109.398 165.308 109.142 165.322 108.886 165.321ZM110.916 165.07C110.885 165.069 110.855 165.058 110.832 165.038C110.808 165.018 110.791 164.991 110.785 164.96C110.781 164.943 110.781 164.924 110.784 164.907C110.787 164.889 110.793 164.872 110.803 164.856C110.813 164.841 110.825 164.828 110.84 164.818C110.855 164.807 110.871 164.8 110.889 164.796C111.283 164.708 111.704 164.599 112.131 164.473C112.148 164.467 112.166 164.465 112.184 164.466C112.202 164.467 112.219 164.472 112.235 164.48C112.251 164.489 112.265 164.5 112.276 164.514C112.288 164.528 112.296 164.544 112.301 164.561C112.306 164.578 112.308 164.596 112.306 164.614C112.304 164.632 112.298 164.649 112.29 164.665C112.281 164.681 112.269 164.694 112.255 164.706C112.241 164.717 112.225 164.725 112.208 164.73C111.776 164.862 111.349 164.977 110.949 165.064L110.916 165.07ZM107.168 164.829C107.151 164.829 107.133 164.826 107.117 164.819C107.101 164.813 107.087 164.803 107.075 164.791C107.009 164.73 106.949 164.664 106.894 164.594C106.686 164.296 106.515 163.975 106.385 163.636C106.377 163.62 106.373 163.602 106.372 163.584C106.372 163.567 106.375 163.549 106.381 163.532C106.388 163.516 106.398 163.501 106.411 163.488C106.424 163.476 106.44 163.467 106.457 163.461C106.473 163.454 106.491 163.45 106.509 163.449C106.527 163.449 106.545 163.452 106.562 163.459C106.578 163.465 106.594 163.475 106.607 163.488C106.62 163.5 106.63 163.515 106.637 163.532C106.76 163.851 106.922 164.155 107.119 164.435C107.16 164.49 107.206 164.541 107.256 164.588C107.269 164.6 107.281 164.615 107.288 164.631C107.296 164.648 107.3 164.666 107.3 164.684C107.3 164.702 107.296 164.72 107.288 164.737C107.281 164.753 107.269 164.768 107.256 164.78C107.246 164.794 107.233 164.806 107.217 164.814C107.202 164.823 107.185 164.828 107.168 164.829ZM113.406 164.282C113.376 164.28 113.346 164.267 113.324 164.246C113.301 164.226 113.286 164.198 113.28 164.168C113.275 164.137 113.281 164.106 113.296 164.079C113.311 164.052 113.334 164.031 113.363 164.019C113.757 163.871 114.156 163.712 114.555 163.537C114.589 163.524 114.626 163.524 114.66 163.537C114.693 163.551 114.721 163.576 114.736 163.609C114.749 163.642 114.749 163.679 114.736 163.713C114.723 163.746 114.697 163.774 114.665 163.789C114.26 163.964 113.855 164.128 113.456 164.276L113.406 164.282ZM115.787 163.258C115.761 163.258 115.737 163.251 115.715 163.238C115.694 163.224 115.677 163.205 115.666 163.182C115.658 163.166 115.653 163.148 115.651 163.13C115.65 163.112 115.652 163.093 115.657 163.076C115.663 163.059 115.672 163.043 115.684 163.029C115.696 163.015 115.71 163.004 115.727 162.996C116.115 162.804 116.498 162.602 116.865 162.394C116.897 162.378 116.934 162.374 116.969 162.384C117.003 162.395 117.032 162.417 117.051 162.448C117.059 162.464 117.065 162.482 117.067 162.499C117.069 162.517 117.067 162.536 117.062 162.553C117.057 162.57 117.049 162.586 117.037 162.6C117.026 162.614 117.012 162.626 116.996 162.634C116.629 162.842 116.241 163.045 115.847 163.242C115.832 163.27 115.806 163.292 115.776 163.302L115.787 163.258ZM106.074 162.525C106.045 162.525 106.017 162.515 105.994 162.497C105.971 162.479 105.955 162.454 105.948 162.427C105.833 162.054 105.712 161.633 105.592 161.173C105.583 161.138 105.588 161.1 105.606 161.068C105.625 161.036 105.655 161.013 105.69 161.004C105.726 160.994 105.764 160.999 105.796 161.018C105.828 161.036 105.851 161.067 105.86 161.102C105.975 161.556 106.09 161.978 106.205 162.344C106.215 162.379 106.212 162.415 106.196 162.447C106.179 162.479 106.151 162.503 106.117 162.514L106.074 162.525ZM118.036 162.022C118.013 162.021 117.99 162.015 117.97 162.004C117.95 161.992 117.933 161.976 117.921 161.956C117.911 161.941 117.904 161.925 117.9 161.907C117.897 161.89 117.897 161.872 117.9 161.855C117.904 161.837 117.911 161.821 117.921 161.806C117.931 161.792 117.944 161.779 117.959 161.77C118.337 161.518 118.687 161.266 118.999 161.015C119.027 160.996 119.062 160.988 119.096 160.993C119.13 160.999 119.16 161.017 119.182 161.043C119.203 161.07 119.214 161.104 119.211 161.138C119.209 161.173 119.193 161.205 119.169 161.228C118.851 161.485 118.495 161.742 118.112 161.994C118.087 162.012 118.056 162.022 118.025 162.022H118.036ZM120.033 160.38C119.999 160.378 119.966 160.364 119.94 160.342C119.927 160.329 119.917 160.314 119.91 160.298C119.902 160.282 119.899 160.264 119.899 160.246C119.899 160.228 119.902 160.21 119.91 160.194C119.917 160.177 119.927 160.162 119.94 160.15C120.163 159.909 120.359 159.645 120.526 159.362C120.569 159.285 120.608 159.209 120.646 159.127C120.661 159.093 120.688 159.067 120.722 159.054C120.755 159.04 120.793 159.041 120.827 159.056C120.86 159.07 120.886 159.097 120.9 159.131C120.913 159.165 120.912 159.203 120.898 159.236C120.854 159.324 120.816 159.411 120.766 159.493C120.592 159.797 120.38 160.078 120.137 160.331C120.126 160.35 120.108 160.366 120.088 160.375C120.068 160.385 120.045 160.389 120.022 160.385L120.033 160.38ZM105.422 160.008C105.392 160.007 105.363 159.996 105.34 159.977C105.316 159.959 105.299 159.933 105.291 159.904C105.198 159.482 105.11 159.061 105.023 158.629C105.016 158.593 105.023 158.556 105.043 158.526C105.063 158.496 105.094 158.475 105.13 158.467C105.165 158.46 105.202 158.467 105.232 158.487C105.263 158.507 105.284 158.539 105.291 158.574C105.379 159.001 105.466 159.428 105.559 159.844C105.566 159.878 105.559 159.914 105.539 159.944C105.52 159.974 105.49 159.994 105.455 160.002L105.422 160.008ZM121.089 158.071C121.071 158.069 121.054 158.063 121.038 158.054C121.022 158.045 121.008 158.033 120.997 158.019C120.986 158.005 120.978 157.989 120.973 157.971C120.968 157.954 120.967 157.935 120.969 157.917C121.01 157.583 121.03 157.247 121.029 156.911C121.029 156.823 121.029 156.735 121.029 156.642C121.029 156.606 121.044 156.571 121.069 156.546C121.095 156.52 121.13 156.506 121.166 156.506C121.201 156.506 121.235 156.519 121.261 156.544C121.286 156.568 121.301 156.602 121.303 156.637C121.303 156.73 121.303 156.817 121.303 156.911C121.303 157.258 121.283 157.605 121.243 157.95C121.237 157.989 121.217 158.023 121.186 158.047C121.155 158.07 121.117 158.081 121.078 158.076L121.089 158.071ZM104.913 157.469C104.881 157.468 104.85 157.456 104.825 157.435C104.8 157.414 104.783 157.386 104.777 157.354C104.7 156.921 104.623 156.495 104.552 156.079C104.549 156.061 104.55 156.042 104.554 156.025C104.558 156.007 104.566 155.99 104.576 155.975C104.587 155.96 104.601 155.948 104.616 155.938C104.632 155.929 104.649 155.923 104.667 155.92C104.702 155.915 104.737 155.924 104.766 155.944C104.794 155.965 104.814 155.995 104.82 156.03C104.892 156.445 104.968 156.872 105.045 157.305C105.049 157.322 105.049 157.34 105.046 157.358C105.042 157.376 105.035 157.393 105.025 157.408C105.014 157.423 105.001 157.435 104.986 157.445C104.97 157.454 104.953 157.461 104.935 157.463L104.913 157.469ZM121.051 155.488C121.017 155.488 120.985 155.476 120.96 155.454C120.934 155.431 120.918 155.401 120.914 155.367C120.87 154.968 120.805 154.541 120.723 154.092C120.718 154.057 120.726 154.021 120.746 153.992C120.767 153.962 120.797 153.942 120.832 153.934C120.868 153.928 120.905 153.937 120.935 153.957C120.965 153.977 120.987 154.008 120.996 154.043C121.073 154.497 121.139 154.93 121.188 155.335C121.191 155.371 121.18 155.407 121.158 155.435C121.136 155.463 121.103 155.482 121.067 155.488H121.051ZM104.476 154.913C104.444 154.912 104.413 154.9 104.389 154.879C104.365 154.858 104.349 154.83 104.344 154.798C104.268 154.339 104.202 153.906 104.147 153.512C104.144 153.495 104.145 153.476 104.149 153.459C104.153 153.442 104.161 153.425 104.172 153.411C104.182 153.396 104.196 153.384 104.212 153.376C104.227 153.367 104.244 153.361 104.262 153.359C104.28 153.355 104.298 153.355 104.316 153.359C104.334 153.363 104.351 153.37 104.365 153.381C104.38 153.392 104.392 153.406 104.401 153.422C104.409 153.438 104.414 153.456 104.415 153.474L104.612 154.754C104.617 154.79 104.608 154.826 104.586 154.855C104.565 154.883 104.533 154.902 104.498 154.908L104.476 154.913ZM120.602 152.938C120.571 152.937 120.54 152.926 120.515 152.907C120.49 152.887 120.473 152.859 120.465 152.828C120.378 152.429 120.274 152.007 120.159 151.581C120.149 151.546 120.153 151.508 120.17 151.476C120.188 151.445 120.217 151.421 120.252 151.411C120.27 151.406 120.288 151.405 120.306 151.407C120.324 151.409 120.342 151.415 120.358 151.424C120.374 151.434 120.387 151.446 120.398 151.46C120.409 151.475 120.417 151.492 120.422 151.509C120.537 151.942 120.641 152.369 120.734 152.768C120.738 152.786 120.738 152.804 120.735 152.822C120.732 152.84 120.726 152.857 120.716 152.872C120.706 152.887 120.694 152.9 120.679 152.911C120.664 152.921 120.647 152.928 120.63 152.932L120.602 152.938ZM104.098 152.347C104.065 152.346 104.034 152.333 104.01 152.311C103.986 152.289 103.971 152.259 103.967 152.226C103.901 151.739 103.863 151.444 103.857 151.416V151.274H104C104 151.274 104.503 151.236 105.286 151.143C105.322 151.14 105.358 151.15 105.386 151.173C105.414 151.195 105.433 151.227 105.439 151.263C105.441 151.281 105.44 151.299 105.435 151.317C105.43 151.334 105.422 151.351 105.411 151.365C105.399 151.379 105.386 151.391 105.37 151.4C105.354 151.409 105.336 151.414 105.318 151.416C104.771 151.477 104.366 151.515 104.164 151.531C104.164 151.668 104.213 151.898 104.251 152.199C104.256 152.234 104.247 152.27 104.225 152.299C104.204 152.328 104.172 152.347 104.136 152.352L104.098 152.347ZM106.572 151.252C106.539 151.252 106.508 151.24 106.483 151.219C106.458 151.198 106.441 151.169 106.435 151.137C106.432 151.119 106.432 151.101 106.437 151.083C106.441 151.065 106.45 151.048 106.461 151.034C106.472 151.02 106.486 151.008 106.503 150.999C106.519 150.99 106.537 150.985 106.555 150.984L107.83 150.787C107.849 150.782 107.868 150.78 107.887 150.783C107.906 150.786 107.925 150.793 107.941 150.803C107.957 150.813 107.971 150.827 107.982 150.843C107.993 150.859 108 150.877 108.003 150.897C108.006 150.916 108.005 150.935 108 150.954C107.995 150.972 107.986 150.99 107.974 151.005C107.962 151.02 107.947 151.032 107.929 151.041C107.912 151.049 107.893 151.054 107.874 151.055C107.425 151.132 106.993 151.198 106.593 151.252H106.572ZM109.127 150.825C109.095 150.823 109.065 150.81 109.042 150.787C109.018 150.765 109.004 150.735 109.001 150.703C108.997 150.671 109.006 150.639 109.024 150.612C109.042 150.585 109.069 150.566 109.1 150.557C109.532 150.47 109.959 150.377 110.364 150.284C110.381 150.28 110.4 150.279 110.417 150.282C110.435 150.285 110.452 150.292 110.468 150.301C110.483 150.311 110.496 150.324 110.506 150.338C110.517 150.353 110.524 150.37 110.528 150.388C110.535 150.423 110.528 150.46 110.508 150.49C110.489 150.521 110.459 150.543 110.424 150.552C110.019 150.645 109.592 150.738 109.154 150.825H109.127ZM119.94 150.442C119.911 150.443 119.883 150.434 119.859 150.417C119.836 150.4 119.818 150.377 119.809 150.349C119.677 149.912 119.546 149.496 119.42 149.113C119.409 149.078 119.413 149.04 119.43 149.008C119.447 148.975 119.476 148.951 119.511 148.94C119.545 148.929 119.583 148.933 119.615 148.95C119.648 148.967 119.672 148.996 119.683 149.031C119.809 149.414 119.94 149.829 120.071 150.267C120.082 150.302 120.078 150.34 120.06 150.371C120.043 150.403 120.013 150.427 119.978 150.437L119.94 150.442ZM111.644 150.229C111.615 150.228 111.586 150.218 111.563 150.201C111.539 150.183 111.522 150.158 111.513 150.13C111.504 150.095 111.51 150.058 111.528 150.026C111.547 149.994 111.576 149.971 111.611 149.961C112.044 149.84 112.46 149.709 112.837 149.578C112.872 149.567 112.91 149.57 112.942 149.587C112.975 149.603 113 149.631 113.012 149.665C113.018 149.683 113.021 149.701 113.02 149.719C113.018 149.737 113.014 149.755 113.005 149.771C112.997 149.788 112.986 149.802 112.972 149.814C112.958 149.826 112.942 149.835 112.925 149.84C112.542 149.972 112.126 150.103 111.683 150.229H111.644ZM114.09 149.375C114.064 149.375 114.038 149.368 114.015 149.353C113.993 149.338 113.975 149.318 113.964 149.293C113.956 149.277 113.952 149.259 113.951 149.241C113.95 149.222 113.954 149.204 113.96 149.187C113.967 149.17 113.977 149.155 113.99 149.142C114.003 149.129 114.019 149.119 114.036 149.113L114.391 148.943L115.19 148.549C115.223 148.533 115.261 148.531 115.295 148.542C115.33 148.553 115.359 148.577 115.376 148.609C115.385 148.626 115.389 148.644 115.391 148.662C115.392 148.68 115.389 148.699 115.383 148.716C115.377 148.734 115.367 148.75 115.355 148.763C115.343 148.777 115.327 148.788 115.311 148.795L114.512 149.189L114.145 149.359C114.125 149.37 114.102 149.373 114.079 149.37L114.09 149.375ZM116.405 148.221C116.38 148.221 116.355 148.214 116.334 148.2C116.312 148.187 116.295 148.167 116.285 148.144C116.276 148.129 116.271 148.112 116.269 148.094C116.267 148.077 116.269 148.059 116.274 148.042C116.279 148.025 116.287 148.01 116.299 147.996C116.31 147.983 116.324 147.971 116.339 147.963C116.805 147.723 117.177 147.52 117.472 147.351C117.503 147.337 117.538 147.335 117.57 147.345C117.602 147.355 117.63 147.377 117.647 147.406C117.664 147.436 117.669 147.47 117.662 147.503C117.655 147.537 117.636 147.566 117.609 147.586C117.308 147.755 116.93 147.963 116.465 148.204C116.443 148.216 116.418 148.22 116.394 148.215L116.405 148.221ZM119.141 147.98C119.113 147.981 119.085 147.973 119.062 147.957C119.038 147.941 119.02 147.919 119.01 147.892C118.851 147.438 118.725 147.104 118.654 146.924C118.631 146.927 118.607 146.924 118.586 146.914C118.564 146.905 118.546 146.889 118.534 146.869C118.509 146.843 118.495 146.809 118.495 146.773C118.495 146.737 118.509 146.703 118.534 146.677V146.004L118.802 146.667C118.802 146.667 118.972 147.093 119.218 147.794C119.23 147.828 119.228 147.866 119.213 147.898C119.198 147.931 119.17 147.957 119.136 147.969L119.141 147.98Z" fill="white"/>
<path d="M62.4654 163.439C62.4291 163.439 62.3943 163.424 62.3687 163.399C62.343 163.373 62.3286 163.338 62.3286 163.302C62.3286 163.266 62.343 163.231 62.3687 163.205C62.3943 163.18 62.4291 163.165 62.4654 163.165C62.8884 163.148 63.3093 163.097 63.724 163.012C63.7596 163.004 63.7969 163.011 63.8276 163.03C63.8584 163.05 63.8802 163.08 63.8882 163.116C63.8962 163.152 63.8897 163.189 63.8702 163.22C63.8507 163.25 63.8198 163.272 63.7842 163.28C63.3535 163.37 62.916 163.423 62.4764 163.439H62.4654ZM61.174 163.395C60.7351 163.349 60.3023 163.257 59.8825 163.121C59.8487 163.11 59.8206 163.086 59.8043 163.054C59.7879 163.023 59.7846 162.986 59.795 162.952C59.8074 162.918 59.8325 162.889 59.8651 162.873C59.8977 162.857 59.9352 162.854 59.9701 162.864C60.3728 162.992 60.787 163.08 61.2068 163.127C61.2377 163.133 61.2655 163.15 61.2855 163.174C61.3055 163.199 61.3164 163.229 61.3164 163.261C61.3164 163.293 61.3055 163.323 61.2855 163.348C61.2655 163.372 61.2377 163.389 61.2068 163.395H61.174ZM65.0045 162.903C64.9777 162.903 64.9512 162.896 64.9287 162.881C64.9062 162.867 64.8887 162.845 64.8787 162.821C64.8655 162.787 64.8655 162.75 64.8787 162.716C64.8919 162.683 64.9173 162.655 64.9498 162.64C65.3427 162.483 65.7113 162.271 66.0443 162.011C66.058 161.998 66.0744 161.988 66.0922 161.981C66.11 161.975 66.129 161.972 66.1479 161.974C66.1668 161.975 66.1852 161.98 66.202 161.989C66.2187 161.998 66.2335 162.01 66.2453 162.025C66.257 162.04 66.2656 162.057 66.2705 162.075C66.2753 162.094 66.2763 162.113 66.2733 162.131C66.2704 162.15 66.2636 162.168 66.2533 162.184C66.2431 162.2 66.2297 162.214 66.2139 162.224C65.8656 162.499 65.4807 162.723 65.0702 162.892C65.0575 162.9 65.0429 162.906 65.0277 162.907C65.0125 162.909 64.9971 162.908 64.9826 162.903H65.0045ZM58.8045 162.514C58.7777 162.522 58.7492 162.522 58.7224 162.514L57.6991 161.721C57.6737 161.694 57.6595 161.659 57.6595 161.622C57.6595 161.585 57.6737 161.55 57.6991 161.524C57.7253 161.5 57.7595 161.487 57.7949 161.487C57.8303 161.487 57.8644 161.5 57.8906 161.524L58.9085 162.317C58.9335 162.343 58.9476 162.377 58.9476 162.413C58.9476 162.449 58.9335 162.483 58.9085 162.509C58.8895 162.52 58.8681 162.526 58.8462 162.527C58.8243 162.528 58.8025 162.523 58.7826 162.514H58.8045ZM66.9691 161.288C66.9456 161.293 66.9214 161.293 66.8979 161.288C66.8678 161.269 66.8463 161.239 66.8382 161.204C66.83 161.169 66.8357 161.133 66.8541 161.102C67.0534 160.735 67.199 160.34 67.2865 159.931C67.2943 159.897 67.3153 159.867 67.3448 159.847C67.3744 159.828 67.4104 159.821 67.4451 159.827C67.4628 159.831 67.4795 159.838 67.4943 159.849C67.5091 159.859 67.5217 159.872 67.5313 159.888C67.541 159.903 67.5476 159.92 67.5506 159.938C67.5537 159.956 67.5532 159.974 67.5491 159.991C67.4608 160.428 67.3058 160.849 67.0895 161.239C67.0732 161.26 67.051 161.276 67.0257 161.285C67.0004 161.294 66.9731 161.295 66.9472 161.288H66.9691ZM67.6038 158.804C67.5859 158.803 67.5683 158.798 67.5522 158.789C67.5362 158.781 67.5219 158.77 67.5102 158.756C67.4985 158.742 67.4896 158.727 67.4841 158.709C67.4786 158.692 67.4765 158.674 67.478 158.656C67.5108 158.262 67.5272 157.83 67.5272 157.376C67.5272 157.339 67.5416 157.305 67.5673 157.279C67.593 157.253 67.6277 157.239 67.664 157.239C67.7003 157.239 67.7351 157.253 67.7608 157.279C67.7864 157.305 67.8008 157.339 67.8008 157.376C67.8008 157.841 67.8008 158.279 67.7516 158.678C67.7514 158.699 67.7465 158.719 67.7373 158.737C67.7281 158.756 67.7149 158.772 67.6985 158.785C67.6822 158.797 67.6633 158.806 67.6431 158.81C67.6229 158.815 67.602 158.814 67.582 158.809L67.6038 158.804ZM67.6038 156.216C67.5685 156.216 67.5345 156.202 67.509 156.177C67.4835 156.153 67.4684 156.12 67.467 156.084C67.467 155.674 67.4123 155.241 67.3685 154.804C67.3655 154.767 67.3769 154.73 67.4004 154.702C67.4239 154.673 67.4576 154.655 67.4944 154.65C67.5124 154.649 67.5305 154.651 67.5476 154.657C67.5648 154.662 67.5807 154.671 67.5945 154.683C67.6082 154.694 67.6195 154.709 67.6277 154.725C67.6358 154.741 67.6408 154.758 67.6421 154.776C67.6859 155.22 67.7188 155.657 67.7406 156.073C67.7422 156.109 67.7299 156.143 67.7064 156.17C67.683 156.196 67.6501 156.213 67.6148 156.216H67.6038ZM67.3576 153.638C67.3246 153.638 67.2927 153.626 67.2684 153.604C67.244 153.581 67.229 153.551 67.2263 153.518C67.1606 153.047 67.0949 152.615 67.0347 152.243C67.0299 152.207 67.0391 152.17 67.0605 152.14C67.0819 152.111 67.1138 152.091 67.1496 152.084C67.1676 152.081 67.1861 152.081 67.2039 152.086C67.2217 152.09 67.2384 152.097 67.2532 152.108C67.268 152.119 67.2805 152.132 67.29 152.148C67.2994 152.164 67.3057 152.181 67.3083 152.199C67.3685 152.571 67.4342 153.009 67.4944 153.485C67.4991 153.52 67.4897 153.556 67.4682 153.585C67.4467 153.614 67.4149 153.633 67.3795 153.638H67.3576ZM66.9472 151.083C66.9259 151.083 66.905 151.078 66.886 151.068C66.867 151.059 66.8505 151.045 66.8377 151.028L65.6831 150.891C65.6651 150.89 65.6476 150.885 65.6315 150.877C65.6154 150.868 65.6011 150.857 65.5894 150.843C65.5777 150.83 65.5689 150.814 65.5633 150.797C65.5578 150.779 65.5557 150.761 65.5572 150.743C65.5593 150.725 65.5648 150.708 65.5737 150.692C65.5825 150.676 65.5944 150.662 65.6087 150.651C65.6229 150.64 65.6392 150.632 65.6567 150.627C65.6742 150.622 65.6925 150.621 65.7104 150.623C67.073 150.765 67.073 150.765 67.073 150.902C67.077 150.92 67.0773 150.938 67.0738 150.956C67.0704 150.974 67.0633 150.99 67.053 151.005C67.0427 151.02 67.0295 151.033 67.0141 151.042C66.9987 151.052 66.9815 151.058 66.9636 151.061L66.9472 151.083ZM64.4081 150.765L63.1166 150.65C63.0813 150.646 63.0489 150.628 63.0265 150.601C63.004 150.573 62.9931 150.538 62.9962 150.503C62.9968 150.484 63.0013 150.466 63.0092 150.45C63.0171 150.433 63.0284 150.419 63.0423 150.407C63.0562 150.395 63.0724 150.386 63.09 150.381C63.1075 150.376 63.1259 150.374 63.144 150.377L64.43 150.492C64.4479 150.493 64.4655 150.498 64.4815 150.506C64.4976 150.514 64.5119 150.526 64.5236 150.539C64.5353 150.553 64.5442 150.569 64.5497 150.586C64.5552 150.603 64.5573 150.621 64.5558 150.639C64.5545 150.658 64.5493 150.677 64.5404 150.694C64.5316 150.711 64.5193 150.726 64.5043 150.737C64.4894 150.749 64.4721 150.758 64.4537 150.763C64.4352 150.767 64.4159 150.768 64.3971 150.765H64.4081ZM61.8471 150.453H61.8088C61.3848 150.339 60.9725 150.185 60.5775 149.994C60.549 149.976 60.5279 149.949 60.5183 149.916C60.5087 149.884 60.5113 149.85 60.5255 149.819C60.5396 149.789 60.5645 149.765 60.5952 149.752C60.626 149.738 60.6606 149.737 60.6924 149.747C61.0742 149.93 61.4716 150.079 61.8799 150.191C61.9142 150.202 61.9432 150.225 61.9614 150.257C61.9795 150.288 61.9856 150.325 61.9784 150.36C61.9686 150.39 61.9493 150.415 61.9235 150.432C61.8976 150.448 61.8668 150.456 61.8361 150.453H61.8471ZM59.4995 149.359C59.4761 149.364 59.4517 149.364 59.4283 149.359C59.0726 149.14 58.7115 148.888 58.3339 148.615C58.3049 148.593 58.2857 148.56 58.2805 148.525C58.2754 148.489 58.2848 148.452 58.3065 148.423C58.3283 148.394 58.3607 148.375 58.3966 148.37C58.4325 148.365 58.469 148.374 58.4981 148.396C58.8538 148.664 59.2094 148.91 59.5542 149.124C59.5847 149.144 59.6063 149.175 59.6145 149.211C59.6226 149.246 59.6167 149.284 59.598 149.315C59.5858 149.333 59.5697 149.349 59.5507 149.36C59.5318 149.372 59.5105 149.379 59.4885 149.381L59.4995 149.359ZM57.4255 147.805C57.3932 147.805 57.3618 147.794 57.3379 147.772C56.7524 147.263 56.3967 146.891 56.3803 146.874C56.3552 146.849 56.3412 146.815 56.3412 146.779C56.3412 146.743 56.3552 146.709 56.3803 146.683C56.3926 146.67 56.4074 146.659 56.4239 146.652C56.4404 146.645 56.4581 146.641 56.4761 146.641C56.494 146.641 56.5118 146.645 56.5282 146.652C56.5447 146.659 56.5596 146.67 56.5718 146.683C56.5718 146.683 56.933 147.061 57.5131 147.558C57.5385 147.585 57.5527 147.62 57.5527 147.657C57.5527 147.694 57.5385 147.729 57.5131 147.755C57.5026 147.774 57.4884 147.789 57.4715 147.802C57.4545 147.814 57.4351 147.822 57.4146 147.827L57.4255 147.805Z" fill="white"/>
<path d="M126.255 165.688C126.218 165.687 126.184 165.671 126.158 165.644C126.133 165.618 126.118 165.582 126.118 165.546L126.146 164.249C126.148 164.214 126.164 164.181 126.189 164.157C126.214 164.133 126.247 164.119 126.282 164.117C126.319 164.117 126.354 164.132 126.379 164.157C126.405 164.183 126.419 164.218 126.419 164.254L126.392 165.551C126.392 165.587 126.377 165.622 126.352 165.648C126.326 165.674 126.291 165.688 126.255 165.688ZM126.304 163.094C126.268 163.094 126.233 163.08 126.208 163.054C126.182 163.028 126.168 162.994 126.168 162.957L126.195 161.66C126.201 161.63 126.216 161.603 126.239 161.582C126.261 161.561 126.29 161.548 126.321 161.545C126.338 161.545 126.356 161.549 126.372 161.556C126.389 161.563 126.403 161.573 126.416 161.586C126.428 161.599 126.437 161.614 126.444 161.63C126.45 161.647 126.453 161.665 126.452 161.682L126.425 162.979C126.422 163.007 126.41 163.033 126.392 163.054C126.373 163.074 126.348 163.088 126.321 163.094H126.304ZM126.365 160.506C126.347 160.506 126.329 160.502 126.313 160.495C126.297 160.488 126.282 160.478 126.27 160.465C126.257 160.453 126.248 160.437 126.242 160.421C126.235 160.404 126.232 160.387 126.233 160.369V159.072C126.235 159.037 126.25 159.003 126.275 158.979C126.301 158.954 126.335 158.941 126.37 158.941C126.406 158.941 126.441 158.955 126.467 158.981C126.492 159.006 126.507 159.041 126.507 159.078V160.374C126.504 160.41 126.488 160.444 126.461 160.468C126.435 160.492 126.4 160.506 126.365 160.506ZM126.419 157.917C126.383 157.917 126.348 157.903 126.323 157.877C126.297 157.852 126.282 157.817 126.282 157.781L126.315 156.484C126.315 156.466 126.319 156.448 126.326 156.432C126.333 156.416 126.343 156.401 126.356 156.389C126.368 156.377 126.384 156.367 126.4 156.361C126.417 156.354 126.434 156.352 126.452 156.352C126.487 156.354 126.521 156.369 126.545 156.394C126.57 156.42 126.583 156.454 126.583 156.489L126.551 157.786C126.549 157.82 126.535 157.853 126.511 157.877C126.486 157.902 126.454 157.916 126.419 157.917ZM126.485 155.329C126.467 155.329 126.449 155.325 126.432 155.318C126.415 155.311 126.4 155.3 126.388 155.287C126.376 155.273 126.366 155.258 126.36 155.24C126.354 155.223 126.352 155.205 126.354 155.187L126.386 153.895C126.386 153.878 126.39 153.86 126.397 153.844C126.404 153.827 126.414 153.813 126.427 153.8C126.44 153.788 126.455 153.779 126.471 153.772C126.488 153.766 126.506 153.763 126.523 153.764C126.56 153.764 126.594 153.778 126.62 153.804C126.646 153.83 126.66 153.865 126.66 153.901L126.627 155.198C126.624 155.234 126.608 155.267 126.582 155.291C126.555 155.316 126.521 155.329 126.485 155.329ZM126.551 152.741C126.533 152.74 126.515 152.736 126.499 152.728C126.482 152.721 126.468 152.71 126.455 152.697C126.443 152.684 126.434 152.668 126.428 152.651C126.421 152.634 126.419 152.616 126.419 152.598L126.452 151.307C126.452 151.289 126.456 151.271 126.463 151.254C126.47 151.237 126.481 151.222 126.494 151.21C126.508 151.198 126.524 151.188 126.541 151.182C126.558 151.176 126.576 151.174 126.594 151.176C126.612 151.175 126.63 151.178 126.647 151.184C126.664 151.191 126.679 151.201 126.691 151.214C126.704 151.227 126.713 151.243 126.719 151.26C126.725 151.277 126.727 151.295 126.726 151.312L126.693 152.609C126.692 152.627 126.688 152.645 126.68 152.661C126.673 152.678 126.662 152.692 126.649 152.705C126.636 152.717 126.62 152.726 126.603 152.732C126.587 152.739 126.569 152.741 126.551 152.741ZM126.622 150.152C126.604 150.152 126.586 150.147 126.57 150.14C126.553 150.132 126.539 150.122 126.527 150.108C126.514 150.095 126.505 150.08 126.499 150.063C126.492 150.046 126.49 150.028 126.49 150.01L126.529 148.719C126.529 148.701 126.532 148.683 126.539 148.667C126.546 148.651 126.556 148.636 126.569 148.624C126.582 148.611 126.597 148.602 126.614 148.596C126.63 148.589 126.648 148.587 126.666 148.587C126.702 148.587 126.737 148.602 126.762 148.627C126.788 148.653 126.802 148.688 126.802 148.724L126.764 150.021C126.763 150.039 126.759 150.057 126.752 150.073C126.744 150.089 126.733 150.104 126.72 150.116C126.707 150.128 126.691 150.138 126.675 150.144C126.658 150.15 126.64 150.153 126.622 150.152ZM126.698 147.564C126.68 147.564 126.662 147.56 126.645 147.553C126.629 147.546 126.614 147.535 126.601 147.522C126.589 147.508 126.58 147.493 126.574 147.475C126.568 147.458 126.565 147.44 126.567 147.422L126.605 146.13C126.605 146.112 126.609 146.094 126.616 146.077C126.624 146.061 126.634 146.046 126.648 146.033C126.661 146.021 126.677 146.011 126.694 146.006C126.711 146 126.729 145.997 126.748 145.999C126.766 146 126.783 146.004 126.8 146.011C126.816 146.019 126.831 146.03 126.843 146.043C126.855 146.056 126.864 146.072 126.871 146.088C126.877 146.105 126.88 146.123 126.879 146.141L126.841 147.433C126.84 147.451 126.836 147.468 126.828 147.485C126.821 147.501 126.81 147.516 126.797 147.528C126.784 147.54 126.768 147.549 126.751 147.556C126.734 147.562 126.716 147.565 126.698 147.564ZM126.742 144.976C126.724 144.976 126.707 144.973 126.69 144.967C126.674 144.961 126.658 144.951 126.646 144.939C126.633 144.927 126.623 144.912 126.616 144.896C126.609 144.88 126.605 144.862 126.605 144.844C126.605 144.428 126.578 143.996 126.551 143.553C126.55 143.535 126.553 143.517 126.559 143.5C126.565 143.483 126.575 143.468 126.587 143.454C126.599 143.441 126.614 143.431 126.63 143.423C126.646 143.415 126.664 143.411 126.682 143.411C126.717 143.41 126.751 143.423 126.777 143.446C126.803 143.469 126.82 143.502 126.824 143.536C126.852 143.985 126.868 144.423 126.879 144.839C126.879 144.875 126.865 144.91 126.839 144.936C126.813 144.961 126.778 144.976 126.742 144.976ZM126.594 142.393C126.56 142.393 126.527 142.38 126.501 142.357C126.476 142.333 126.46 142.301 126.458 142.267C126.419 141.845 126.375 141.419 126.326 140.981C126.323 140.945 126.334 140.909 126.356 140.88C126.378 140.852 126.411 140.833 126.447 140.828C126.483 140.824 126.519 140.835 126.547 140.857C126.576 140.88 126.594 140.912 126.6 140.948C126.649 141.391 126.693 141.824 126.731 142.239C126.734 142.276 126.723 142.313 126.699 142.342C126.676 142.37 126.642 142.389 126.605 142.393H126.594ZM126.304 139.815C126.271 139.814 126.239 139.802 126.214 139.78C126.189 139.758 126.173 139.728 126.168 139.695C126.113 139.274 126.053 138.847 125.992 138.414C125.992 138.381 126.004 138.35 126.026 138.325C126.047 138.3 126.077 138.284 126.11 138.279C126.142 138.274 126.176 138.282 126.203 138.299C126.231 138.317 126.251 138.344 126.261 138.376C126.326 138.808 126.386 139.241 126.441 139.662C126.443 139.68 126.442 139.698 126.437 139.716C126.432 139.733 126.424 139.75 126.413 139.764C126.402 139.778 126.388 139.79 126.372 139.799C126.356 139.808 126.339 139.813 126.321 139.815H126.304ZM125.927 137.254C125.895 137.253 125.864 137.241 125.84 137.22C125.816 137.2 125.801 137.171 125.795 137.139C125.724 136.718 125.653 136.291 125.577 135.859C125.572 135.823 125.581 135.786 125.602 135.757C125.624 135.727 125.656 135.707 125.691 135.7C125.728 135.695 125.764 135.705 125.794 135.726C125.823 135.747 125.843 135.779 125.85 135.815L126.064 137.096C126.068 137.131 126.059 137.167 126.037 137.196C126.016 137.224 125.984 137.243 125.949 137.249L125.927 137.254ZM125.484 134.699C125.452 134.698 125.421 134.687 125.396 134.668C125.371 134.648 125.354 134.62 125.347 134.589C125.27 134.168 125.188 133.741 125.106 133.314C125.1 133.279 125.107 133.242 125.128 133.212C125.148 133.183 125.18 133.162 125.215 133.156C125.233 133.152 125.251 133.151 125.269 133.155C125.287 133.158 125.304 133.165 125.319 133.176C125.334 133.186 125.346 133.199 125.356 133.215C125.365 133.23 125.371 133.247 125.374 133.265C125.456 133.692 125.538 134.113 125.615 134.54C125.621 134.576 125.613 134.612 125.593 134.642C125.572 134.672 125.541 134.692 125.505 134.699H125.484ZM124.986 132.154C124.954 132.154 124.925 132.142 124.901 132.122C124.877 132.103 124.86 132.075 124.854 132.045L124.592 130.781C124.588 130.763 124.587 130.745 124.59 130.727C124.593 130.709 124.6 130.692 124.61 130.677C124.619 130.662 124.632 130.649 124.647 130.638C124.661 130.628 124.678 130.62 124.696 130.616C124.713 130.613 124.731 130.612 124.749 130.615C124.767 130.618 124.784 130.625 124.799 130.634C124.814 130.644 124.828 130.657 124.838 130.671C124.848 130.686 124.856 130.703 124.86 130.72L125.122 131.99C125.126 132.008 125.127 132.027 125.123 132.045C125.12 132.063 125.113 132.08 125.103 132.095C125.092 132.111 125.079 132.124 125.064 132.134C125.048 132.144 125.031 132.151 125.013 132.154H124.986ZM124.438 129.621C124.407 129.62 124.377 129.609 124.353 129.589C124.33 129.569 124.313 129.542 124.307 129.511C124.214 129.09 124.121 128.668 124.022 128.252C124.018 128.235 124.018 128.217 124.021 128.199C124.024 128.181 124.031 128.164 124.04 128.149C124.05 128.133 124.062 128.12 124.077 128.11C124.092 128.1 124.109 128.092 124.126 128.088C124.161 128.08 124.198 128.086 124.229 128.104C124.259 128.122 124.282 128.152 124.291 128.187C124.389 128.608 124.482 129.03 124.575 129.451C124.579 129.469 124.579 129.487 124.576 129.506C124.573 129.524 124.566 129.541 124.555 129.556C124.545 129.572 124.532 129.585 124.517 129.595C124.501 129.605 124.484 129.612 124.466 129.615L124.438 129.621ZM123.891 127.092C123.86 127.092 123.83 127.082 123.805 127.063C123.781 127.045 123.763 127.018 123.754 126.988C123.661 126.567 123.557 126.146 123.459 125.73C123.451 125.694 123.457 125.655 123.476 125.624C123.496 125.592 123.527 125.569 123.563 125.56C123.58 125.556 123.599 125.556 123.616 125.559C123.634 125.562 123.651 125.568 123.667 125.578C123.682 125.588 123.695 125.6 123.705 125.615C123.716 125.63 123.723 125.646 123.727 125.664L124.022 126.928C124.026 126.946 124.027 126.964 124.024 126.982C124.021 127 124.014 127.017 124.005 127.032C123.995 127.047 123.982 127.06 123.968 127.071C123.953 127.081 123.936 127.088 123.918 127.092H123.891ZM123.289 124.575C123.259 124.575 123.229 124.564 123.206 124.546C123.182 124.527 123.165 124.501 123.158 124.471C123.054 124.044 122.95 123.623 122.846 123.213C122.837 123.177 122.843 123.14 122.861 123.108C122.88 123.076 122.909 123.053 122.944 123.043C122.962 123.039 122.98 123.038 122.998 123.041C123.016 123.044 123.033 123.051 123.048 123.061C123.063 123.07 123.077 123.083 123.087 123.098C123.097 123.113 123.105 123.129 123.109 123.147C123.213 123.557 123.317 123.979 123.42 124.406C123.429 124.44 123.423 124.477 123.405 124.508C123.386 124.538 123.357 124.561 123.322 124.57L123.289 124.575ZM122.66 122.058C122.629 122.059 122.599 122.049 122.575 122.03C122.551 122.011 122.535 121.984 122.529 121.954C122.419 121.533 122.315 121.111 122.206 120.701C122.196 120.665 122.201 120.627 122.22 120.596C122.238 120.564 122.269 120.541 122.304 120.531C122.34 120.522 122.378 120.527 122.409 120.545C122.441 120.564 122.464 120.594 122.474 120.63C122.578 121.046 122.687 121.461 122.797 121.888C122.805 121.923 122.799 121.96 122.781 121.99C122.762 122.021 122.733 122.043 122.698 122.052L122.66 122.058ZM122.009 119.552C121.979 119.55 121.95 119.54 121.926 119.521C121.902 119.502 121.885 119.477 121.877 119.448C121.768 119.021 121.653 118.599 121.544 118.195C121.539 118.177 121.537 118.159 121.54 118.141C121.542 118.124 121.548 118.107 121.557 118.091C121.566 118.076 121.579 118.062 121.593 118.052C121.608 118.042 121.624 118.034 121.642 118.03C121.659 118.025 121.677 118.024 121.694 118.026C121.712 118.028 121.728 118.033 121.744 118.042C121.759 118.051 121.773 118.062 121.783 118.076C121.794 118.09 121.802 118.106 121.806 118.123C121.916 118.534 122.031 118.95 122.14 119.377C122.145 119.394 122.147 119.412 122.145 119.43C122.143 119.448 122.137 119.465 122.129 119.481C122.12 119.496 122.108 119.51 122.094 119.522C122.08 119.533 122.064 119.541 122.047 119.546L122.009 119.552ZM121.336 117.045C121.306 117.045 121.277 117.036 121.253 117.018C121.23 117 121.213 116.975 121.204 116.947L120.859 115.694C120.855 115.676 120.853 115.658 120.856 115.641C120.858 115.623 120.864 115.606 120.873 115.59C120.882 115.575 120.895 115.562 120.909 115.551C120.924 115.541 120.94 115.533 120.958 115.53C120.993 115.521 121.03 115.526 121.061 115.543C121.093 115.56 121.116 115.589 121.128 115.623L121.472 116.87C121.481 116.906 121.475 116.943 121.457 116.975C121.439 117.006 121.409 117.03 121.374 117.04L121.336 117.045ZM120.641 114.545C120.611 114.544 120.583 114.534 120.559 114.516C120.536 114.499 120.518 114.474 120.509 114.446C120.383 113.997 120.263 113.581 120.154 113.198C120.145 113.164 120.15 113.127 120.167 113.095C120.184 113.064 120.213 113.04 120.247 113.029C120.264 113.023 120.282 113.021 120.3 113.022C120.318 113.024 120.336 113.029 120.352 113.038C120.368 113.047 120.382 113.059 120.393 113.073C120.404 113.088 120.412 113.104 120.416 113.122C120.526 113.505 120.646 113.921 120.772 114.375C120.778 114.392 120.78 114.41 120.778 114.427C120.777 114.445 120.771 114.462 120.762 114.478C120.754 114.494 120.742 114.507 120.727 114.518C120.713 114.528 120.696 114.535 120.679 114.539L120.641 114.545ZM119.924 112.049C119.894 112.049 119.865 112.04 119.842 112.022C119.818 112.004 119.801 111.979 119.792 111.951C119.557 111.152 119.42 110.703 119.42 110.703C119.415 110.686 119.414 110.668 119.416 110.65C119.418 110.632 119.423 110.615 119.432 110.599C119.44 110.583 119.452 110.569 119.466 110.558C119.48 110.547 119.496 110.538 119.513 110.533C119.531 110.528 119.549 110.527 119.566 110.529C119.584 110.531 119.602 110.536 119.617 110.545C119.633 110.553 119.647 110.565 119.658 110.579C119.67 110.593 119.678 110.609 119.683 110.626C119.683 110.626 119.82 111.075 120.055 111.874C120.061 111.891 120.063 111.91 120.062 111.928C120.06 111.946 120.055 111.963 120.046 111.979C120.037 111.995 120.025 112.009 120.011 112.02C119.996 112.031 119.98 112.039 119.962 112.044L119.924 112.049Z" fill="white"/>
<path d="M129.057 111.201C128.979 112.382 129.205 113.563 129.714 114.632C130.146 115.727 130.6 116.821 131.087 117.883C131.574 118.944 132.138 120.071 132.729 121.166C133.32 122.26 134.004 123.174 134.671 124.159C136.023 126.059 137.115 128.131 137.916 130.321C138.633 132.463 139.121 134.676 139.372 136.92C139.673 139.471 139.772 142.042 139.865 144.582C139.865 144.757 140.144 144.757 140.138 144.582C139.979 140.089 139.804 135.514 138.496 131.175C137.851 129.019 136.899 126.968 135.667 125.084C134.296 123.129 133.042 121.093 131.913 118.988C131.306 117.751 130.759 116.476 130.233 115.196C129.708 113.915 129.139 112.558 129.303 111.13C129.303 110.955 129.051 110.955 129.03 111.13L129.057 111.201Z" fill="#3E6295"/>
<path d="M81.175 66.5148C81.6086 66.9402 81.9277 67.4682 82.1028 68.0498C82.2779 68.6315 82.3032 69.2479 82.1764 69.8419C81.8243 71.0541 81.249 72.1899 80.48 73.1909C80.376 73.3332 80.6113 73.4646 80.7153 73.3277C81.1465 72.753 81.5135 72.1328 81.8097 71.4781C82.1329 70.89 82.3794 70.2629 82.543 69.6121C82.6135 69.0135 82.5466 68.4067 82.3475 67.8378C82.1484 67.2689 81.8222 66.7528 81.3938 66.3288C81.2735 66.1974 81.0819 66.3944 81.2023 66.5203L81.175 66.5148Z" fill="#3E6295"/>
<path d="M83.0191 67.9705C83.2035 68.4676 83.2944 68.9944 83.2872 69.5246C83.2282 70.0324 83.0993 70.5296 82.9042 71.0021C82.844 71.1662 83.1121 71.2374 83.1668 71.0732C83.3708 70.5783 83.5035 70.0568 83.5608 69.5246C83.5697 68.9653 83.477 68.4091 83.2872 67.8829C83.2721 67.8538 83.2474 67.8308 83.2172 67.8178C83.1871 67.8048 83.1534 67.8026 83.1218 67.8116C83.0903 67.8206 83.0628 67.8403 83.0441 67.8673C83.0254 67.8942 83.0165 67.9268 83.0191 67.9595V67.9705Z" fill="#3E6295"/>
<path d="M137.265 133.243C137.713 134.924 137.918 136.659 137.873 138.398C137.873 138.573 138.141 138.573 138.146 138.398C138.19 136.634 137.982 134.872 137.528 133.166C137.484 132.997 137.221 133.073 137.265 133.243Z" fill="#3E6295"/>
<path d="M61.3874 106.933C59.0772 109.365 56.1896 111.174 52.993 112.191C47.8546 113.746 45.3319 120.11 45.3319 120.11L51.1105 128.225C51.1105 128.225 50.536 122.425 53.8467 121.839C57.1574 121.253 61.2944 115.82 61.9893 113.773C62.6843 111.726 61.3053 106.375 61.3053 106.375" fill="white"/>
<path d="M118.036 139.443C118.036 139.443 123.727 142.623 124.898 148.308C126.069 153.994 135.104 153.83 135.104 153.83L133.095 145.463C133.095 145.463 126.567 147.471 124.887 140.778C123.207 134.086 121.538 133.418 121.538 133.418L118.036 139.443Z" fill="white"/>
<path d="M58.6841 119.907C57.8973 121.4 56.6471 122.596 55.1217 123.317C54.8043 123.464 55.0779 123.935 55.3953 123.787C57.0059 123.027 58.3254 121.763 59.1547 120.186C59.3189 119.874 58.8483 119.595 58.6841 119.907Z" fill="#D4DCE8"/>
<path d="M62.9196 102.845C62.752 105.007 62.8734 107.183 63.2808 109.313C63.3464 109.658 63.8718 109.516 63.828 109.171C63.4362 107.086 63.3221 104.959 63.4887 102.845C63.4887 102.495 62.9415 102.495 62.9415 102.845H62.9196Z" fill="#D4DCE8"/>
<path d="M120.953 130.759C122.008 132.082 122.881 133.542 123.546 135.098C123.584 135.161 123.645 135.206 123.715 135.224C123.786 135.243 123.861 135.233 123.924 135.197C123.985 135.158 124.03 135.098 124.048 135.027C124.066 134.957 124.057 134.883 124.022 134.819C123.331 133.222 122.427 131.726 121.336 130.37C121.117 130.097 120.734 130.485 120.953 130.759Z" fill="#D4DCE8"/>
<path d="M128.964 154.935C130.38 155.852 131.996 156.415 133.675 156.577C134.026 156.615 134.026 156.068 133.675 156.029C132.09 155.863 130.568 155.319 129.237 154.443C128.942 154.251 128.69 154.727 128.964 154.919V154.935Z" fill="#D4DCE8"/>
<path d="M118.019 66.1263C119.063 67.8748 120.22 69.553 121.483 71.1498C122.577 72.6053 124.08 73.701 125.801 74.2964C126.813 74.6028 127.246 73.0159 126.239 72.7149C124.706 72.2498 123.546 71.1061 122.567 69.8967C121.432 68.4291 120.386 66.8941 119.437 65.3C118.889 64.4026 117.461 65.2289 118.019 66.1263Z" fill="#D4DCE8"/>
<path d="M66.6736 65.3876C65.4972 67.6217 63.8573 69.5788 61.8635 71.128C61.6879 71.2418 61.5606 71.4165 61.506 71.6186C61.4515 71.8206 61.4735 72.0357 61.568 72.2224C61.6783 72.4019 61.8531 72.5325 62.0565 72.5874C62.26 72.6424 62.4767 72.6175 62.6624 72.5179C64.8966 70.8199 66.7388 68.6604 68.0635 66.1865C68.1225 66.0933 68.162 65.9892 68.1799 65.8804C68.1977 65.7715 68.1934 65.6602 68.1672 65.553C68.1411 65.4459 68.0936 65.3451 68.0276 65.2567C67.9616 65.1683 67.8785 65.0941 67.7832 65.0386C67.688 64.983 67.5825 64.9473 67.473 64.9334C67.3636 64.9195 67.2525 64.9279 67.1464 64.9579C67.0403 64.9879 66.9413 65.039 66.8553 65.1081C66.7694 65.1773 66.6983 65.263 66.6462 65.3602L66.6736 65.3876Z" fill="#D4DCE8"/>
<path d="M121.434 65.2782L122.819 66.5258C122.871 66.5751 122.941 66.6025 123.013 66.6025C123.085 66.6025 123.154 66.5751 123.207 66.5258C123.233 66.5004 123.253 66.4701 123.267 66.4368C123.281 66.4034 123.288 66.3677 123.288 66.3316C123.288 66.2954 123.281 66.2597 123.267 66.2263C123.253 66.193 123.233 66.1627 123.207 66.1373L121.817 64.8896C121.765 64.8408 121.697 64.8135 121.626 64.8135C121.554 64.8135 121.486 64.8408 121.434 64.8896C121.408 64.9151 121.388 64.9453 121.374 64.9787C121.36 65.012 121.353 65.0478 121.353 65.0839C121.353 65.12 121.36 65.1558 121.374 65.1891C121.388 65.2225 121.408 65.2527 121.434 65.2782Z" fill="#D4DCE8"/>
<path d="M64.7583 63.7952L63.0236 64.8404C62.9688 64.8802 62.9307 64.939 62.9168 65.0052C62.9028 65.0715 62.9139 65.1406 62.948 65.1992C62.982 65.2577 63.0366 65.3016 63.1011 65.3222C63.1656 65.3429 63.2355 65.3389 63.2972 65.311L65.0319 64.2713C65.095 64.235 65.1411 64.1751 65.1601 64.1048C65.1791 64.0345 65.1694 63.9595 65.1331 63.8964C65.0968 63.8333 65.037 63.7871 64.9667 63.7682C64.8964 63.7492 64.8214 63.7589 64.7583 63.7952Z" fill="#D4DCE8"/>
</svg>
