<svg width="200" height="200" viewBox="0 0 200 200" fill="none" xmlns="http://www.w3.org/2000/svg">
<path d="M118.556 179.555C118.722 180.333 118.222 181.055 117.5 181.222C116.722 181.389 116 180.889 115.833 180.167C115.667 179.389 116.167 178.667 116.889 178.5C117.667 178.333 118.389 178.778 118.556 179.555Z" fill="#1A1336"/>
<path d="M112.667 177.389C112.833 178.167 112.333 178.889 111.611 179.056C110.833 179.222 110.111 178.722 109.945 178C109.778 177.222 110.278 176.5 111 176.333C111.778 176.167 112.5 176.611 112.667 177.389Z" fill="#1A1336"/>
<path d="M106.722 175.222C106.889 176 106.389 176.722 105.667 176.889C104.889 177.056 104.167 176.556 104 175.833C103.834 175.056 104.334 174.333 105.056 174.167C105.834 174 106.556 174.5 106.722 175.222Z" fill="#1A1336"/>
<path d="M100.833 173.056C101 173.833 100.5 174.556 99.7779 174.722C99.0002 174.889 98.2779 174.389 98.1113 173.667C97.9446 172.889 98.4446 172.167 99.1668 172C99.8891 171.833 100.667 172.333 100.833 173.056Z" fill="#1A1336"/>
<path d="M94.8889 170.889C95.0556 171.667 94.5556 172.389 93.8334 172.556C93.0556 172.722 92.3334 172.222 92.1667 171.5C92 170.722 92.5 170 93.2223 169.833C94 169.667 94.7223 170.167 94.8889 170.889Z" fill="#1A1336"/>
<path d="M88.9446 168.722C89.1113 169.5 88.6113 170.222 87.889 170.389C87.1113 170.556 86.389 170.056 86.2224 169.333C86.0557 168.556 86.5557 167.833 87.2779 167.667C88.0557 167.5 88.7779 168 88.9446 168.722Z" fill="#1A1336"/>
<path d="M83.0557 166.611C83.2223 167.389 82.7223 168.111 82.0001 168.278C81.2223 168.444 80.5001 167.944 80.3334 167.222C80.1668 166.444 80.6668 165.722 81.389 165.555C82.1112 165.333 82.889 165.833 83.0557 166.611Z" fill="#1A1336"/>
<path d="M77.1111 164.444C77.2778 165.222 76.7778 165.944 76.0555 166.111C75.2778 166.278 74.5555 165.778 74.3889 165.056C74.2222 164.278 74.7222 163.556 75.4444 163.389C76.2222 163.222 76.9444 163.667 77.1111 164.444Z" fill="#1A1336"/>
<path d="M71.1668 162.278C71.3334 163.056 70.8334 163.778 70.1112 163.945C69.389 164.111 68.6112 163.611 68.4445 162.889C68.2779 162.111 68.7779 161.389 69.5001 161.222C70.2779 161.056 71.0001 161.5 71.1668 162.278Z" fill="#1A1336"/>
<path d="M65.2778 160.111C65.4445 160.889 64.9445 161.611 64.2223 161.778C63.4445 161.944 62.7223 161.444 62.5556 160.722C62.3889 160 62.8889 159.222 63.6112 159.056C64.389 158.889 65.1112 159.333 65.2778 160.111Z" fill="#1A1336"/>
<path d="M59.3335 157.944C59.5002 158.722 59.0002 159.444 58.2779 159.611C57.5002 159.778 56.7779 159.278 56.6113 158.555C56.4446 157.778 56.9446 157.056 57.6668 156.889C58.4446 156.722 59.1668 157.167 59.3335 157.944Z" fill="#1A1336"/>
<path d="M53.3889 155.778C53.5556 156.556 53.0556 157.278 52.3334 157.445C51.5556 157.611 50.8334 157.111 50.6667 156.389C50.5 155.611 51 154.889 51.7223 154.722C52.4445 154.556 53.2778 155.056 53.3889 155.778Z" fill="#1A1336"/>
<path d="M47.5 153.611C47.6667 154.389 47.1667 155.111 46.4444 155.278C45.7222 155.445 44.9444 154.945 44.7778 154.222C44.6111 153.445 45.1111 152.722 45.8333 152.556C46.6111 152.389 47.3333 152.889 47.5 153.611Z" fill="#1A1336"/>
<path d="M41.5557 151.444C41.7223 152.222 41.2223 152.944 40.5001 153.111C39.7223 153.278 39.0001 152.778 38.8334 152.056C38.6668 151.278 39.1668 150.556 39.889 150.389C40.6668 150.222 41.389 150.722 41.5557 151.444Z" fill="#1A1336"/>
<path d="M35.6668 149.278C35.8334 150.056 35.3334 150.778 34.6112 150.945C33.8334 151.111 33.1112 150.611 32.9445 149.889C32.7779 149.111 33.2779 148.389 34.0001 148.222C34.7223 148.056 35.5001 148.556 35.6668 149.278Z" fill="#1A1336"/>
<path d="M116.556 185.056C116.722 185.833 116.222 186.556 115.5 186.722C114.722 186.889 114 186.389 113.833 185.667C113.667 184.945 114.167 184.167 114.889 184C115.667 183.833 116.389 184.278 116.556 185.056Z" fill="#1A1336"/>
<path d="M110.667 182.889C110.833 183.667 110.333 184.389 109.611 184.556C108.833 184.722 108.111 184.222 107.945 183.5C107.778 182.722 108.278 182 109 181.833C109.722 181.667 110.5 182.167 110.667 182.889Z" fill="#1A1336"/>
<path d="M104.722 180.722C104.889 181.5 104.389 182.222 103.667 182.389C102.889 182.556 102.167 182.056 102 181.333C101.834 180.556 102.334 179.833 103.056 179.667C103.778 179.5 104.556 180 104.722 180.722Z" fill="#1A1336"/>
<path d="M98.7778 178.556C98.9445 179.333 98.4445 180.056 97.7223 180.222C97.0001 180.389 96.2223 179.889 96.0556 179.167C95.8889 178.389 96.389 177.667 97.1112 177.5C97.889 177.333 98.6112 177.833 98.7778 178.556Z" fill="#1A1336"/>
<path d="M92.8889 176.389C93.0556 177.167 92.5556 177.889 91.8334 178.056C91.0556 178.222 90.3334 177.722 90.1667 177C90 176.278 90.5 175.5 91.2222 175.333C92 175.167 92.7222 175.667 92.8889 176.389Z" fill="#1A1336"/>
<path d="M86.9446 174.278C87.1112 175.056 86.6112 175.778 85.889 175.944C85.1112 176.111 84.389 175.611 84.2224 174.889C84.0557 174.111 84.5557 173.389 85.2779 173.222C86.0557 173 86.7779 173.5 86.9446 174.278Z" fill="#1A1336"/>
<path d="M81 172.111C81.1667 172.889 80.6667 173.611 79.9445 173.778C79.1667 173.944 78.4444 173.444 78.2778 172.722C78.1111 171.944 78.6111 171.222 79.3333 171.056C80.1111 170.889 80.8889 171.333 81 172.111Z" fill="#1A1336"/>
<path d="M75.1111 169.944C75.2777 170.722 74.7778 171.444 74.0555 171.611C73.3333 171.778 72.5555 171.278 72.3889 170.556C72.2222 169.778 72.7222 169.056 73.4444 168.889C74.2222 168.722 74.9444 169.167 75.1111 169.944Z" fill="#1A1336"/>
<path d="M69.1668 167.778C69.3334 168.556 68.8334 169.278 68.1112 169.445C67.3334 169.611 66.6112 169.111 66.4445 168.389C66.2779 167.667 66.7779 166.889 67.5001 166.722C68.2223 166.556 69.0001 167 69.1668 167.778Z" fill="#1A1336"/>
<path d="M63.2778 165.611C63.4445 166.389 62.9445 167.111 62.2223 167.278C61.5001 167.444 60.7223 166.944 60.5556 166.222C60.3889 165.444 60.8889 164.722 61.6112 164.556C62.3334 164.389 63.1112 164.833 63.2778 165.611Z" fill="#1A1336"/>
<path d="M57.3335 163.444C57.5002 164.222 57.0002 164.944 56.2779 165.111C55.5002 165.278 54.7779 164.778 54.6113 164.056C54.4446 163.278 54.9446 162.556 55.6668 162.389C56.3891 162.222 57.1668 162.722 57.3335 163.444Z" fill="#1A1336"/>
<path d="M51.3889 161.278C51.5556 162.056 51.0556 162.778 50.3334 162.945C49.6111 163.111 48.8334 162.611 48.6667 161.889C48.5 161.111 49 160.389 49.7223 160.222C50.5 160.056 51.2223 160.556 51.3889 161.278Z" fill="#1A1336"/>
<path d="M45.5 159.111C45.6667 159.889 45.1667 160.611 44.4444 160.778C43.6667 160.945 42.9444 160.445 42.7778 159.722C42.6111 159 43.1111 158.222 43.8333 158.056C44.5556 157.889 45.3333 158.389 45.5 159.111Z" fill="#1A1336"/>
<path d="M39.5557 156.944C39.7223 157.722 39.2223 158.444 38.5001 158.611C37.7779 158.778 37.0001 158.278 36.8334 157.556C36.6668 156.778 37.1668 156.056 37.889 155.889C38.6112 155.722 39.389 156.222 39.5557 156.944Z" fill="#1A1336"/>
<path d="M108.667 188.389C108.833 189.167 108.333 189.889 107.611 190.056C106.833 190.222 106.111 189.722 105.945 189C105.778 188.222 106.278 187.5 107 187.333C107.722 187.167 108.5 187.667 108.667 188.389Z" fill="#1A1336"/>
<path d="M102.722 186.222C102.889 187 102.389 187.722 101.667 187.889C100.889 188.056 100.167 187.556 100 186.833C99.8335 186.056 100.334 185.333 101.056 185.167C101.834 185 102.556 185.5 102.722 186.222Z" fill="#1A1336"/>
<path d="M96.7778 184.056C96.9445 184.833 96.4445 185.556 95.7223 185.722C94.9445 185.889 94.2223 185.389 94.0556 184.667C93.8889 183.889 94.3889 183.167 95.1112 183C95.8889 182.833 96.6112 183.333 96.7778 184.056Z" fill="#1A1336"/>
<path d="M90.8889 181.889C91.0556 182.667 90.5556 183.389 89.8334 183.556C89.0556 183.722 88.3334 183.222 88.1667 182.5C88 181.722 88.5 181 89.2223 180.833C89.9445 180.667 90.7223 181.167 90.8889 181.889Z" fill="#1A1336"/>
<path d="M84.9446 179.778C85.1113 180.556 84.6113 181.278 83.889 181.444C83.1113 181.611 82.389 181.111 82.2224 180.389C82.0557 179.611 82.5557 178.889 83.2779 178.722C84.0557 178.5 84.7779 179 84.9446 179.778Z" fill="#1A1336"/>
<path d="M79 177.611C79.1667 178.389 78.6667 179.111 77.9445 179.278C77.1667 179.444 76.4444 178.944 76.2778 178.222C76.1111 177.444 76.6111 176.722 77.3333 176.556C78.1111 176.389 78.8333 176.833 79 177.611Z" fill="#1A1336"/>
<path d="M73.1111 175.444C73.2778 176.222 72.7778 176.944 72.0555 177.111C71.2778 177.278 70.5555 176.778 70.3889 176.055C70.2222 175.278 70.7222 174.556 71.4444 174.389C72.2222 174.222 72.9444 174.667 73.1111 175.444Z" fill="#1A1336"/>
<path d="M67.1668 173.278C67.3334 174.056 66.8334 174.778 66.1112 174.945C65.389 175.111 64.6112 174.611 64.4445 173.889C64.2779 173.111 64.7779 172.389 65.5001 172.222C66.2223 172.056 67.0001 172.5 67.1668 173.278Z" fill="#1A1336"/>
<path d="M61.2224 171.111C61.3891 171.889 60.8891 172.611 60.1669 172.778C59.4446 172.944 58.6669 172.444 58.5002 171.722C58.3335 170.944 58.8335 170.222 59.5557 170.056C60.3335 169.889 61.1113 170.333 61.2224 171.111Z" fill="#1A1336"/>
<path d="M55.3335 168.944C55.5002 169.722 55.0002 170.444 54.2779 170.611C53.5002 170.778 52.7779 170.278 52.6113 169.556C52.4446 168.778 52.9446 168.056 53.6668 167.889C54.4446 167.722 55.1668 168.222 55.3335 168.944Z" fill="#1A1336"/>
<path d="M49.3889 166.778C49.5556 167.556 49.0556 168.278 48.3334 168.445C47.5556 168.611 46.8334 168.111 46.6667 167.389C46.5 166.667 47 165.889 47.7223 165.722C48.5 165.556 49.2223 166.056 49.3889 166.778Z" fill="#1A1336"/>
<path d="M43.5 164.611C43.6667 165.389 43.1667 166.111 42.4445 166.278C41.7222 166.445 40.9444 165.945 40.7778 165.222C40.6111 164.445 41.1111 163.722 41.8333 163.556C42.5556 163.389 43.3333 163.889 43.5 164.611Z" fill="#1A1336"/>
<path d="M88.8335 187.444C89.0002 188.222 88.5002 188.944 87.7779 189.111C87.0557 189.278 86.2779 188.778 86.1113 188.056C85.9446 187.278 86.4446 186.556 87.1668 186.389C87.889 186.222 88.7224 186.667 88.8335 187.444Z" fill="#1A1336"/>
<path d="M82.9446 185.278C83.1113 186.056 82.6112 186.778 81.889 186.945C81.1668 187.111 80.389 186.611 80.2224 185.889C80.0557 185.111 80.5557 184.389 81.2779 184.222C82.0557 184.056 82.7779 184.5 82.9446 185.278Z" fill="#1A1336"/>
<path d="M77 183.111C77.1667 183.889 76.6667 184.611 75.9444 184.778C75.1667 184.944 74.4444 184.444 74.2778 183.722C74.1111 182.944 74.6111 182.222 75.3333 182.056C76.1111 181.889 76.8333 182.333 77 183.111Z" fill="#1A1336"/>
<path d="M71.1111 180.944C71.2778 181.722 70.7778 182.444 70.0555 182.611C69.2778 182.778 68.5555 182.278 68.3889 181.556C68.2222 180.778 68.7222 180.056 69.4444 179.889C70.1666 179.722 70.9444 180.167 71.1111 180.944Z" fill="#1A1336"/>
<path d="M65.1668 178.778C65.3334 179.556 64.8334 180.278 64.1112 180.445C63.3334 180.611 62.6112 180.111 62.4445 179.389C62.2779 178.611 62.7779 177.889 63.5001 177.722C64.2223 177.556 65.0001 178 65.1668 178.778Z" fill="#1A1336"/>
<path d="M59.2224 176.611C59.3891 177.389 58.8891 178.111 58.1669 178.278C57.3891 178.445 56.6669 177.945 56.5002 177.222C56.3335 176.445 56.8335 175.722 57.5558 175.556C58.3335 175.389 59.0557 175.889 59.2224 176.611Z" fill="#1A1336"/>
<path d="M53.3335 174.444C53.5002 175.222 53.0002 175.944 52.2779 176.111C51.5002 176.278 50.7779 175.778 50.6113 175.056C50.4446 174.278 50.9446 173.556 51.6668 173.389C52.3891 173.222 53.1668 173.722 53.3335 174.444Z" fill="#1A1336"/>
<path d="M126.778 175.778C126.945 176.556 126.445 177.278 125.722 177.445C124.945 177.611 124.222 177.111 124.056 176.389C123.889 175.611 124.389 174.889 125.111 174.722C125.889 174.556 126.667 175 126.778 175.778Z" fill="#1A1336"/>
<path d="M120.889 173.611C121.056 174.389 120.556 175.111 119.833 175.278C119.056 175.444 118.333 174.944 118.167 174.222C118 173.444 118.5 172.722 119.222 172.556C119.944 172.389 120.722 172.833 120.889 173.611Z" fill="#1A1336"/>
<path d="M114.945 171.444C115.111 172.222 114.611 172.944 113.889 173.111C113.111 173.278 112.389 172.778 112.222 172.056C112.056 171.278 112.556 170.556 113.278 170.389C114.056 170.222 114.778 170.667 114.945 171.444Z" fill="#1A1336"/>
<path d="M109.056 169.278C109.222 170.056 108.722 170.778 108 170.945C107.222 171.111 106.5 170.611 106.333 169.889C106.167 169.111 106.667 168.389 107.389 168.222C108.111 168.056 108.889 168.556 109.056 169.278Z" fill="#1A1336"/>
<path d="M103.111 167.111C103.278 167.889 102.778 168.611 102.056 168.778C101.278 168.945 100.556 168.445 100.389 167.722C100.222 166.945 100.722 166.222 101.444 166.056C102.222 165.889 102.944 166.389 103.111 167.111Z" fill="#1A1336"/>
<path d="M97.1668 164.944C97.3334 165.722 96.8334 166.444 96.1112 166.611C95.3334 166.778 94.6112 166.278 94.4445 165.556C94.2779 164.778 94.7779 164.056 95.5001 163.889C96.2779 163.722 97.0001 164.222 97.1668 164.944Z" fill="#1A1336"/>
<path d="M91.2778 162.778C91.4445 163.556 90.9445 164.278 90.2223 164.445C89.4445 164.611 88.7223 164.111 88.5556 163.389C88.3889 162.611 88.889 161.889 89.6112 161.722C90.3334 161.556 91.1112 162.056 91.2778 162.778Z" fill="#1A1336"/>
<path d="M85.3335 160.667C85.5002 161.444 85.0002 162.167 84.2779 162.333C83.5002 162.5 82.7779 162 82.6113 161.278C82.4446 160.5 82.9446 159.778 83.6668 159.611C84.4446 159.389 85.1668 159.889 85.3335 160.667Z" fill="#1A1336"/>
<path d="M79.3889 158.5C79.5556 159.278 79.0556 160 78.3334 160.167C77.5556 160.333 76.8334 159.833 76.6667 159.111C76.5 158.389 77 157.611 77.7223 157.444C78.5 157.278 79.2223 157.722 79.3889 158.5Z" fill="#1A1336"/>
<path d="M73.5 156.333C73.6667 157.111 73.1667 157.833 72.4444 158C71.6667 158.167 70.9444 157.667 70.7778 156.944C70.6111 156.167 71.1111 155.444 71.8333 155.278C72.6111 155.111 73.3333 155.556 73.5 156.333Z" fill="#1A1336"/>
<path d="M67.5557 154.167C67.7223 154.945 67.2223 155.667 66.5001 155.833C65.7779 156 65.0001 155.5 64.8334 154.778C64.6668 154 65.1668 153.278 65.889 153.111C66.6668 152.945 67.389 153.389 67.5557 154.167Z" fill="#1A1336"/>
<path d="M61.6668 152C61.8334 152.778 61.3334 153.5 60.6112 153.667C59.889 153.833 59.1112 153.333 58.9445 152.611C58.7779 151.833 59.2779 151.111 60.0001 150.944C60.7223 150.778 61.5001 151.222 61.6668 152Z" fill="#1A1336"/>
<path d="M55.7224 149.833C55.8891 150.611 55.3891 151.333 54.6669 151.5C53.8891 151.667 53.1669 151.167 53.0002 150.444C52.8335 149.722 53.3335 148.944 54.0558 148.778C54.8335 148.611 55.5558 149.111 55.7224 149.833Z" fill="#1A1336"/>
<path d="M49.7778 147.667C49.9445 148.444 49.4445 149.167 48.7223 149.333C48.0001 149.5 47.2223 149 47.0556 148.278C46.8889 147.5 47.3889 146.778 48.1112 146.611C48.8334 146.444 49.6112 146.944 49.7778 147.667Z" fill="#1A1336"/>
<path d="M43.8889 145.5C44.0556 146.278 43.5556 147 42.8334 147.167C42.1111 147.333 41.3334 146.833 41.1667 146.111C41 145.389 41.5 144.611 42.2223 144.445C42.9445 144.278 43.7223 144.778 43.8889 145.5Z" fill="#1A1336"/>
<path d="M37.9446 143.333C38.1113 144.111 37.6113 144.833 36.889 145C36.1113 145.167 35.389 144.667 35.2224 143.944C35.0557 143.222 35.5557 142.444 36.2779 142.278C37.0001 142.111 37.7779 142.611 37.9446 143.333Z" fill="#1A1336"/>
<path d="M129.111 169.833C129.278 170.611 128.778 171.333 128.056 171.5C127.278 171.667 126.556 171.167 126.389 170.444C126.222 169.667 126.722 168.944 127.444 168.778C128.222 168.611 128.944 169.056 129.111 169.833Z" fill="#1A1336"/>
<path d="M123.167 167.667C123.333 168.445 122.833 169.167 122.111 169.333C121.333 169.5 120.611 169 120.445 168.278C120.278 167.5 120.778 166.778 121.5 166.611C122.278 166.445 123 166.889 123.167 167.667Z" fill="#1A1336"/>
<path d="M117.278 165.5C117.445 166.278 116.944 167 116.222 167.167C115.445 167.333 114.722 166.833 114.556 166.111C114.389 165.333 114.889 164.611 115.611 164.445C116.333 164.278 117.111 164.778 117.278 165.5Z" fill="#1A1336"/>
<path d="M111.333 163.333C111.5 164.111 111 164.833 110.278 165C109.5 165.167 108.778 164.667 108.611 163.944C108.445 163.167 108.945 162.444 109.667 162.278C110.445 162.111 111.167 162.611 111.333 163.333Z" fill="#1A1336"/>
<path d="M105.389 161.167C105.556 161.944 105.056 162.667 104.333 162.833C103.556 163 102.833 162.5 102.667 161.778C102.5 161 103 160.278 103.722 160.111C104.5 159.944 105.222 160.444 105.389 161.167Z" fill="#1A1336"/>
<path d="M99.5 159C99.6667 159.778 99.1667 160.5 98.4444 160.667C97.6667 160.833 96.9444 160.333 96.7778 159.611C96.6111 158.833 97.1111 158.111 97.8333 157.945C98.6111 157.778 99.3333 158.278 99.5 159Z" fill="#1A1336"/>
<path d="M93.5557 156.889C93.7223 157.667 93.2223 158.389 92.5001 158.556C91.7223 158.722 91.0001 158.222 90.8334 157.5C90.6668 156.722 91.1668 156 91.889 155.833C92.6668 155.611 93.389 156.111 93.5557 156.889Z" fill="#1A1336"/>
<path d="M87.6111 154.722C87.7777 155.5 87.2778 156.222 86.5555 156.389C85.7778 156.556 85.0555 156.056 84.8889 155.333C84.7222 154.556 85.2222 153.833 85.9444 153.667C86.7222 153.5 87.5 153.944 87.6111 154.722Z" fill="#1A1336"/>
<path d="M81.7224 152.556C81.8891 153.333 81.3891 154.056 80.6669 154.222C79.8891 154.389 79.1669 153.889 79.0002 153.167C78.8335 152.389 79.3335 151.667 80.0558 151.5C80.8335 151.333 81.5558 151.778 81.7224 152.556Z" fill="#1A1336"/>
<path d="M75.7778 150.389C75.9445 151.167 75.4445 151.889 74.7223 152.056C73.9445 152.222 73.2223 151.722 73.0556 151C72.8889 150.278 73.3889 149.5 74.1112 149.333C74.8889 149.167 75.6112 149.611 75.7778 150.389Z" fill="#1A1336"/>
<path d="M69.8889 148.222C70.0556 149 69.5556 149.722 68.8334 149.889C68.0556 150.056 67.3334 149.556 67.1667 148.833C67 148.056 67.5 147.333 68.2223 147.167C68.9445 147 69.7223 147.444 69.8889 148.222Z" fill="#1A1336"/>
<path d="M63.9446 146.056C64.1113 146.833 63.6112 147.556 62.889 147.722C62.1668 147.889 61.389 147.389 61.2224 146.667C61.0557 145.889 61.5557 145.167 62.2779 145C63.0557 144.833 63.7779 145.333 63.9446 146.056Z" fill="#1A1336"/>
<path d="M58 143.889C58.1667 144.667 57.6667 145.389 56.9444 145.556C56.1667 145.722 55.4444 145.222 55.2778 144.5C55.1111 143.722 55.6111 143 56.3333 142.833C57.1111 142.667 57.8333 143.167 58 143.889Z" fill="#1A1336"/>
<path d="M52.1111 141.722C52.2778 142.5 51.7778 143.222 51.0555 143.389C50.3333 143.556 49.5555 143.056 49.3889 142.333C49.2222 141.556 49.7222 140.833 50.4444 140.667C51.1666 140.5 51.9444 141 52.1111 141.722Z" fill="#1A1336"/>
<path d="M46.1668 139.556C46.3334 140.333 45.8334 141.056 45.1112 141.222C44.389 141.389 43.6112 140.889 43.4445 140.167C43.2779 139.389 43.7779 138.667 44.5001 138.5C45.2779 138.333 46.0001 138.833 46.1668 139.556Z" fill="#1A1336"/>
<path d="M40.2224 137.445C40.3891 138.222 39.8891 138.945 39.1669 139.111C38.3891 139.278 37.6669 138.778 37.5002 138.056C37.3335 137.278 37.8335 136.556 38.5558 136.389C39.3335 136.167 40.0558 136.667 40.2224 137.445Z" fill="#1A1336"/>
<path d="M125.5 161.722C125.667 162.5 125.167 163.222 124.444 163.389C123.667 163.556 122.944 163.056 122.778 162.333C122.611 161.556 123.111 160.833 123.833 160.667C124.611 160.5 125.333 160.944 125.5 161.722Z" fill="#1A1336"/>
<path d="M119.556 159.556C119.722 160.333 119.222 161.056 118.5 161.222C117.722 161.389 117 160.889 116.833 160.167C116.667 159.389 117.167 158.667 117.889 158.5C118.667 158.333 119.389 158.833 119.556 159.556Z" fill="#1A1336"/>
<path d="M113.611 157.389C113.778 158.167 113.278 158.889 112.556 159.056C111.778 159.222 111.056 158.722 110.889 158C110.722 157.222 111.222 156.5 111.944 156.333C112.722 156.167 113.5 156.667 113.611 157.389Z" fill="#1A1336"/>
<path d="M107.722 155.222C107.889 156 107.389 156.722 106.667 156.889C105.889 157.056 105.167 156.556 105 155.833C104.834 155.056 105.334 154.333 106.056 154.167C106.834 154 107.556 154.5 107.722 155.222Z" fill="#1A1336"/>
<path d="M101.778 153.056C101.945 153.833 101.445 154.556 100.722 154.722C99.9445 154.889 99.2223 154.389 99.0556 153.667C98.8889 152.889 99.3889 152.167 100.111 152C100.889 151.833 101.611 152.333 101.778 153.056Z" fill="#1A1336"/>
<path d="M95.8889 150.945C96.0556 151.722 95.5556 152.445 94.8334 152.611C94.0556 152.778 93.3334 152.278 93.1667 151.556C93 150.778 93.5 150.056 94.2223 149.889C94.9445 149.667 95.7223 150.167 95.8889 150.945Z" fill="#1A1336"/>
<path d="M89.9446 148.778C90.1113 149.556 89.6113 150.278 88.889 150.445C88.1113 150.611 87.389 150.111 87.2224 149.389C87.0557 148.611 87.5557 147.889 88.2779 147.722C89.0557 147.556 89.7779 148 89.9446 148.778Z" fill="#1A1336"/>
<path d="M84 146.611C84.1667 147.389 83.6667 148.111 82.9445 148.278C82.1667 148.444 81.4444 147.944 81.2778 147.222C81.1111 146.444 81.6111 145.722 82.3333 145.556C83.1111 145.389 83.8333 145.833 84 146.611Z" fill="#1A1336"/>
<path d="M78.1111 144.444C78.2778 145.222 77.7778 145.944 77.0555 146.111C76.2778 146.278 75.5555 145.778 75.3889 145.056C75.2222 144.278 75.7222 143.556 76.4444 143.389C77.1667 143.222 77.9444 143.667 78.1111 144.444Z" fill="#1A1336"/>
<path d="M72.1668 142.278C72.3334 143.056 71.8334 143.778 71.1112 143.945C70.3334 144.111 69.6112 143.611 69.4445 142.889C69.2779 142.111 69.7779 141.389 70.5001 141.222C71.2779 141.056 72.0001 141.5 72.1668 142.278Z" fill="#1A1336"/>
<path d="M66.2224 140.111C66.3891 140.889 65.8891 141.611 65.1669 141.778C64.3891 141.945 63.6669 141.445 63.5002 140.722C63.3335 139.945 63.8335 139.222 64.5557 139.056C65.3335 138.889 66.0557 139.389 66.2224 140.111Z" fill="#1A1336"/>
<path d="M60.3335 137.944C60.5002 138.722 60.0002 139.444 59.2779 139.611C58.5002 139.778 57.7779 139.278 57.6113 138.556C57.4446 137.778 57.9446 137.056 58.6668 136.889C59.3891 136.722 60.1668 137.222 60.3335 137.944Z" fill="#1A1336"/>
<path d="M54.3889 135.778C54.5556 136.556 54.0556 137.278 53.3334 137.445C52.5556 137.611 51.8334 137.111 51.6667 136.389C51.5 135.611 52 134.889 52.7223 134.722C53.5 134.556 54.2223 135.056 54.3889 135.778Z" fill="#1A1336"/>
<path d="M48.4446 133.611C48.6112 134.389 48.1112 135.111 47.389 135.278C46.6113 135.445 45.889 134.945 45.7224 134.222C45.5557 133.445 46.0557 132.722 46.7779 132.556C47.5557 132.389 48.2779 132.889 48.4446 133.611Z" fill="#1A1336"/>
<path d="M121.889 153.611C122.056 154.389 121.556 155.111 120.833 155.278C120.056 155.445 119.333 154.945 119.167 154.222C119 153.445 119.5 152.722 120.222 152.556C120.944 152.389 121.722 152.889 121.889 153.611Z" fill="#1A1336"/>
<path d="M115.945 151.444C116.111 152.222 115.611 152.944 114.889 153.111C114.111 153.278 113.389 152.778 113.222 152.056C113.056 151.278 113.556 150.556 114.278 150.389C115.056 150.222 115.778 150.722 115.945 151.444Z" fill="#1A1336"/>
<path d="M110 149.278C110.167 150.056 109.667 150.778 108.944 150.945C108.167 151.111 107.444 150.611 107.278 149.889C107.111 149.111 107.611 148.389 108.333 148.222C109.111 148.056 109.833 148.556 110 149.278Z" fill="#1A1336"/>
<path d="M104.111 147.167C104.278 147.945 103.778 148.667 103.056 148.833C102.278 149 101.556 148.5 101.389 147.778C101.222 147 101.722 146.278 102.444 146.111C103.167 145.945 103.944 146.389 104.111 147.167Z" fill="#1A1336"/>
<path d="M98.1668 145C98.3334 145.778 97.8334 146.5 97.1112 146.667C96.3334 146.833 95.6112 146.333 95.4445 145.611C95.2779 144.833 95.7779 144.111 96.5001 143.944C97.2779 143.778 98.0001 144.222 98.1668 145Z" fill="#1A1336"/>
<path d="M92.2224 142.833C92.3891 143.611 91.8891 144.333 91.1669 144.5C90.3891 144.667 89.6669 144.167 89.5002 143.444C89.3335 142.667 89.8335 141.944 90.5557 141.778C91.3335 141.611 92.0557 142.056 92.2224 142.833Z" fill="#1A1336"/>
<path d="M86.3335 140.667C86.5002 141.445 86.0002 142.167 85.2779 142.333C84.5002 142.5 83.7779 142 83.6113 141.278C83.4446 140.5 83.9446 139.778 84.6668 139.611C85.389 139.445 86.1668 139.889 86.3335 140.667Z" fill="#1A1336"/>
<path d="M80.3889 138.5C80.5556 139.278 80.0556 140 79.3334 140.167C78.5556 140.333 77.8334 139.833 77.6667 139.111C77.5 138.333 78 137.611 78.7222 137.444C79.5 137.278 80.2222 137.722 80.3889 138.5Z" fill="#1A1336"/>
<path d="M74.4446 136.333C74.6112 137.111 74.1112 137.833 73.389 138C72.6112 138.167 71.889 137.667 71.7224 136.944C71.5557 136.167 72.0557 135.444 72.7779 135.278C73.5557 135.111 74.2779 135.611 74.4446 136.333Z" fill="#1A1336"/>
<path d="M68.5557 134.167C68.7223 134.944 68.2223 135.667 67.5001 135.833C66.7223 136 66.0001 135.5 65.8334 134.778C65.6668 134 66.1668 133.278 66.889 133.111C67.6668 132.944 68.389 133.444 68.5557 134.167Z" fill="#1A1336"/>
<path d="M62.6111 132C62.7778 132.778 62.2778 133.5 61.5555 133.667C60.7778 133.833 60.0555 133.333 59.8889 132.611C59.7222 131.833 60.2222 131.111 60.9444 130.945C61.6666 130.778 62.4444 131.278 62.6111 132Z" fill="#1A1336"/>
<path d="M56.6668 129.833C56.8334 130.611 56.3334 131.333 55.6112 131.5C54.889 131.667 54.1112 131.167 53.9445 130.444C53.7779 129.667 54.2779 128.944 55.0001 128.778C55.7779 128.611 56.5556 129.111 56.6668 129.833Z" fill="#1A1336"/>
<path d="M118.222 145.5C118.389 146.278 117.889 147 117.167 147.167C116.389 147.333 115.667 146.833 115.5 146.111C115.334 145.333 115.834 144.611 116.556 144.445C117.334 144.278 118.056 144.778 118.222 145.5Z" fill="#1A1336"/>
<path d="M112.333 143.389C112.5 144.167 112 144.889 111.278 145.056C110.5 145.222 109.778 144.722 109.611 144C109.445 143.222 109.945 142.5 110.667 142.333C111.445 142.111 112.167 142.611 112.333 143.389Z" fill="#1A1336"/>
<path d="M106.389 141.222C106.556 142 106.056 142.722 105.333 142.889C104.556 143.056 103.833 142.556 103.667 141.833C103.5 141.056 104 140.333 104.722 140.167C105.5 140 106.222 140.444 106.389 141.222Z" fill="#1A1336"/>
<path d="M100.445 139.055C100.611 139.833 100.111 140.555 99.389 140.722C98.6112 140.889 97.889 140.389 97.7224 139.667C97.5557 138.889 98.0557 138.167 98.7779 138C99.5557 137.833 100.278 138.278 100.445 139.055Z" fill="#1A1336"/>
<path d="M94.5557 136.889C94.7223 137.667 94.2223 138.389 93.5001 138.556C92.7223 138.722 92.0001 138.222 91.8334 137.5C91.6668 136.722 92.1668 136 92.889 135.833C93.6668 135.667 94.389 136.111 94.5557 136.889Z" fill="#1A1336"/>
<path d="M88.6111 134.722C88.7778 135.5 88.2778 136.222 87.5555 136.389C86.7778 136.556 86.0555 136.056 85.8889 135.333C85.7222 134.556 86.2222 133.833 86.9444 133.667C87.7222 133.5 88.4444 133.944 88.6111 134.722Z" fill="#1A1336"/>
<path d="M82.6668 132.556C82.8334 133.333 82.3334 134.056 81.6112 134.222C80.8334 134.389 80.1112 133.889 79.9445 133.167C79.7779 132.389 80.2779 131.667 81.0001 131.5C81.7779 131.333 82.5556 131.833 82.6668 132.556Z" fill="#1A1336"/>
<path d="M76.7778 130.389C76.9445 131.167 76.4445 131.889 75.7223 132.056C74.9445 132.222 74.2223 131.722 74.0556 131C73.8889 130.222 74.3889 129.5 75.1112 129.333C75.8889 129.167 76.6112 129.667 76.7778 130.389Z" fill="#1A1336"/>
<path d="M70.8335 128.222C71.0002 129 70.5002 129.722 69.7779 129.889C69.0002 130.056 68.2779 129.556 68.1113 128.833C67.9446 128.056 68.4446 127.333 69.1668 127.167C69.9446 127 70.6668 127.5 70.8335 128.222Z" fill="#1A1336"/>
<path d="M85.9998 124.445C85.9998 124.445 80.8887 123.222 78.5554 133.167C76.2221 143.111 75.7776 145.667 72.9998 149.333C70.1665 153.056 70.7776 160.389 70.6665 168.611C70.6665 168.611 83.7776 163.889 87.2221 157.056C90.6665 150.222 94.8332 147.056 98.4998 143.167C102.222 139.278 102.944 133.945 102.444 131.5C102 129 85.9998 124.445 85.9998 124.445Z" fill="white"/>
<g opacity="0.3">
<path d="M102.055 133.389C97.8888 143.833 93.611 141 92.6665 143.111C91.7221 145.278 89.0554 148.278 86.4443 149.111C83.8332 149.945 81.3888 153.611 81.3888 153.611C81.5554 150.833 83.9999 147.222 83.5554 145.111C83.111 143 83.8332 141 83.8332 141C82.7221 142.667 80.2776 142.945 80.2776 142.945C81.611 140.556 79.9999 139 80.9999 133.667C81.9999 128.389 85.8888 124.445 85.8888 124.445C85.8888 124.445 80.7776 123.222 78.4443 133.167C76.111 143.111 75.6665 145.667 72.8888 149.333C70.111 153 70.6665 160.389 70.5554 168.611C70.5554 168.611 83.6665 163.889 87.111 157.056C90.5554 150.222 94.7221 147.056 98.3888 143.167C101.889 139.445 102.722 134.5 102.389 131.889C102.389 132.389 102.278 132.889 102.055 133.389Z" fill="#00A0FF"/>
</g>
<path d="M94.8887 64.9446C94.8887 64.9446 90.1664 65.5001 86.8331 65.7224C83.4998 65.9446 81.4442 68.0557 78.2776 71.5557C75.1109 75.0557 67.7776 84.0001 66.2776 85.9446C64.7776 87.889 64.1664 90.4446 67.5553 91.889C70.9442 93.3335 76.1109 95.5001 77.9998 96.1668C79.8887 96.8335 87.7776 101.889 87.7776 101.889L94.8887 64.9446Z" fill="white"/>
<g opacity="0.3">
<path d="M87.7777 101.833L94.3332 67.9446C92.7777 68.1112 90.8332 68.2779 89.2221 68.4446C85.8888 68.6668 83.8332 70.7779 80.6666 74.2779C77.4999 77.7779 70.1666 86.7224 68.6666 88.6668C67.8888 89.6668 67.3332 90.8335 67.4443 91.889C67.4999 91.889 67.4999 91.9446 67.5554 91.9446C70.9443 93.389 76.111 95.5557 77.9999 96.2224C79.8332 96.8335 87.7777 101.833 87.7777 101.833Z" fill="#00A0FF"/>
</g>
<path d="M87.7776 102.389C87.6665 102.389 87.5554 102.333 87.4998 102.278C84.7776 100.556 79.222 97.1668 77.7776 96.6113C75.9443 95.9446 70.7776 93.8335 67.3331 92.3335C65.8331 91.6668 64.8887 90.7779 64.6109 89.6113C64.222 88.0557 65.0554 86.5557 65.8332 85.5002C67.3887 83.5002 74.722 74.5557 77.8887 71.1113C81.1109 67.5557 83.3332 65.389 86.8332 65.1113C90.1109 64.889 94.8331 64.3335 94.8331 64.3335C94.9998 64.3335 95.1665 64.389 95.2776 64.5002C95.3887 64.6113 95.4443 64.8335 95.3887 65.0002L88.3331 101.945C88.2776 102.111 88.1665 102.278 87.9998 102.333C87.9443 102.389 87.8331 102.389 87.7776 102.389ZM94.222 65.6113C92.722 65.7779 89.3887 66.1668 86.8887 66.3335C83.722 66.5557 81.722 68.6113 78.6665 71.9446C75.5554 75.3891 68.222 84.2779 66.6665 86.2779C66.1665 86.9446 65.3331 88.2224 65.6109 89.389C65.8331 90.1668 66.4998 90.8335 67.722 91.3335C71.1665 92.8335 76.3332 94.9446 78.1109 95.6113C79.722 96.1668 85.3331 99.6668 87.3331 100.945L94.222 65.6113Z" fill="#1A1336"/>
<path d="M117.889 119.667C117.889 119.667 124.722 124.833 127.222 126.167C129.722 127.5 135 133.167 137.555 135.167C140.166 137.167 142.333 136.056 143.944 131.445C145.555 126.833 149.666 113.222 150.889 109.333C152.111 105.445 150.111 102.556 148.722 100.056C147.333 97.5557 146.055 94.8335 146.055 94.8335L117.889 119.667Z" fill="white"/>
<g opacity="0.3">
<path d="M148.111 109.611C149.333 105.722 147.333 102.833 145.944 100.333C145.222 99.0001 144.5 97.6667 144 96.6667L117.889 119.667C117.889 119.667 124.722 124.833 127.222 126.167C129.778 127.5 135 133.167 137.555 135.167C137.944 135.445 138.333 135.667 138.666 135.833C139.611 135.111 140.444 133.778 141.111 131.722C142.778 127.111 146.889 113.5 148.111 109.611Z" fill="#00A0FF"/>
</g>
<g opacity="0.3">
<path d="M147.222 102.667C146.778 101.833 146.333 101.056 145.944 100.333C145.222 99.0001 144.5 97.6667 144 96.6667L117.889 119.667C117.889 119.667 120 121.222 122.278 122.889C128.055 120.056 140.666 112.945 147.222 102.667Z" fill="#00A0FF"/>
</g>
<path d="M139.944 136.667C139.111 136.667 138.222 136.278 137.278 135.611C136.222 134.778 134.833 133.445 133.278 132C131 129.833 128.444 127.445 127 126.667C124.444 125.333 117.833 120.333 117.555 120.111C117.444 120 117.333 119.833 117.333 119.667C117.333 119.5 117.389 119.333 117.5 119.222L145.667 94.389C145.778 94.2779 146 94.2223 146.167 94.2779C146.333 94.3335 146.5 94.4446 146.555 94.5557C146.555 94.5557 147.833 97.2779 149.222 99.7223C149.333 99.9446 149.5 100.167 149.611 100.389C150.944 102.722 152.611 105.611 151.444 109.389C151.167 110.389 150.667 111.945 150.055 113.889C148.333 119.556 145.722 128.111 144.5 131.556C143.5 134.445 142.278 136.056 140.778 136.5C140.5 136.667 140.222 136.667 139.944 136.667ZM118.778 119.611C120.444 120.833 125.444 124.556 127.5 125.667C129.111 126.5 131.611 128.889 134.055 131.222C135.555 132.667 136.944 134 137.944 134.778C138.889 135.5 139.722 135.778 140.444 135.556C141.555 135.222 142.611 133.778 143.444 131.333C144.611 127.889 147.278 119.333 149 113.722C149.611 111.833 150.055 110.222 150.389 109.222C151.444 105.945 149.944 103.389 148.667 101.111C148.555 100.889 148.389 100.667 148.278 100.389C147.333 98.6668 146.389 96.7779 145.889 95.8335L118.778 119.611Z" fill="#1A1336"/>
<path d="M70.6665 169.167C70.5554 169.167 70.4443 169.111 70.3332 169.056C70.1665 168.944 70.1109 168.778 70.1109 168.611C70.1109 167.222 70.1109 165.833 70.1109 164.444C70.1109 157.889 70.0554 152.222 72.4998 149C75.0554 145.667 75.6109 143.222 77.4998 135.167L77.9998 133C78.9998 128.778 80.6109 125.944 82.7776 124.611C84.5554 123.5 86.0554 123.833 86.1109 123.889C89.9443 125 102.5 128.778 102.944 131.333C103.444 133.833 102.722 139.389 98.8332 143.5C98.0554 144.333 97.1665 145.167 96.3887 145.944C93.3887 148.889 90.2776 151.944 87.6109 157.222C84.1109 164.167 71.3332 168.889 70.7776 169.056C70.7776 169.167 70.7221 169.167 70.6665 169.167ZM85.4443 124.944C84.2221 124.944 80.8887 125.667 79.1109 133.278L78.6109 135.444C76.6665 143.667 76.1109 146.167 73.4443 149.667C71.2221 152.556 71.2221 158.056 71.2776 164.444C71.2776 165.556 71.2776 166.667 71.2776 167.778C74.1109 166.667 83.9443 162.389 86.7776 156.778C89.4998 151.333 92.6665 148.222 95.7221 145.167C96.5554 144.333 97.3332 143.556 98.1665 142.722C101.611 139.111 102.444 134 102 131.5C101.778 130.5 95.6109 127.667 85.9443 124.889C85.8332 124.944 85.6665 124.944 85.4443 124.944Z" fill="#1A1336"/>
<path d="M87.0554 115.333C87.0554 115.333 84.5554 120.722 84.4998 122.722C84.4443 124.722 85.4998 127.944 91.2776 131.055C97.0554 134.167 103.889 134 105.333 132.222C106.778 130.444 108.944 127.611 108.944 127.611L84.9443 114.222" fill="white"/>
<g opacity="0.3">
<path d="M105.166 126.167L86.7776 115.889C86.1665 117.333 84.4998 121.111 84.4998 122.722C84.4443 124.667 85.4998 127.944 91.2776 131.056C91.4998 131.167 91.7221 131.278 91.9443 131.389C96.3887 132.556 100.5 132.167 101.555 130.833C103 129 105.166 126.167 105.166 126.167Z" fill="#00A0FF"/>
</g>
<path d="M101 134C97.833 134 93.8886 133 90.9997 131.5C85.1108 128.333 83.8886 124.944 83.9442 122.667C83.9442 120.944 85.7219 116.889 86.333 115.556L84.7219 114.667C84.4442 114.5 84.333 114.167 84.4997 113.889C84.6664 113.611 84.9997 113.5 85.2775 113.667L109.277 127.056C109.444 127.111 109.5 127.278 109.555 127.444C109.611 127.611 109.555 127.778 109.444 127.889C109.444 127.944 107.222 130.778 105.777 132.5C104.889 133.556 103.111 134 101 134ZM87.2775 116.111C86.4997 117.889 85.0553 121.389 85.0553 122.722C84.9997 124.667 86.1108 127.667 91.4997 130.556C97.2775 133.667 103.722 133.278 104.889 131.889C105.944 130.611 107.444 128.667 108.111 127.778L87.2775 116.111Z" fill="#1A1336"/>
<path d="M86.8333 103.833C86.8333 103.833 85.5555 106.445 84.5555 109.778C83.5555 113.056 84.6666 116.5 95.9444 123.056C107.222 129.611 113.611 127.611 115.389 125.722C117.167 123.833 119.944 120.556 119.944 120.556L86.8333 103.833Z" fill="#1A1336"/>
<path d="M102.555 126.222C105.5 127.278 107.944 127.611 109.889 127.611L116.5 118.889L108.611 114.889L102.555 126.222Z" fill="#574E86"/>
<path d="M109.611 128.111C106.222 128.111 101.611 127 95.6665 123.5C84.4443 116.944 82.8887 113.278 84.0554 109.555C85.0554 106.278 86.3332 103.667 86.3887 103.555C86.4443 103.444 86.5554 103.333 86.7221 103.278C86.8887 103.222 86.9998 103.222 87.1665 103.333L120.278 120.055C120.444 120.111 120.555 120.278 120.555 120.444C120.555 120.611 120.555 120.778 120.444 120.889C120.389 120.944 117.611 124.222 115.889 126.111C114.833 127.111 112.778 128.111 109.611 128.111ZM87.111 104.555C86.7221 105.5 85.8332 107.5 85.111 109.889C84.111 113.111 85.611 116.333 96.2221 122.555C106.389 128.5 113 127.5 114.944 125.333C116.222 123.944 118.167 121.722 119.055 120.722L87.111 104.555Z" fill="#1A1336"/>
<path d="M119.889 120.556C119.889 120.556 111.389 122.945 99.722 115.889C88.0553 108.833 87.222 104.722 86.7775 103.833C86.3331 102.945 84.9442 83.2779 91.7775 65.9446C98.6109 48.6113 116.889 30.3891 128 21.8891C139.111 13.3891 152.333 8.50017 156.944 10.2779C161.555 12.0557 166.5 24.0557 165.778 37.2779C165.055 50.5002 160.278 77.3891 148.333 95.0002C136.389 112.611 119.889 120.556 119.889 120.556Z" fill="white"/>
<g opacity="0.3">
<path d="M150.889 10.3889C144.722 11.7222 135.889 15.9445 128.055 21.8889C116.944 30.3334 98.6665 48.6111 91.8332 65.9445C84.9998 83.2778 86.3887 103 86.8332 103.833C87.2776 104.722 88.111 108.833 99.7776 115.889C103.778 118.333 107.389 119.611 110.444 120.278C111.778 120.167 112.555 119.944 112.555 119.944C112.555 119.944 129.055 112 141 94.3889C152.944 76.7778 157.833 49.9445 158.555 36.7222C159.222 24.6111 155.167 13.6111 150.889 10.3889Z" fill="#00A0FF"/>
</g>
<path d="M116.111 121.5C115.5 121.5 114.833 121.5 114.167 121.444C110.833 121.167 105.611 120.111 99.4999 116.389C88.6665 109.833 86.9999 105.722 86.4443 104.333C86.3888 104.222 86.3888 104.167 86.3332 104.056C85.7776 103 84.4999 83.0556 91.3332 65.7223C94.3888 57.9445 100.167 49.1112 107.944 40.2223C114.111 33.1667 121.333 26.3334 127.778 21.4445C138.667 13.1667 152.167 7.83338 157.278 9.77783C162.222 11.6667 167.222 23.8334 166.444 37.3334C165.778 49.3889 161.222 77 148.778 95.2778C136.889 112.833 120.278 120.944 120.111 121.056C120.055 121.056 120.055 121.056 120 121.111C120 121.111 118.555 121.5 116.111 121.5ZM154.667 10.5001C149.222 10.5001 138.389 14.7778 128.389 22.3334C107.167 38.4445 95.4999 58 92.3332 66.1112C85.5554 83.2778 86.9999 102.722 87.2776 103.611C87.3332 103.667 87.3332 103.778 87.3888 103.889C87.8888 105.167 89.4999 109.056 99.9999 115.389C110.833 121.944 119 120.167 119.667 120C120.667 119.5 136.444 111.444 147.833 94.6112C160.111 76.5001 164.611 49.1667 165.278 37.2223C166 24.3889 161.278 12.5001 156.778 10.7778C156.278 10.5556 155.555 10.5001 154.667 10.5001Z" fill="#1A1336"/>
<path d="M165.889 37.2779C166.611 24.0557 161.667 12.0557 157.055 10.2779C152.444 8.50017 139.222 13.3891 128.111 21.8891C124.167 24.8891 119.333 29.1113 114.444 34.0557C115.667 36.2779 119.5 41.2779 131.444 48.3891C145.833 57.0002 156 61.1668 162.278 60.778C164.444 51.6113 165.555 43.1113 165.889 37.2779Z" fill="#0925D9"/>
<path d="M161.5 61.3889C155.167 61.3889 145.222 57.2778 131.111 48.8889C119.222 41.7778 115.222 36.7223 113.944 34.3334C113.833 34.1112 113.889 33.8334 114.055 33.6667C118.611 29.0556 123.5 24.6667 127.778 21.4445C138.667 13.1667 152.167 7.83338 157.278 9.77783C162.222 11.6667 167.222 23.8334 166.444 37.3334C166.055 44.1667 164.722 52.7778 162.778 60.9445C162.722 61.1667 162.5 61.3334 162.278 61.3889C162 61.3889 161.778 61.3889 161.5 61.3889ZM115.111 34.1667C116.555 36.5556 120.555 41.3334 131.667 47.9445C145.778 56.3889 155.667 60.4445 161.778 60.2778C163.667 52.3334 164.944 43.9445 165.333 37.2778C166.055 24.4445 161.333 12.5556 156.833 10.8334C152.666 9.22227 139.944 13.5556 128.389 22.3334C124.278 25.4445 119.555 29.6667 115.111 34.1667Z" fill="#1A1336"/>
<path d="M100.611 116.389L89.8332 127.222L85.9443 124.444C85.9443 124.444 93.7221 109.556 96.8888 104.278C100.055 99 108.167 88.7778 109.055 87.8333C109.944 86.8889 113.444 87.8889 112.889 90C112.278 92.1667 100.611 116.389 100.611 116.389Z" fill="white"/>
<g opacity="0.3">
<path d="M89.8333 127.222L100.611 116.389C100.611 116.389 112.278 92.1666 112.833 90.0555C112.889 89.7222 112.889 89.4444 112.833 89.2222C110.667 92.2777 105.111 99.8888 101.389 106.055C96.8888 113.555 89.8333 127.222 89.8333 127.222Z" fill="#00A0FF"/>
</g>
<path d="M89.8331 127.778C89.722 127.778 89.6109 127.722 89.4998 127.667L85.6109 124.889C85.3887 124.722 85.3331 124.445 85.4442 124.167C85.4998 124 93.2776 109.222 96.3887 104C99.5553 98.7223 107.722 88.4445 108.611 87.5001C109.333 86.7223 110.889 86.889 112 87.4445C113.166 88.0556 113.666 89.1112 113.389 90.1667C112.833 92.2779 101.611 115.611 101.111 116.611C101.111 116.667 101.055 116.722 101 116.778L90.222 127.611C90.1664 127.722 89.9998 127.778 89.8331 127.778ZM86.722 124.278L89.8331 126.5L100.222 116.056C104.278 107.667 111.944 91.5001 112.389 89.889C112.611 89.1112 111.944 88.6112 111.555 88.389C110.722 87.9445 109.778 87.9445 109.555 88.1667C108.722 89.1112 100.611 99.2779 97.4998 104.5C94.5553 109.278 87.9998 121.778 86.722 124.278Z" fill="#1A1336"/>
<path d="M118.778 86.7224C127.86 86.7224 135.222 79.36 135.222 70.2779C135.222 61.1959 127.86 53.8335 118.778 53.8335C109.696 53.8335 102.333 61.1959 102.333 70.2779C102.333 79.36 109.696 86.7224 118.778 86.7224Z" fill="white"/>
<path d="M119.611 81.6112C125.722 81 130.222 75.5556 129.611 69.4445C129 63.3334 123.555 58.8334 117.444 59.4445C111.333 60.0556 106.833 65.5 107.444 71.6112C108.055 77.7778 113.5 82.2223 119.611 81.6112Z" fill="#0925D9"/>
<path d="M119.833 80.7779C113.778 80.0001 109.389 74.4446 110 68.389C110.444 64.389 113 61.2779 116.333 59.5557C111.666 60.4446 107.944 64.2223 107.444 69.1668C106.666 75.2223 111.055 80.8334 117.278 81.5557C119.5 81.7223 121.5 81.389 123.333 80.5557C122.166 80.8334 120.944 80.9446 119.833 80.7779Z" fill="#1A1336"/>
<path d="M111.778 79.5556L123.666 60.7778C122.5 60.2223 121.111 59.6667 119.722 59.5556C119.055 59.5001 118.222 59.4445 117.555 59.5001L108 74.5001C108.722 76.4445 110.166 78.2223 111.778 79.5556Z" fill="white"/>
<path d="M118.722 87.2777C114.833 87.2777 111.055 85.9444 108 83.4444C104.5 80.5555 102.333 76.5 101.889 72C100.944 62.6666 107.778 54.3333 117.111 53.4444C126.444 52.5 134.778 59.3333 135.722 68.6666C136.667 78 129.833 86.3333 120.5 87.2222C119.833 87.2222 119.278 87.2777 118.722 87.2777ZM118.778 54.3889C118.278 54.3889 117.722 54.3889 117.222 54.4444C108.5 55.3333 102.111 63.1111 103 71.8333C103.444 76.0555 105.444 79.8889 108.722 82.5555C112 85.2222 116.111 86.5 120.333 86.0555C129.055 85.1666 135.444 77.3889 134.555 68.6666C133.722 60.5555 126.833 54.3889 118.778 54.3889Z" fill="#1A1336"/>
<path d="M118.5 82.5557C112.389 82.5557 107.166 77.9446 106.555 71.7224C105.889 65.1113 110.722 59.2224 117.333 58.6113C123.944 57.9446 129.833 62.7779 130.444 69.389C131.111 76.0002 126.278 81.889 119.666 82.5002C119.333 82.5557 118.944 82.5557 118.5 82.5557ZM118.555 59.6668C118.222 59.6668 117.833 59.6668 117.444 59.7224C111.444 60.3335 107.055 65.6668 107.666 71.6668C108.278 77.6668 113.611 82.0002 119.611 81.4446C125.611 80.8335 130 75.5002 129.389 69.5002C128.833 63.889 124.055 59.6668 118.555 59.6668Z" fill="#1A1336"/>
<path d="M123.389 52.5556C119.444 52.1111 115.555 53.0556 112.389 55.1111C114.722 54.2223 117.278 53.9445 120 54.2223C129.055 55.3334 135.555 63.5 134.444 72.5556C133.889 77.6111 131.055 81.8334 127.111 84.3889C132.722 82.3334 137.111 77.2778 137.833 70.8889C138.778 61.8334 132.444 53.6667 123.389 52.5556Z" fill="#1A1336"/>
<path d="M127.055 85.0001C126.833 85.0001 126.667 84.889 126.555 84.6667C126.444 84.389 126.5 84.1112 126.778 83.9445C130.778 81.389 133.333 77.1667 133.889 72.5001C134.444 68.2778 133.278 64.1112 130.611 60.7779C128 57.4445 124.167 55.3334 119.944 54.7778C117.167 54.5001 114.778 54.7778 112.555 55.6112C112.278 55.7223 112 55.6112 111.833 55.3334C111.667 55.0556 111.778 54.7779 112 54.6112C115.333 52.4445 119.278 51.5001 123.333 51.9445C132.555 53.1112 139.278 61.6112 138.222 70.889C137.5 77.2778 133.278 82.6667 127.167 84.889C127.222 84.9445 127.111 85.0001 127.055 85.0001ZM118 53.5556C118.667 53.5556 119.389 53.6112 120.111 53.6667C124.667 54.2223 128.722 56.5001 131.5 60.0556C134.333 63.6112 135.555 68.1112 135 72.6112C134.611 75.9445 133.278 79.0556 131.111 81.5556C134.5 79.0001 136.778 75.1667 137.222 70.7778C138.222 61.9445 132.055 54.1667 123.278 53.0556C121.111 52.8334 119.055 53.0001 117.055 53.5556C117.389 53.6112 117.667 53.5556 118 53.5556Z" fill="#1A1336"/>
<g opacity="0.3">
<path d="M132.722 39.889C128.944 37.7779 135.444 27.7224 142.055 23.3335C148.667 18.9446 149.389 21.5557 146.778 26.7224C144.111 31.8335 137.444 42.5001 132.722 39.889Z" fill="white"/>
</g>
<g opacity="0.3">
<path d="M158.722 23.9446C158.722 23.9446 161 39.7224 157.166 53.0001C157.166 53.0001 155.055 52.3335 153.222 51.3335C151.444 50.3335 158.611 48.389 158.722 23.9446Z" fill="white"/>
</g>
<path d="M95.5553 72.5C95.5553 72.5 96.9998 83.5 91.4998 90.2222C91.4998 90.2222 91.5553 77.1667 95.5553 72.5Z" fill="white"/>
<path d="M158.5 123.5C163.256 123.5 167.111 119.645 167.111 114.889C167.111 110.133 163.256 106.278 158.5 106.278C153.744 106.278 149.889 110.133 149.889 114.889C149.889 119.645 153.744 123.5 158.5 123.5Z" fill="white"/>
<g opacity="0.3">
<path d="M161.445 107.222C160.945 106.889 160.389 106.611 159.889 106.389C156.667 105.889 153.278 107.222 151.334 110.111C148.667 114.056 149.722 119.444 153.722 122.056C154.222 122.389 154.778 122.667 155.278 122.889C158.5 123.389 161.889 122.056 163.834 119.167C166.445 115.222 165.389 109.889 161.445 107.222Z" fill="#00A0FF"/>
</g>
<g opacity="0.3">
<path d="M153 119.222L153.222 118.167C151.278 116.778 150.445 114.389 150.167 112.667C149.778 114.111 149.778 115.667 150.167 117.055C151.611 118.667 153 119.222 153 119.222Z" fill="white"/>
</g>
<path d="M158.445 124.111C156.667 124.111 154.889 123.556 153.334 122.556C151.278 121.167 149.889 119.111 149.445 116.722C148.945 114.333 149.445 111.889 150.834 109.833C152.222 107.778 154.278 106.389 156.667 105.944C159.056 105.444 161.5 105.944 163.556 107.333C165.611 108.722 167 110.778 167.445 113.167C167.945 115.556 167.445 118 166.056 120.056C164.667 122.111 162.611 123.5 160.222 123.944C159.667 124.056 159.056 124.111 158.445 124.111ZM158.5 106.833C157.945 106.833 157.445 106.889 156.889 107C154.778 107.444 152.945 108.667 151.722 110.444C150.5 112.222 150.111 114.389 150.5 116.5C150.889 118.611 152.167 120.444 153.945 121.611C155.722 122.833 157.889 123.222 160 122.833C162.111 122.389 163.945 121.167 165.167 119.389C166.389 117.611 166.778 115.444 166.389 113.333C166 111.222 164.722 109.389 162.945 108.167C161.611 107.278 160.056 106.833 158.5 106.833Z" fill="#1A1336"/>
<path d="M159 109.5L159.222 107.778C159.222 107.778 156.389 107.389 154.611 108.889C154.611 108.889 154.667 109.889 155.334 110.833C155.334 110.778 157.445 109.111 159 109.5Z" fill="white"/>
<g opacity="0.3">
<path d="M162.556 112C162.556 112 163.611 110.667 163.722 110.444C163.722 110.444 166.056 112.5 165.167 116.333C165.167 116.333 163.889 116.667 162.722 116.167C162.778 116.167 163.5 114.222 162.556 112Z" fill="white"/>
</g>
<path fill-rule="evenodd" clip-rule="evenodd" d="M155 112.333L157.834 112.944L160.167 111.167L160.334 114.055L162.722 115.722L160 116.889L159.056 119.722L157.222 117.5L154.333 117.611L155.889 115.055L155 112.333Z" fill="#0925D9"/>
<path d="M82.5857 49.0933C87.4521 47.1322 89.8073 41.5974 87.8461 36.731C85.885 31.8646 80.3502 29.5094 75.4838 31.4705C70.6174 33.4317 68.2622 38.9665 70.2233 43.8329C72.1845 48.6993 77.7193 51.0545 82.5857 49.0933Z" fill="white"/>
<g opacity="0.3">
<path d="M73.878 32.8365C73.2597 33.0857 72.6621 33.3864 72.1576 33.7694C69.678 36.3859 68.8113 40.329 70.2442 43.8845C72.2169 48.7797 77.7628 51.0969 82.6065 49.1449C83.2249 48.8957 83.8225 48.595 84.327 48.212C86.8065 45.5955 87.6732 41.6524 86.2404 38.0969C84.2884 33.2532 78.7732 30.8637 73.878 32.8365Z" fill="#00A0FF"/>
</g>
<g opacity="0.3">
<path d="M79.5602 47.9765L78.7327 47.1121C76.2178 48.0058 73.5852 47.2698 71.8501 46.5315C72.9468 47.7666 74.342 48.7018 75.8909 49.2756C78.242 48.8671 79.5602 47.9765 79.5602 47.9765Z" fill="white"/>
</g>
<path d="M82.8141 49.6601C77.6613 51.7367 71.8054 49.2449 69.7288 44.0921C67.6522 38.9392 70.144 33.0833 75.2969 31.0068C80.4498 28.9302 86.3056 31.422 88.3822 36.5748C90.4588 41.7277 87.967 47.5835 82.8141 49.6601ZM75.6915 31.9858C71.1054 33.834 68.8905 39.0392 70.7386 43.6252C72.5868 48.2113 77.792 50.4262 82.3781 48.578C86.9641 46.7299 89.179 41.5247 87.3309 36.9386C85.4827 32.3526 80.2775 30.1376 75.6915 31.9858Z" fill="#1A1336"/>
<path d="M74.434 36.4456L72.9658 35.1805C72.9658 35.1805 70.8055 37.5485 71.1008 40.065C71.1008 40.065 72.0514 40.6403 73.2996 40.6164C73.3512 40.5956 73.1166 37.6354 74.434 36.4456Z" fill="white"/>
<g opacity="0.3">
<path d="M78.907 34.763C78.907 34.763 78.3556 32.9488 78.2002 32.7119C78.2002 32.7119 81.5096 31.8574 84.4683 35.0375C84.4683 35.0375 84.0076 36.4211 82.8025 37.1464C82.854 37.1256 81.5289 35.3237 78.907 34.763Z" fill="white"/>
</g>
<path fill-rule="evenodd" clip-rule="evenodd" d="M73.815 40.4088L76.8029 38.9052L77.6504 35.5089L79.9369 38.0615L83.2993 37.7846L81.7081 40.8217L82.9649 44.0888L79.6516 43.4474L77.0783 45.6824L76.6568 42.2584L73.815 40.4088Z" fill="#0925D9"/>
<path d="M119.327 142.708C116.658 147.185 121.08 154.526 129.198 159.11C137.317 163.693 146.016 163.767 148.685 159.291L151.32 154.392L122.012 137.783L119.327 142.708Z" fill="#1A1336"/>
<path d="M139.456 147.697L122.213 137.928L121.962 137.809L119.301 142.659C116.633 147.135 121.054 154.477 129.172 159.061C130.504 159.804 131.834 160.424 133.262 160.991L139.456 147.697Z" fill="#574E86"/>
<path d="M122.077 153.438C122.891 154.39 123.804 155.292 124.789 156.092L130.937 142.947L127.82 141.196L122.077 153.438Z" fill="white"/>
<path d="M146.527 161.993C145.052 162.768 143.196 163.178 140.984 163.148C137.206 163.124 132.956 161.843 128.934 159.562C124.938 157.331 121.722 154.314 119.745 151.148C118.923 149.823 118.347 148.368 118.069 146.883C117.791 145.398 118.082 143.801 118.825 142.469L121.486 137.62C121.559 137.519 121.681 137.392 121.854 137.364C122.027 137.336 122.152 137.333 122.252 137.406L151.61 153.989C151.887 154.157 151.992 154.478 151.824 154.755L149.163 159.604C148.536 160.561 147.658 161.399 146.527 161.993ZM122.176 138.575L119.78 142.972C119.132 144.128 118.908 145.375 119.132 146.638C119.359 148.025 119.907 149.306 120.677 150.533C122.527 153.578 125.666 156.447 129.437 158.608C133.283 160.792 137.357 161.978 140.961 162.03C144.441 162.084 147.004 160.989 148.157 159.003L150.505 154.632L122.176 138.575Z" fill="#1A1336"/>
<path d="M131.834 154.211C139.952 158.795 148.651 158.869 151.271 154.418C153.939 149.941 149.518 142.599 141.399 138.016C133.281 133.432 124.582 133.358 121.962 137.809C119.294 142.286 123.715 149.627 131.834 154.211Z" fill="white"/>
<g opacity="0.3">
<path d="M121.197 140.533C121.036 144.885 125.223 150.467 131.834 154.211C138.545 158.028 145.691 158.729 149.445 156.318C149.606 151.966 145.419 146.384 138.808 142.64C132.097 138.824 124.951 138.122 121.197 140.533Z" fill="#00A0FF"/>
</g>
<path d="M149.212 157.068C145.179 159.187 138.131 158.434 131.595 154.713C126.166 151.666 122.1 147.15 120.972 142.973C120.41 140.946 120.621 139.078 121.51 137.545C124.298 132.817 133.393 132.809 141.713 137.537C147.142 140.584 151.208 145.1 152.336 149.277C152.898 151.304 152.687 153.172 151.798 154.705C151.171 155.662 150.294 156.5 149.212 157.068ZM124.637 136.09C123.702 136.581 122.92 137.243 122.441 138.122C121.72 139.379 121.554 140.973 122.01 142.679C123.058 146.584 126.92 150.831 132.098 153.758C139.94 158.174 148.318 158.354 150.818 154.154C151.538 152.897 151.705 151.303 151.249 149.597C150.201 145.692 146.339 141.445 141.161 138.518C134.902 134.965 128.325 134.153 124.637 136.09Z" fill="#1A1336"/>
<path d="M42.7132 124.969C46.5859 128.966 55.418 126.425 62.4647 119.342C69.4591 112.24 72.0018 103.235 68.1291 99.2375L63.8196 95.1416L38.4559 120.891L42.7132 124.969Z" fill="#1A1336"/>
<path d="M53.529 105.483L38.6214 120.597L38.4037 120.872L42.7132 124.968C46.5859 128.966 55.418 126.425 62.4647 119.342C63.5823 118.21 64.6331 116.935 65.5794 115.623L53.529 105.483Z" fill="#574E86"/>
<path d="M54.6268 125.017C55.8359 124.45 56.9782 123.74 58.0871 122.959L46.1745 112.928L43.4894 115.621L54.6268 125.017Z" fill="white"/>
<path d="M69.4198 109.568C68.1746 113.016 65.8901 116.562 62.8261 119.65C59.3833 123.132 55.402 125.652 51.56 126.804C49.9663 127.292 48.3102 127.462 46.6961 127.352C45.0298 127.223 43.5188 126.5 42.3533 125.311L38.0437 121.215C37.9581 121.125 37.8913 120.983 37.8957 120.807C37.8811 120.684 37.9377 120.527 38.0466 120.389L63.4103 94.6394C63.6091 94.4158 63.9604 94.4245 64.1839 94.6234L68.4934 98.7193C70.5154 100.808 71.0119 104.177 69.9292 108.157C69.7406 108.679 69.5896 109.097 69.4198 109.568ZM39.1962 120.804L43.1109 124.521C44.1052 125.53 45.4261 126.125 46.7411 126.246C48.2318 126.37 49.7645 126.215 51.2348 125.742C54.9157 124.708 58.7548 122.255 62.0365 118.892C65.3704 115.548 67.7347 111.617 68.7753 107.917C69.7782 104.322 69.3775 101.342 67.6458 99.5946L63.7311 95.8775L39.1962 120.804Z" fill="#1A1336"/>
<path d="M58.1217 115.175C65.1161 108.073 67.6588 99.0675 63.7861 95.0703C59.9135 91.0731 51.0814 93.6134 44.087 100.716C37.0925 107.818 34.5498 116.823 38.4225 120.82C42.2951 124.817 51.1273 122.277 58.1217 115.175Z" fill="white"/>
<g opacity="0.3">
<path d="M40.9844 122.395C45.4492 123.771 52.406 121.026 58.1029 115.227C63.8897 109.343 66.5979 102.17 65.1826 97.5829C60.7178 96.2071 53.761 98.952 48.0641 104.751C42.2773 110.635 39.5691 117.809 40.9844 122.395Z" fill="#00A0FF"/>
</g>
<path d="M65.0913 105.524C63.8838 108.868 61.6515 112.433 58.5165 115.554C53.8472 120.306 48.0443 123.29 43.4403 123.282C41.1905 123.296 39.3282 122.565 38.0436 121.215C33.9474 117.019 36.4988 107.663 43.6921 100.337C48.3613 95.5847 54.1642 92.6003 58.7683 92.6089C61.0181 92.5943 62.8803 93.3258 64.1649 94.6756C66.4772 97.1053 66.6762 101.135 65.0913 105.524ZM57.7268 114.796C64.5224 107.917 67.0564 99.2636 63.3362 95.4986C62.2562 94.3999 60.6552 93.7627 58.7045 93.7672C54.3994 93.7484 48.881 96.5993 44.4106 101.128C37.615 108.007 35.081 116.661 38.8013 120.426C39.8812 121.524 41.4822 122.161 43.433 122.157C47.738 122.176 53.2376 119.377 57.7268 114.796Z" fill="#1A1336"/>
</svg>
